<?xml version="1.0" standalone="no"?>
<!DOCTYPE svg PUBLIC "-//W3C//DTD SVG 20010904//EN"
 "http://www.w3.org/TR/2001/REC-SVG-20010904/DTD/svg10.dtd">
<svg version="1.0" xmlns="http://www.w3.org/2000/svg"
 width="212.000000pt" height="212.000000pt" viewBox="0 0 212.000000 212.000000"
 preserveAspectRatio="xMidYMid meet">
<metadata>
Created by potrace 1.11, written by Peter Selinger 2001-2013
</metadata>
<g transform="translate(0.000000,212.000000) scale(0.100000,-0.100000)"
fill="#000000" stroke="none">
<path d="M478 2035 c-4 -4 -2 -19 5 -33 16 -40 29 -51 18 -17 -5 17 -11 36
-13 43 -2 7 -6 10 -10 7z"/>
<path d="M516 1930 c11 -43 86 -210 95 -210 5 0 9 -11 9 -25 0 -18 -5 -25 -19
-25 -11 0 -28 -12 -39 -27 l-19 -26 -19 20 c-10 12 -32 37 -48 56 -17 20 -33
34 -37 31 -10 -6 6 -58 30 -98 19 -30 20 -35 5 -47 -12 -10 -20 -10 -35 -1
-26 17 -42 5 -35 -24 9 -34 -11 -30 -32 6 -17 31 -36 38 -47 20 -4 -6 -26 8
-53 34 -76 75 -60 43 21 -39 69 -69 73 -76 55 -86 -21 -11 -27 -8 -95 54 -17
16 -36 28 -41 26 -6 -2 18 -28 52 -58 l63 -55 -20 -23 c-22 -25 -24 -25 -110
32 -15 9 -27 15 -27 12 0 -2 19 -17 43 -32 59 -39 100 -81 92 -94 -3 -6 -10
-9 -15 -6 -13 8 -40 -6 -40 -21 0 -8 6 -25 14 -37 19 -30 4 -71 -24 -64 -11 3
-25 -2 -32 -10 -10 -13 -8 -19 16 -38 33 -26 30 -67 -4 -60 -11 2 -22 0 -25
-6 -4 -5 -14 -9 -23 -8 -14 0 -13 2 3 9 14 6 5 9 -35 9 -36 1 -50 -2 -41 -8 8
-5 20 -7 26 -5 7 3 15 -1 18 -9 4 -12 -3 -14 -34 -12 -24 2 -37 0 -33 -7 3 -5
12 -7 18 -5 7 3 19 1 27 -4 11 -7 11 -9 1 -9 -7 0 -10 -5 -7 -10 4 -6 10 -8
15 -5 12 8 87 -31 93 -47 2 -7 -2 -21 -11 -30 -13 -16 -13 -20 1 -42 18 -28
13 -36 -21 -36 -14 0 -22 -3 -18 -7 4 -5 13 -8 19 -8 22 0 18 -32 -5 -38 -37
-10 -15 -17 24 -8 30 7 40 5 53 -8 21 -25 19 -40 -10 -53 -27 -12 -32 -30 -12
-46 8 -7 18 -7 27 -2 21 14 27 12 34 -7 5 -11 -1 -23 -16 -34 -19 -15 -20 -19
-8 -34 8 -10 23 -15 37 -12 16 3 27 -3 38 -19 27 -42 19 -72 -40 -139 -30 -35
-55 -67 -55 -72 0 -4 4 -3 8 2 4 6 20 21 36 35 l30 25 -21 -30 c-12 -16 -35
-43 -52 -60 -17 -16 -31 -35 -31 -42 0 -6 -13 -23 -30 -36 -16 -14 -30 -32
-30 -40 0 -9 18 3 44 28 75 74 114 106 120 97 3 -5 -11 -26 -31 -46 -20 -20
-33 -39 -29 -43 3 -4 42 30 85 75 43 45 82 82 86 82 8 0 -45 -73 -57 -78 -4
-2 -8 -8 -8 -13 0 -5 9 -4 20 3 11 7 20 18 20 25 0 6 14 23 31 37 l31 26 44
-39 c39 -34 49 -38 83 -34 65 9 94 -22 65 -69 -5 -8 -2 -9 9 -5 10 3 17 2 17
-4 0 -6 7 -17 15 -25 8 -9 15 -24 15 -35 0 -27 38 -25 51 4 14 32 48 52 62 38
15 -15 43 -14 61 4 11 11 21 13 41 5 30 -11 32 -16 44 -95 l10 -60 -3 62 c-1
44 2 64 11 67 9 4 15 -8 19 -35 4 -21 11 -42 15 -45 5 -3 9 -20 9 -37 0 -40
10 -77 20 -77 5 0 3 15 -2 34 -9 28 -8 42 5 69 10 21 14 46 11 68 -4 25 -1 39
10 48 18 15 51 7 40 -10 -8 -13 13 -29 38 -29 12 0 19 11 24 35 8 42 24 56 66
60 23 2 40 -4 56 -18 18 -17 26 -19 40 -10 9 6 16 19 14 29 -8 52 -14 45 63
82 36 17 43 17 74 5 19 -8 49 -26 68 -40 18 -14 36 -24 39 -21 2 3 -12 17 -31
32 -27 21 -33 31 -26 40 6 7 7 16 3 21 -20 22 49 -12 88 -43 69 -55 78 -59 45
-24 -16 18 -54 49 -85 69 -68 46 -85 64 -68 74 7 4 17 5 23 1 12 -8 28 -11 80
-17 58 -7 72 -14 78 -34 4 -17 172 -151 190 -151 14 0 7 19 -10 24 -10 3 -31
19 -48 34 -16 15 -38 31 -47 35 -10 3 -18 13 -18 20 0 8 -17 27 -37 43 -42 32
-123 110 -123 118 0 13 28 5 48 -14 25 -24 47 -26 38 -4 -3 9 -6 20 -6 25 0 4
-6 6 -14 3 -14 -5 -71 24 -76 39 -1 5 11 22 26 38 22 23 34 29 53 24 21 -5 23
-4 12 9 -8 9 -10 16 -5 16 12 0 135 -34 198 -53 82 -26 36 1 -59 34 -108 38
-114 42 -107 74 3 19 -1 27 -22 36 -17 8 -26 20 -26 36 0 19 5 23 33 23 18 0
37 -4 42 -9 6 -5 29 -11 53 -15 38 -6 43 -4 40 11 -2 9 -17 20 -36 25 -33 9
-45 31 -14 27 54 -5 54 9 0 18 -61 9 -41 13 43 7 135 -10 134 -10 131 4 -1 8
18 12 70 13 67 1 69 2 28 9 -24 4 -64 6 -87 4 -24 -1 -43 2 -43 7 0 5 14 10
30 10 60 3 68 4 77 13 4 5 -26 6 -72 2 -44 -4 -125 -9 -179 -12 l-99 -6 17 27
c17 26 17 27 -7 58 -25 33 -25 57 -1 57 13 0 34 37 34 60 0 5 -14 8 -31 8 -42
-1 -71 35 -58 70 10 25 4 63 -9 60 -4 -1 -17 1 -29 6 -36 12 -28 33 15 39 57
8 71 12 85 26 12 14 -7 13 -90 -5 -30 -6 -33 -4 -33 17 0 12 -10 33 -22 47
-21 22 -22 24 -6 33 10 5 22 19 28 29 9 17 8 19 -7 13 -10 -3 -29 -15 -42 -25
-27 -21 -40 -16 -21 7 11 13 10 14 -4 9 -9 -3 -16 -1 -16 5 0 6 6 12 13 13 24
3 32 4 57 12 48 15 100 40 100 48 0 11 -11 9 -40 -7 -42 -24 -46 -17 -10 20
19 19 31 35 27 35 -11 0 -79 -49 -93 -68 -7 -9 -14 -13 -14 -8 0 6 -13 -3 -30
-19 -27 -26 -30 -27 -30 -9 0 28 -19 44 -52 44 -15 0 -28 3 -28 6 0 4 26 36
58 72 85 96 144 172 133 172 -6 0 -15 -8 -20 -17 -8 -13 -13 -15 -19 -6 -5 8
-24 -11 -55 -57 -26 -38 -47 -72 -47 -77 0 -4 -16 -25 -35 -46 -30 -33 -38
-37 -51 -26 -9 8 -13 21 -10 35 6 24 -25 56 -48 49 -41 -12 -67 -15 -61 -5 3
5 2 10 -4 10 -5 0 -13 -5 -16 -10 -9 -15 -41 5 -48 30 -3 11 5 39 17 63 24 45
25 77 0 57 -17 -15 -35 -4 -28 18 3 9 -5 1 -18 -18 -12 -19 -23 -37 -24 -40
-11 -77 -27 -95 -56 -67 -7 8 -24 19 -36 26 -22 11 -23 17 -18 79 5 51 4 61
-4 43 -6 -13 -11 -35 -13 -49 -1 -15 -10 -27 -23 -33 -13 -4 -27 -16 -34 -26
-9 -15 -10 -10 -8 25 2 23 0 42 -4 42 -5 0 -8 -20 -8 -45 0 -48 -2 -50 -30
-35 -15 8 -22 5 -34 -12 -9 -13 -33 -28 -53 -34 -35 -10 -39 -9 -70 22 -18 19
-33 40 -33 49 0 9 -5 13 -11 10 -9 -6 -7 -37 7 -87 8 -26 -33 -24 -41 2 -3 11
-13 20 -22 20 -9 0 -22 8 -30 18 -13 16 -14 15 -8 -8 l5 -25 -12 25 c-6 14
-20 45 -31 70 -31 75 -58 127 -51 100z m644 -164 c0 -2 -8 -10 -17 -17 -16
-13 -17 -12 -4 4 13 16 21 21 21 13z m467 -1201 c9 -25 -4 -29 -17 -6 -7 15
-7 21 0 21 6 0 13 -7 17 -15z"/>
<path d="M935 1880 c3 -5 8 -10 11 -10 2 0 4 5 4 10 0 6 -5 10 -11 10 -5 0 -7
-4 -4 -10z"/>
<path d="M10 1079 c0 -5 5 -7 10 -4 6 3 10 8 10 11 0 2 -4 4 -10 4 -5 0 -10
-5 -10 -11z"/>
<path d="M45 1080 c3 -5 8 -10 11 -10 2 0 4 5 4 10 0 6 -5 10 -11 10 -5 0 -7
-4 -4 -10z"/>
</g>
</svg>
