<svg xmlns="http://www.w3.org/2000/svg" width="517" height="398" viewBox="0 0 517 398">
  <path fill="#171FC9" fill-rule="evenodd" d="M131.418427,35.0037082 C131.918427,36.1037082 132.018427,38.1037082 133.418427,37.3037082 C133.518427,36.8037082 132.718427,34.3037082 131.418427,35.0037082 Z M168.918427,0.703708199 C170.718427,2.0037082 166.218427,3.6037082 164.918427,3.3037082 C164.618427,1.7037082 167.318427,1.4037082 168.918427,0.703708199 Z M85.6184271,30.4037082 C85.4184271,31.4037082 82.5184271,32.5037082 81.3184271,32.3037082 C80.7184271,30.7037082 83.5184271,30.6037082 84.6184271,29.8037082 C84.7184271,29.7037082 84.7184271,29.7037082 84.8184271,29.6037082 L84.8184271,29.7037082 C85.5184271,29.4037082 86.1184271,29.1037082 86.8184271,28.9037082 C87.6184271,28.6037082 88.4184271,28.3037082 89.0184271,27.9037082 C89.0184271,27.8037082 89.1184271,27.8037082 89.1184271,27.8037082 C89.3184271,27.7037082 89.6184271,27.8037082 89.7184271,28.0037082 C89.9184271,28.2037082 89.8184271,28.5037082 89.6184271,28.7037082 C88.9184271,29.2037082 88.0184271,29.5037082 87.2184271,29.8037082 C86.7184271,29.9037082 86.1184271,30.1037082 85.6184271,30.4037082 Z M96.7184271,41.8037082 C96.6184271,41.9037082 96.4184271,42.0037082 96.3184271,42.0037082 C96.1184271,42.2037082 95.8184271,42.1037082 95.6184271,41.9037082 C95.4184271,41.7037082 95.5184271,41.4037082 95.7184271,41.2037082 C95.8184271,41.1037082 96.0184271,41.0037082 96.2184271,40.9037082 C96.4184271,40.8037082 96.6184271,40.7037082 96.8184271,40.5037082 C96.8184271,40.4037082 96.8184271,40.4037082 96.9184271,40.4037082 C97.1184271,40.3037082 97.4184271,40.4037082 97.5184271,40.6037082 C97.7184271,40.8037082 97.6184271,41.1037082 97.4184271,41.3037082 C97.2184271,41.5037082 96.9184271,41.7037082 96.7184271,41.8037082 Z M108.218427,14.6037082 C108.218427,14.9037082 108.018427,15.1037082 107.718427,15.0037082 C107.518427,15.1037082 107.218427,14.9037082 107.218427,14.6037082 C107.218427,14.3037082 107.018427,14.1037082 106.718427,13.8037082 C106.418427,13.4037082 106.018427,13.1037082 105.918427,12.5037082 C105.918427,12.3037082 106.018427,12.1037082 106.218427,12.0037082 C106.318427,12.0037082 106.318427,12.0037082 106.318427,12.0037082 C106.618427,12.0037082 106.818427,12.1037082 106.918427,12.4037082 C106.918427,12.7037082 107.118427,12.9037082 107.418427,13.2037082 C107.718427,13.5037082 108.118427,13.9037082 108.218427,14.6037082 Z M378.718427,385.603708 C380.018427,385.003708 381.018427,385.203708 381.318427,386.603708 C380.618427,386.803708 380.018427,387.103708 379.318427,387.303708 C379.118427,386.703708 378.918427,386.203708 378.718427,385.603708 Z M416.118427,368.003708 C416.918427,371.103708 418.818427,372.203708 421.218427,371.803708 C420.318427,368.903708 418.518427,367.803708 416.118427,368.003708 Z M296.218427,356.503708 C296.618427,358.003708 298.018427,357.403708 299.118427,357.303708 C298.818427,355.803708 297.618427,355.803708 296.218427,356.503708 Z M251.518427,337.203708 C252.118427,338.603708 252.718427,340.103708 252.718427,341.303708 C252.418427,341.503708 252.018427,341.603708 251.718427,341.703708 C250.918427,340.703708 250.018427,338.603708 250.418427,337.403708 C250.218427,336.503708 249.918427,335.503708 249.618427,334.603708 C249.318427,333.603708 248.918427,332.503708 248.718427,331.503708 C248.618427,331.203708 248.818427,330.903708 249.118427,330.803708 C249.218427,330.803708 249.218427,330.803708 249.218427,330.803708 C249.518427,330.803708 249.818427,331.003708 249.918427,331.303708 C250.118427,332.303708 250.418427,333.303708 250.718427,334.303708 C251.018427,335.203708 251.318427,336.203708 251.518427,337.203708 Z M355.418427,303.103708 C354.718427,301.503708 353.718427,300.403708 352.018427,300.903708 C352.718427,302.803708 353.718427,303.703708 355.418427,303.103708 Z M331.818427,310.903708 C331.118427,311.203708 330.718427,311.003708 330.418427,310.303708 C330.718427,310.103708 331.118427,310.003708 331.418427,309.903708 C331.618427,310.203708 331.718427,310.603708 331.818427,310.903708 Z M512.818427,240.503708 C513.418427,239.503708 515.818427,238.803708 516.418427,240.003708 C517.018427,241.903708 513.018427,243.303708 512.818427,240.503708 Z M203.318427,350.803708 C203.218427,351.903708 201.118427,350.403708 203.018427,352.103708 C201.918427,352.303708 202.118427,353.203708 200.818427,353.303708 C201.118427,352.303708 199.118427,352.503708 198.218427,352.303708 C197.218427,350.003708 198.418427,348.903708 198.618427,347.203708 C202.118427,345.403708 203.018427,348.603708 202.818427,350.603708 C202.818427,350.903708 203.318427,350.903708 203.318427,350.803708 Z M422.218427,269.703708 C422.618427,270.703708 425.318427,269.703708 424.418427,268.503708 C424.018427,267.503708 421.318427,268.503708 422.218427,269.703708 Z M345.718427,296.103708 C344.818427,294.703708 343.718427,293.603708 342.218427,293.603708 C341.718427,295.603708 344.818427,297.003708 345.718427,296.103708 Z M314.418427,291.903708 C315.718427,291.703708 316.518427,292.603708 317.718427,292.603708 C320.318427,297.003708 324.518427,298.003708 327.218427,302.403708 C326.918427,302.403708 326.718427,302.503708 326.518427,302.603708 C324.418427,302.603708 323.518427,299.903708 321.418427,299.903708 C319.718427,295.903708 316.318427,295.603708 314.418427,291.903708 Z M464.818427,244.503708 C468.618427,243.603708 470.918427,245.703708 474.718427,244.703708 C475.318427,245.603708 476.418427,245.503708 476.718427,247.003708 C475.718427,247.403708 474.718427,247.703708 473.718427,248.103708 C473.518427,247.803708 473.418427,247.403708 473.318427,247.103708 C470.418427,246.703708 465.718427,247.203708 464.818427,244.503708 Z M213.018427,335.903708 C213.018427,337.303708 211.818427,338.203708 212.318427,339.203708 C212.018427,339.403708 211.618427,339.503708 211.318427,339.603708 C209.718427,334.003708 212.018427,330.303708 210.518427,324.803708 C209.918427,324.003708 210.918427,323.903708 211.118427,323.403708 C210.718427,321.403708 209.918427,319.303708 211.118427,318.103708 C213.418427,317.903708 212.418427,319.703708 212.318427,321.403708 C212.218427,322.603708 212.918427,324.403708 212.918427,326.103708 C212.918427,326.603708 212.418427,327.303708 212.418427,327.803708 C212.518427,329.903708 213.418427,331.903708 213.218427,333.203708 C213.218427,333.403708 212.318427,333.703708 212.318427,333.903708 C212.218427,334.603708 213.018427,335.303708 213.018427,335.903708 Z M298.818427,289.203708 C299.218427,289.103708 299.718427,288.903708 299.718427,288.603708 C302.018427,291.103708 305.118427,292.103708 306.618427,296.303708 L306.418427,296.303708 C306.518427,296.603708 306.618427,296.803708 306.618427,297.003708 C306.618427,297.103708 306.718427,297.203708 306.718427,297.303708 C307.118427,296.603708 307.518427,297.103708 308.318427,296.803708 C309.218427,298.903708 314.018427,301.103708 311.418427,303.203708 C310.018427,300.703708 307.918427,300.003708 306.418427,297.803708 C306.118427,297.603708 306.118427,297.303708 306.018427,297.003708 C306.018427,296.903708 306.018427,296.903708 306.018427,296.803708 C303.318427,295.003708 301.018427,292.203708 298.818427,289.203708 Z M341.518427,248.603708 C341.618427,248.603708 342.418427,248.503708 342.618427,248.503708 C342.718427,248.603708 342.318427,249.203708 342.518427,249.303708 C345.018427,250.203708 348.518427,249.703708 348.918427,252.303708 C349.618427,251.903708 350.218427,251.903708 350.718427,252.003708 C352.518427,255.003708 356.518427,253.303708 358.118427,256.903708 C357.918427,257.203708 357.718427,257.403708 357.218427,257.603708 C354.318427,256.503708 351.818427,254.603708 348.318427,254.803708 C348.118427,253.103708 346.618427,254.003708 346.318427,252.503708 C345.418427,252.503708 344.718427,252.003708 343.618427,252.303708 C343.418427,251.703708 343.018427,251.803708 342.818427,251.103708 C341.718427,251.503708 340.718427,250.603708 339.418427,250.103708 C338.318427,249.703708 336.618427,249.603708 337.018427,248.703708 C333.118427,249.803708 329.218427,248.303708 328.618427,244.203708 C330.618427,243.603708 332.918427,246.103708 335.818427,245.403708 C335.518427,246.803708 336.918427,246.103708 337.718427,246.603708 C339.018427,247.303708 339.518427,248.203708 341.518427,248.603708 Z M169.818427,317.603708 C169.818427,318.403708 169.618427,319.103708 170.018427,320.203708 C169.418427,320.403708 168.918427,320.603708 168.318427,320.803708 C168.018427,319.403708 168.018427,318.003708 169.818427,317.603708 Z M370.118427,221.303708 C370.718427,219.803708 374.618427,220.403708 376.018427,221.103708 C377.518427,220.503708 378.618427,220.703708 379.518427,221.303708 C380.118427,222.203708 379.118427,222.203708 379.318427,222.903708 C376.018427,223.103708 371.918427,222.303708 370.118427,221.303708 Z M122.118427,311.703708 C121.718427,312.403708 121.018427,313.703708 119.918427,313.203708 C119.618427,312.103708 119.918427,311.303708 121.018427,310.903708 C121.318427,310.303708 121.818427,309.903708 122.218427,309.403708 C122.718427,308.903708 123.118427,308.503708 123.418427,308.003708 C123.718427,306.303708 125.318427,305.103708 126.718427,303.903708 C126.718427,303.803708 126.718427,303.803708 126.818427,303.703708 C127.018427,303.303708 127.318427,303.103708 127.518427,302.803708 C127.718427,302.503708 128.018427,302.303708 128.118427,302.003708 C128.218427,301.903708 128.218427,301.903708 128.318427,301.803708 C128.818427,300.903708 129.218427,299.503708 130.118427,299.703708 C130.618427,298.503708 131.018427,297.203708 132.718427,296.503708 C131.918427,295.203708 134.118427,295.303708 133.318427,294.003708 C134.018427,294.403708 135.318427,293.603708 136.418427,293.303708 C136.318427,295.003708 134.218427,295.703708 134.618427,297.703708 C134.218427,297.603708 134.018427,297.103708 133.418427,297.403708 C133.518427,298.303708 132.318427,298.603708 133.118427,299.803708 C132.318427,300.603708 132.118427,300.003708 130.818427,300.603708 C131.918427,301.203708 130.318427,301.103708 130.918427,302.103708 C130.318427,302.303708 129.818427,302.503708 129.218427,302.703708 C129.018427,303.203708 128.718427,303.503708 128.418427,303.803708 C128.218427,303.903708 128.018427,304.103708 127.918427,304.303708 C127.718427,305.303708 127.518427,305.203708 128.218427,306.103708 C126.518427,305.603708 125.718427,307.703708 124.618427,308.503708 C124.218427,309.203708 123.718427,309.803708 123.218427,310.303708 C122.818427,310.703708 122.418427,311.203708 122.118427,311.703708 Z M110.218427,314.503708 C110.218427,315.303708 109.618427,315.903708 108.518427,316.303708 C108.318427,315.703708 108.718427,315.403708 108.418427,314.803708 C109.318427,314.203708 109.418427,314.903708 110.218427,314.503708 Z M485.218427,164.003708 C486.218427,163.803708 486.718427,162.803708 487.618427,162.303708 C490.018427,161.403708 495.318427,161.603708 495.018427,166.103708 C492.618427,166.903708 490.018427,168.403708 488.318427,166.303708 C487.818427,166.503708 487.318427,166.603708 487.418427,167.003708 C486.418427,165.303708 485.818427,166.403708 485.218427,164.003708 Z M412.118427,176.803708 C414.718427,173.303708 421.818427,174.003708 425.418427,173.903708 C426.218427,174.703708 426.418427,175.503708 426.418427,176.603708 C423.918427,177.903708 422.518427,177.103708 420.218427,177.303708 C416.918427,177.503708 414.118427,179.003708 412.118427,176.803708 Z M407.218427,180.803708 C405.218427,180.703708 402.218427,182.803708 401.318427,180.303708 C403.818427,179.403708 406.418427,178.103708 407.218427,180.803708 Z M429.318427,167.903708 C430.318427,165.603708 433.618427,166.603708 435.518427,166.103708 C436.018427,167.303708 436.218427,166.903708 436.218427,168.103708 C433.418427,168.103708 431.418427,169.603708 429.318427,167.903708 Z M368.718427,179.603708 C372.118427,183.703708 379.518427,179.303708 384.618427,180.403708 C385.718427,180.003708 386.818427,179.603708 387.918427,179.203708 C387.818427,179.503708 387.718427,179.803708 387.918427,180.303708 C391.418427,179.303708 394.018427,180.603708 397.518427,179.803708 C397.718427,180.403708 398.118427,180.303708 398.318427,181.003708 C393.118427,183.103708 387.618427,180.703708 381.318427,183.003708 C375.518427,182.503708 368.618427,184.503708 363.218427,183.103708 C363.818427,181.103708 363.218427,181.003708 361.918427,179.403708 C361.418427,177.403708 363.618427,176.703708 365.518427,175.803708 C366.318427,176.503708 366.918427,177.503708 368.218427,177.103708 C368.618427,178.403708 368.918427,179.203708 368.718427,179.603708 Z M476.618427,145.303708 C476.218427,145.303708 471.418427,147.303708 470.418427,144.803708 C475.718427,142.703708 481.818427,142.103708 486.118427,140.303708 C487.018427,140.703708 488.718427,141.403708 488.418427,142.503708 C485.118427,143.303708 479.518427,144.803708 476.618427,145.303708 Z M86.5184271,258.903708 C86.6184271,260.803708 83.1184271,260.903708 82.0184271,262.003708 C81.5184271,261.203708 82.3184271,261.003708 81.7184271,260.203708 C83.2184271,259.903708 85.3184271,258.503708 86.5184271,258.903708 Z M348.518427,162.303708 C347.918427,160.503708 346.018427,161.703708 344.318427,162.303708 C345.618427,163.703708 346.618427,163.303708 348.518427,162.303708 Z M26.2184271,276.903708 C25.5184271,277.403708 23.6184271,277.303708 23.6184271,278.203708 C24.8184271,278.403708 26.1184271,278.303708 26.2184271,276.903708 Z M342.918427,163.603708 C345.218427,163.203708 343.318427,162.303708 342.918427,163.603708 Z M355.218427,147.503708 C357.918427,147.603708 362.218427,144.403708 364.818427,145.403708 C364.518427,146.503708 362.818427,148.003708 361.918427,147.903708 C362.218427,148.403708 361.818427,148.603708 361.918427,149.003708 C357.618427,151.003708 353.118427,151.803708 348.818427,153.403708 C344.618427,154.903708 340.518427,157.603708 337.118427,157.003708 C336.818427,157.003708 336.518427,157.103708 336.218427,157.203708 L336.018427,157.303708 C335.818427,157.303708 335.618427,157.203708 335.518427,157.003708 C335.418427,156.803708 335.518427,156.603708 335.718427,156.503708 L335.918427,156.403708 C336.218427,156.303708 336.518427,156.203708 336.918427,156.203708 L336.818427,156.103708 C339.018427,154.603708 342.618427,154.303708 344.618427,152.503708 C344.618427,150.803708 343.018427,151.703708 343.518427,150.603708 C347.118427,148.703708 350.418427,147.803708 353.618427,146.203708 C354.718427,145.403708 354.518427,147.503708 355.218427,147.503708 Z M381.218427,133.503708 C381.718427,132.403708 382.818427,132.403708 383.618427,133.103708 C384.318427,134.203708 382.418427,134.103708 381.818427,134.503708 L381.818427,134.403708 C380.618427,135.103708 379.318427,135.503708 378.118427,136.003708 C377.218427,136.303708 376.318427,136.603708 375.418427,137.003708 C375.218427,137.103708 374.818427,137.003708 374.718427,136.703708 C374.618427,136.503708 374.718427,136.103708 375.018427,136.003708 C375.918427,135.603708 376.818427,135.203708 377.718427,134.903708 C378.918427,134.503708 380.118427,134.103708 381.218427,133.503708 Z M486.318427,92.7037082 C486.618427,94.0037082 489.418427,93.2037082 489.118427,92.1037082 C488.518427,91.7037082 486.818427,91.8037082 486.318427,92.7037082 Z M381.418427,126.703708 C387.518427,123.603708 395.718427,119.703708 402.218427,117.003708 C403.518427,116.503708 405.318427,114.603708 406.518427,116.203708 C406.718427,118.003708 404.518427,117.903708 403.518427,118.403708 C401.618427,119.403708 399.718427,120.103708 397.318427,121.003708 C392.218427,122.903708 387.618427,127.203708 381.718427,127.803708 L380.318427,128.303708 C379.918427,129.403708 377.818427,130.003708 376.918427,129.103708 C376.118427,127.603708 379.218427,127.003708 380.018427,127.203708 L381.418427,126.703708 Z M353.718427,136.203708 C355.318427,135.403708 357.718427,135.003708 359.918427,134.003708 C362.518427,132.903708 366.218427,129.403708 368.118427,131.803708 C367.518427,133.803708 365.018427,133.203708 363.218427,133.903708 C360.318427,135.003708 357.318427,137.703708 353.918427,137.303708 L353.918427,137.203708 C353.718427,137.303708 353.618427,137.403708 353.418427,137.503708 L353.218427,137.603708 C353.118427,137.703708 353.018427,137.703708 352.918427,137.703708 C349.618427,139.503708 345.518427,141.103708 341.818427,142.403708 C340.018427,143.103708 338.218427,143.703708 336.718427,143.703708 C336.618427,143.703708 336.618427,143.703708 336.618427,143.703708 C336.118427,143.703708 335.718427,143.803708 335.318427,144.003708 L335.018427,144.103708 C334.818427,144.203708 334.618427,144.103708 334.518427,143.903708 C334.418427,143.703708 334.518427,143.503708 334.718427,143.403708 L335.018427,143.303708 C335.418427,143.203708 335.818427,143.103708 336.318427,143.003708 L336.218427,142.903708 C341.718427,140.403708 347.918427,138.003708 352.818427,136.603708 L352.818427,136.703708 C353.118427,136.603708 353.318427,136.403708 353.518427,136.303708 C353.518427,136.203708 353.618427,136.203708 353.618427,136.203708 C353.618427,136.203708 353.718427,136.203708 353.718427,136.203708 Z M465.018427,93.2037082 C466.218427,92.7037082 467.718427,91.5037082 469.118427,90.9037082 C470.118427,90.5037082 472.218427,88.9037082 472.918427,91.0037082 C471.718427,93.6037082 468.318427,93.3037082 465.818427,94.3037082 C459.418427,97.0037082 453.718427,100.503708 446.018427,102.203708 C445.218427,102.403708 443.718427,103.403708 443.018427,102.203708 C449.318427,98.4037082 457.318427,96.5037082 465.018427,93.2037082 Z M422.318427,102.203708 C423.618427,102.803708 422.718427,104.803708 421.518427,104.003708 C421.318427,103.603708 421.218427,103.103708 421.018427,102.703708 C421.418427,102.503708 421.918427,102.403708 422.318427,102.203708 Z M348.418427,128.503708 C349.018427,128.303708 348.918427,127.803708 349.618427,127.703708 C349.918427,127.903708 350.118427,128.203708 350.518427,128.103708 C350.818427,129.203708 348.618427,129.703708 348.418427,128.503708 Z M355.518427,125.103708 C354.918427,125.303708 354.718427,125.703708 354.718427,126.103708 C355.218427,125.903708 355.918427,125.803708 355.518427,125.103708 Z M441.818427,88.4037082 C439.518427,89.7037082 435.618427,92.1037082 433.618427,89.8037082 C437.118427,87.6037082 441.418427,85.7037082 444.918427,83.5037082 C445.318427,84.2037082 446.118427,84.2037082 446.318427,85.3037082 C444.818427,85.8037082 443.518427,87.4037082 441.818427,88.4037082 Z M323.518427,121.203708 C324.918427,125.403708 329.018427,118.503708 330.818427,122.703708 C330.518427,122.803708 330.718427,123.203708 330.718427,123.503708 C326.018427,126.703708 321.318427,127.103708 315.418427,128.203708 C315.418427,128.903708 313.418427,128.703708 314.118427,129.803708 C313.318427,129.903708 312.918427,129.003708 312.018427,129.103708 C314.118427,126.103708 319.418427,126.203708 322.418427,123.503708 C321.818427,123.203708 321.218427,123.003708 320.618427,122.603708 C321.318427,121.803708 322.518427,121.203708 323.518427,121.203708 Z M433.518427,74.8037082 C433.918427,74.7037082 434.118427,74.5037082 434.118427,74.3037082 C435.418427,74.0037082 436.918427,75.4037082 436.518427,76.8037082 C434.918427,77.3037082 434.318427,75.9037082 433.518427,74.8037082 Z M313.718427,114.903708 C316.518427,112.803708 322.018427,111.203708 328.118427,108.903708 C330.418427,108.103708 332.818427,106.303708 333.318427,109.703708 C331.018427,110.003708 328.718427,112.103708 326.518427,112.903708 C325.018427,113.403708 322.718427,113.503708 320.618427,114.303708 C318.218427,115.203708 315.518427,117.403708 313.718427,114.903708 Z M345.418427,98.2037082 C344.418427,97.2037082 343.818427,95.2037082 344.318427,94.0037082 C344.818427,94.2037082 345.618427,93.9037082 346.418427,93.6037082 C347.018427,94.5037082 347.618427,95.5037082 348.618427,95.5037082 C348.218427,96.7037082 347.618427,97.8037082 345.418427,98.2037082 Z M104.118427,161.303708 C104.318427,162.103708 104.618427,162.503708 105.218427,162.403708 C105.118427,161.503708 105.418427,160.903708 104.118427,161.303708 Z M66.7184271,174.803708 C66.9184271,175.703708 67.7184271,175.403708 68.4184271,175.303708 C68.4184271,174.103708 67.6184271,174.403708 66.7184271,174.803708 Z M323.718427,83.0037082 C326.918427,81.9037082 328.418427,81.0037082 328.318427,78.0037082 C326.318427,79.4037082 323.218427,80.4037082 323.718427,83.0037082 Z M285.718427,89.5037082 C285.018427,88.6037082 285.918427,88.3037082 285.818427,87.6037082 C286.718427,87.3037082 287.418427,87.7037082 287.718427,88.8037082 C287.018427,89.0037082 286.418427,89.3037082 285.718427,89.5037082 Z M50.6184271,171.903708 C50.7184271,173.103708 51.5184271,172.803708 52.3184271,172.403708 C52.1184271,171.503708 51.3184271,171.803708 50.6184271,171.903708 Z M287.618427,76.0037082 C289.318427,79.9037082 286.118427,83.0037082 281.818427,81.9037082 C280.318427,80.3037082 281.418427,79.4037082 280.618427,77.4037082 C282.518427,75.0037082 285.218427,75.3037082 287.618427,76.0037082 Z M263.418427,85.1037082 C263.518427,84.0037082 263.018427,82.5037082 264.518427,82.1037082 C265.718427,82.6037082 264.118427,83.0037082 264.918427,84.2037082 C263.918427,84.2037082 264.318427,84.9037082 263.418427,85.1037082 Z M267.218427,55.9037082 C269.718427,54.1037082 268.618427,50.6037082 271.518427,49.1037082 C272.118427,50.9037082 271.818427,50.9037082 272.818427,51.7037082 C272.418427,54.9037082 270.018427,57.0037082 269.418427,60.1037082 C267.818427,61.7037082 266.618427,63.6037082 266.618427,66.0037082 C265.218427,66.0037082 266.318427,67.2037082 265.218427,67.3037082 L265.118427,67.3037082 C265.018427,67.6037082 264.918427,67.8037082 264.818427,68.1037082 C264.618427,68.6037082 264.418427,69.0037082 264.318427,69.5037082 L264.418427,69.5037082 C264.218427,70.5037082 264.218427,71.6037082 263.218427,72.2037082 C263.118427,73.2037082 262.618427,74.1037082 262.218427,74.9037082 C262.018427,75.4037082 261.818427,75.8037082 261.618427,76.2037082 C261.318427,77.8037082 261.618427,79.9037082 259.518427,80.7037082 C258.618427,78.5037082 259.618427,77.2037082 260.418427,75.8037082 C260.418427,75.7037082 260.418427,75.7037082 260.418427,75.6037082 C260.618427,75.1037082 260.918427,74.6037082 261.118427,74.2037082 C261.618427,73.4037082 262.018427,72.6037082 262.018427,71.8037082 C262.018427,71.7037082 262.018427,71.7037082 262.018427,71.7037082 C261.918427,70.6037082 262.518427,69.8037082 263.318427,69.1037082 L263.418427,69.1037082 C263.518427,68.6037082 263.718427,68.1037082 263.918427,67.6037082 C264.018427,67.3037082 264.118427,67.0037082 264.218427,66.7037082 C264.718427,62.9037082 267.318427,60.0037082 267.218427,55.9037082 Z M119.818427,122.103708 C119.618427,121.103708 118.118427,119.903708 117.918427,120.903708 C118.618427,121.203708 118.718427,122.603708 119.818427,122.103708 Z M214.118427,66.7037082 C214.518427,66.2037082 214.618427,65.5037082 214.018427,64.5037082 C213.018427,64.5037082 213.218427,66.6037082 214.118427,66.7037082 Z M86.4184271,110.003708 C87.0184271,111.203708 87.8184271,112.203708 89.2184271,111.603708 C88.6184271,110.403708 87.7184271,109.803708 86.4184271,110.003708 Z M84.1184271,108.903708 C84.7184271,108.903708 84.8184271,109.903708 85.7184271,109.103708 C85.8184271,108.103708 84.1184271,108.003708 84.1184271,108.903708 Z M49.5184271,115.403708 C51.7184271,111.803708 58.7184271,112.703708 58.4184271,118.203708 C55.0184271,121.303708 51.0184271,119.803708 49.5184271,115.403708 Z M217.118427,60.3037082 C216.618427,58.8037082 217.518427,57.9037082 218.218427,56.9037082 L218.618427,57.4037082 L219.218427,57.7037082 C219.418427,59.0037082 218.318427,59.7037082 217.118427,60.3037082 Z M221.718427,51.1037082 C222.618427,48.8037082 223.718427,46.5037082 226.218427,44.9037082 L226.218427,45.5037082 L226.818427,45.5037082 C227.518427,46.8037082 225.418427,46.9037082 226.318427,48.3037082 C223.918427,48.2037082 224.318427,50.3037082 222.918427,51.4037082 L222.318427,51.1037082 L221.718427,51.1037082 Z M236.218427,46.3037082 C236.118427,47.0037082 236.818427,48.1037082 235.718427,48.2037082 L235.618427,48.2037082 C235.618427,48.3037082 235.618427,48.3037082 235.618427,48.4037082 C235.518427,48.6037082 235.518427,48.8037082 235.518427,49.0037082 C235.418427,49.3037082 235.418427,49.7037082 235.218427,50.0037082 C235.118427,50.2037082 234.818427,50.3037082 234.618427,50.2037082 C234.418427,50.1037082 234.418427,49.8037082 234.518427,49.6037082 C234.618427,49.5037082 234.618427,49.3037082 234.618427,49.0037082 C234.718427,48.9037082 234.718427,48.7037082 234.718427,48.6037082 C234.218427,47.8037082 234.918427,47.6037082 234.518427,46.9037082 C235.718427,46.7037082 235.318427,45.9037082 236.218427,46.3037082 Z M126.218427,81.3037082 C126.418427,81.8037082 126.618427,82.2037082 126.718427,82.7037082 C125.818427,83.1037082 125.418427,82.6037082 125.218427,81.7037082 C125.518427,81.5037082 125.918427,81.4037082 126.218427,81.3037082 Z M77.5184271,98.9037082 C78.2184271,98.5037082 78.7184271,98.8037082 78.9184271,99.5037082 C78.6184271,99.7037082 78.2184271,99.8037082 77.9184271,99.9037082 C77.7184271,99.6037082 77.6184271,99.2037082 77.5184271,98.9037082 Z M137.618427,59.5037082 C137.118427,60.5037082 138.518427,62.3037082 139.318427,62.3037082 C139.518427,61.7037082 139.218427,58.4037082 137.618427,59.5037082 Z M220.218427,29.0037082 C220.818427,28.7037082 222.018427,28.7037082 221.318427,27.9037082 C220.518427,28.1037082 220.018427,28.4037082 220.218427,29.0037082 Z M171.818427,312.703708 C173.218427,315.403708 169.818427,316.503708 170.818427,317.303708 C169.318427,315.903708 170.718427,314.003708 171.418427,312.603708 C171.418427,312.503708 171.418427,312.403708 171.518427,312.303708 C172.518427,310.603708 173.118427,308.503708 173.518427,305.703708 C173.518427,305.603708 173.518427,305.503708 173.618427,305.403708 C173.718427,304.303708 174.318427,303.303708 175.318427,302.603708 C173.918427,300.703708 176.318427,301.003708 174.818427,300.103708 C176.418427,298.203708 176.618427,295.603708 176.318427,292.803708 C174.618427,292.503708 174.718427,291.903708 173.318427,290.803708 C169.218427,289.703708 166.518427,289.803708 160.618427,291.203708 C157.118427,288.803708 153.018427,287.703708 150.718427,282.703708 C149.118427,281.803708 148.618427,281.703708 147.618427,280.403708 C145.118427,280.203708 143.918427,281.603708 142.718427,282.403708 C142.718427,282.403708 142.718427,282.503708 142.718427,282.503708 C141.918427,283.803708 140.918427,284.903708 139.918427,285.903708 C138.918427,287.003708 138.018427,287.903708 137.418427,289.003708 C137.618427,289.303708 137.718427,289.503708 137.818427,289.703708 L137.818427,289.903708 C137.818427,290.303708 137.618427,290.703708 137.218427,290.903708 C136.918427,291.003708 136.518427,291.103708 136.218427,291.103708 C136.118427,291.203708 136.018427,291.303708 135.818427,291.303708 C135.518427,291.603708 135.118427,291.703708 134.818427,291.903708 C134.318427,292.203708 134.018427,292.303708 133.918427,292.603708 C134.218427,293.103708 135.318427,292.903708 134.618427,293.403708 C134.418427,294.503708 132.918427,293.103708 132.918427,294.003708 C132.318427,294.203708 131.418427,292.103708 132.618427,292.203708 L132.718427,292.203708 C133.018427,291.403708 133.618427,291.103708 134.218427,290.803708 C134.418427,290.603708 134.618427,290.503708 134.818427,290.403708 C134.818427,289.503708 135.218427,288.603708 136.018427,288.203708 C136.718427,286.903708 137.818427,285.803708 138.818427,284.803708 C139.818427,283.803708 140.818427,282.803708 141.418427,281.703708 C141.418427,281.603708 141.518427,281.603708 141.618427,281.503708 C141.918427,280.603708 141.118427,280.003708 142.418427,279.603708 C138.818427,280.303708 136.118427,283.903708 133.818427,286.103708 C133.218427,286.403708 134.018427,287.303708 133.618427,287.703708 C131.618427,288.003708 130.918427,290.003708 128.518427,291.403708 C128.618427,291.703708 129.018427,291.503708 129.318427,291.503708 C129.318427,292.603708 128.118427,291.703708 127.618427,292.103708 C127.718427,292.403708 128.118427,292.203708 128.418427,292.203708 C125.918427,293.903708 124.518427,297.603708 121.018427,299.003708 C120.318427,299.403708 121.618427,299.403708 121.018427,300.103708 C118.318427,300.403708 118.718427,304.003708 115.218427,302.903708 C116.318427,299.003708 121.618427,297.103708 123.018427,293.303708 C124.318427,293.203708 125.618427,291.903708 125.918427,290.003708 C124.418427,288.903708 122.818427,289.603708 121.318427,290.903708 C121.418427,291.203708 121.818427,291.003708 122.118427,291.003708 C118.318427,294.503708 113.318427,296.203708 111.318427,300.903708 C107.918427,301.403708 107.018427,304.903708 104.218427,306.503708 C104.818427,306.803708 104.618427,307.003708 104.618427,307.503708 C103.818427,306.303708 103.018427,308.103708 102.718427,309.703708 C101.518427,310.203708 101.018427,309.403708 100.218427,309.103708 C100.418427,307.903708 100.818427,306.803708 101.218427,305.703708 C102.518427,305.403708 103.718427,304.403708 104.518427,303.403708 C105.518427,302.203708 106.118427,302.303708 106.618427,300.803708 C109.818427,299.503708 109.618427,296.503708 110.618427,294.103708 C113.618427,292.903708 114.018427,290.503708 116.818427,289.203708 C117.318427,288.903708 116.818427,288.203708 116.718427,287.703708 C118.218427,287.303708 120.218427,285.403708 120.718427,283.203708 C122.718427,282.303708 123.318427,280.903708 123.918427,279.403708 L124.118427,279.403708 C123.918427,279.303708 123.818427,279.203708 123.718427,279.103708 C121.918427,280.703708 119.718427,282.403708 116.718427,284.603708 C116.718427,284.603708 116.618427,284.703708 116.618427,284.703708 C116.518427,284.703708 116.518427,284.703708 116.518427,284.703708 C116.418427,284.703708 116.318427,284.803708 116.118427,284.903708 C116.218427,286.003708 115.218427,286.503708 114.218427,287.003708 C113.218427,286.503708 113.618427,285.303708 113.718427,284.503708 C114.318427,284.303708 114.818427,284.103708 115.418427,283.903708 L115.418427,284.003708 C115.618427,283.903708 115.918427,283.803708 116.118427,283.703708 C116.818427,280.903708 121.218427,279.803708 122.018427,277.103708 C122.618427,276.903708 123.118427,276.703708 123.718427,276.503708 C123.518427,275.803708 123.218427,275.203708 123.018427,274.503708 C126.118427,271.303708 129.018427,269.803708 130.918427,266.003708 C129.918427,263.903708 130.818427,261.003708 129.618427,258.203708 C128.618427,256.003708 126.818427,254.203708 125.618427,252.503708 C123.818427,253.403708 122.818427,252.903708 121.118427,253.703708 C121.618427,252.303708 119.218427,253.303708 118.318427,253.203708 C116.218427,252.503708 114.918427,249.203708 116.118427,247.203708 C119.618427,246.703708 119.818427,244.703708 121.718427,242.903708 C121.218427,241.003708 120.518427,239.703708 119.318427,239.303708 L118.818427,239.503708 C118.718427,239.603708 118.518427,239.503708 118.518427,239.403708 C118.418427,239.303708 118.518427,239.103708 118.618427,239.103708 L119.118427,238.903708 C118.018427,238.203708 116.718427,239.803708 116.718427,240.503708 C113.018427,241.703708 110.118427,241.203708 109.218427,236.403708 C109.718427,233.503708 116.418427,233.503708 116.918427,230.603708 C116.318427,228.403708 115.318427,224.203708 112.718427,223.103708 C109.218427,223.703708 103.118427,226.203708 99.5184271,225.203708 C99.8184271,223.703708 104.218427,223.303708 105.818427,222.903708 C106.318427,221.203708 107.418427,219.303708 106.118427,217.503708 C104.018427,217.203708 101.318427,218.203708 100.018427,216.303708 C102.318427,214.803708 105.418427,216.503708 108.618427,215.103708 C110.318427,212.103708 104.718427,208.103708 104.418427,205.703708 C106.718427,205.603708 108.018427,203.603708 109.118427,202.103708 C109.018427,198.103708 106.318427,196.003708 103.518427,195.803708 C101.918427,193.303708 99.0184271,193.503708 96.9184271,192.103708 C94.9184271,192.903708 93.1184271,193.103708 92.2184271,191.503708 C91.7184271,188.803708 94.7184271,189.903708 96.1184271,189.703708 C95.8184271,188.603708 94.9184271,189.103708 94.5184271,188.403708 C92.1184271,188.503708 89.8184271,188.303708 87.5184271,188.203708 C85.1184271,188.103708 82.6184271,188.003708 80.1184271,188.003708 C79.2184271,188.803708 77.1184271,188.903708 76.7184271,187.203708 C77.8184271,186.903708 79.4184271,185.703708 79.9184271,186.703708 C82.5184271,186.603708 85.1184271,186.803708 87.6184271,186.903708 C90.0184271,187.003708 92.4184271,187.103708 94.8184271,187.103708 C94.9184271,187.103708 94.9184271,187.103708 95.0184271,187.103708 C96.4184271,187.103708 97.8184271,186.903708 99.6184271,186.003708 C98.9184271,185.603708 97.8184271,185.803708 96.7184271,186.303708 C96.3184271,184.803708 95.6184271,184.203708 94.9184271,183.503708 C92.2184271,183.903708 91.3184271,183.803708 89.1184271,183.003708 C87.9184271,182.903708 86.9184271,182.703708 85.8184271,182.503708 C84.9184271,182.403708 84.0184271,182.203708 83.1184271,182.103708 C82.9184271,182.103708 82.8184271,181.903708 82.8184271,181.703708 C82.8184271,181.603708 82.9184271,181.403708 83.0184271,181.403708 C83.1184271,181.403708 83.1184271,181.403708 83.2184271,181.403708 C84.1184271,181.503708 85.0184271,181.603708 85.9184271,181.803708 C87.0184271,182.003708 88.1184271,182.203708 89.2184271,182.303708 C90.9184271,180.203708 94.3184271,181.403708 96.8184271,181.803708 C96.9184271,181.803708 96.9184271,181.703708 97.0184271,181.703708 C97.2184271,181.603708 97.4184271,181.603708 97.6184271,181.703708 C97.7184271,181.703708 97.9184271,181.703708 98.1184271,181.703708 C98.5184271,181.603708 99.1184271,181.603708 99.6184271,182.003708 C100.518427,182.003708 101.218427,182.103708 102.018427,182.303708 C102.818427,182.403708 103.618427,182.603708 104.318427,182.503708 C106.718427,182.203708 108.818427,182.503708 111.218427,182.203708 C113.318427,180.403708 112.018427,178.103708 112.718427,176.003708 C111.618427,174.803708 110.518427,173.603708 108.618427,174.103708 C107.718427,172.903708 106.518427,172.303708 105.218427,171.903708 C104.718427,169.303708 106.318427,167.803708 108.118427,166.303708 C110.318427,166.903708 113.018427,167.303708 114.818427,166.103708 C117.218427,164.403708 115.118427,161.103708 116.418427,159.103708 C116.218427,155.803708 112.918427,155.803708 112.118427,153.503708 C110.618427,148.903708 116.518427,148.603708 120.918427,148.503708 C123.518427,144.703708 117.818427,143.103708 115.818427,141.703708 C115.618427,140.603708 115.718427,139.803708 115.018427,139.003708 C112.218427,137.303708 109.518427,135.503708 106.918427,133.803708 C104.818427,132.403708 102.718427,131.003708 100.618427,129.703708 C100.318427,129.603708 100.318427,129.203708 100.418427,129.003708 C100.518427,128.903708 100.618427,128.803708 100.718427,128.803708 C100.818427,128.703708 101.018427,128.703708 101.118427,128.803708 C103.218427,130.103708 105.318427,131.503708 107.418427,132.903708 C110.018427,134.703708 112.818427,136.403708 115.518427,138.103708 L115.518427,138.003708 C117.018427,138.303708 118.118427,139.303708 119.518427,139.603708 C120.518427,139.603708 119.918427,138.703708 120.618427,138.503708 C120.018427,137.603708 120.418427,139.403708 119.418427,139.303708 C119.818427,138.503708 118.818427,138.603708 118.718427,137.303708 C121.918427,136.603708 120.818427,133.803708 123.518427,132.903708 C123.018427,130.603708 121.918427,129.803708 120.018427,130.403708 C115.518427,124.003708 109.918427,120.103708 104.518427,115.603708 C106.218427,113.603708 107.818427,116.803708 109.518427,116.803708 C114.118427,121.703708 120.518427,125.503708 124.418427,129.903708 C125.818427,129.403708 125.718427,128.103708 126.518427,127.303708 C127.818427,126.603708 128.518427,127.203708 129.518427,127.303708 C130.418427,122.103708 123.618427,123.503708 122.618427,118.503708 C119.218427,116.203708 116.218427,113.003708 113.518427,109.003708 C113.418427,109.003708 113.418427,108.903708 113.418427,108.903708 C113.418427,108.803708 113.318427,108.803708 113.318427,108.703708 C112.718427,109.003708 112.518427,108.403708 112.318427,107.903708 L112.418427,107.903708 C112.318427,107.703708 112.218427,107.503708 112.018427,107.303708 C111.818427,107.403708 111.618427,107.403708 111.418427,107.503708 C110.718427,105.103708 107.718427,105.203708 108.118427,102.603708 C110.218427,102.703708 111.618427,104.203708 112.718427,106.103708 C112.718427,106.103708 112.818427,106.203708 112.818427,106.203708 C113.218427,106.503708 113.318427,106.803708 113.518427,107.103708 L113.518427,107.003708 C113.818427,106.803708 113.918427,107.303708 114.118427,107.503708 L113.918427,107.503708 C114.018427,107.703708 114.218427,107.903708 114.318427,108.103708 C114.318427,108.103708 114.418427,108.203708 114.418427,108.203708 C117.418427,110.403708 120.318427,112.803708 122.618427,116.503708 C122.518427,114.103708 125.518427,112.403708 128.018427,112.703708 C128.418427,113.503708 128.918427,114.003708 129.418427,114.503708 C129.318427,115.803708 129.118427,116.603708 129.418427,117.503708 C131.918427,118.403708 132.718427,122.903708 136.218427,121.803708 C135.418427,118.603708 133.918427,115.903708 135.418427,113.403708 C139.118427,111.203708 140.118427,114.803708 142.118427,116.303708 C144.918427,115.403708 146.018427,113.703708 147.418427,112.103708 C145.318427,107.803708 142.818427,104.203708 140.318427,100.703708 C139.218427,100.103708 138.518427,99.1037082 137.918427,98.2037082 C137.718427,98.0037082 137.818427,97.7037082 138.018427,97.5037082 C138.018427,97.4037082 138.118427,97.4037082 138.118427,97.4037082 C138.318427,97.4037082 138.518427,97.4037082 138.618427,97.6037082 L138.618427,97.7037082 C139.118427,98.5037082 139.718427,99.3037082 140.418427,99.8037082 C142.418427,97.5037082 137.718427,93.6037082 140.718427,91.9037082 C141.818427,93.0037082 142.718427,94.4037082 143.618427,95.8037082 C148.218427,96.2037082 149.518427,102.603708 150.918427,105.603708 C151.918427,106.603708 153.418427,106.403708 154.718427,106.903708 C154.918427,108.003708 155.518427,108.003708 155.818427,108.803708 C157.318427,107.503708 158.818427,106.103708 158.618427,104.003708 C159.718427,101.803708 163.318427,100.403708 165.818427,101.003708 C168.218427,99.7037082 167.218427,96.8037082 166.318427,94.0037082 C165.718427,93.0037082 164.218427,93.7037082 163.818427,92.3037082 C163.718427,92.2037082 163.718427,92.2037082 163.718427,92.2037082 C161.918427,89.0037082 160.518427,85.6037082 159.218427,82.3037082 C157.918427,79.0037082 156.518427,75.6037082 154.818427,72.4037082 C154.718427,72.2037082 154.718427,72.0037082 154.818427,71.8037082 C153.418427,69.0037082 152.218427,65.8037082 150.918427,62.6037082 L151.018427,62.6037082 C150.618427,61.0037082 149.918427,59.6037082 149.218427,58.1037082 C148.618427,56.9037082 148.018427,55.6037082 147.618427,54.3037082 C146.518427,52.4037082 145.618427,50.6037082 145.418427,48.3037082 C145.818427,47.4037082 146.318427,48.0037082 147.118427,47.7037082 C146.918427,47.2037082 146.818427,46.8037082 147.018427,46.6037082 C146.918427,46.3037082 146.818427,46.0037082 146.718427,45.7037082 C146.618427,45.5037082 146.518427,45.2037082 146.418427,45.0037082 C146.318427,44.9037082 146.418427,44.7037082 146.518427,44.7037082 C146.718427,44.7037082 146.818427,44.8037082 146.818427,44.9037082 C146.818427,45.1037082 146.918427,45.3037082 147.018427,45.5037082 C147.218427,45.9037082 147.318427,46.3037082 147.318427,46.8037082 L147.418427,46.8037082 C147.618427,47.4037082 148.118427,47.3037082 148.218427,48.0037082 C146.418427,49.0037082 148.418427,51.8037082 148.618427,53.7037082 C149.018427,55.0037082 149.618427,56.3037082 150.218427,57.5037082 C150.918427,59.0037082 151.718427,60.6037082 152.118427,62.3037082 C152.118427,62.3037082 152.118427,62.4037082 152.118427,62.4037082 C153.818427,65.0037082 156.118427,68.4037082 156.118427,71.6037082 C157.918427,74.8037082 159.318427,78.3037082 160.618427,81.6037082 C161.918427,84.8037082 163.318427,88.1037082 164.918427,91.2037082 C165.518427,91.3037082 166.418427,91.1037082 165.818427,90.3037082 L165.918427,90.3037082 C165.718427,89.9037082 165.518427,89.6037082 165.518427,89.2037082 L165.418427,89.3037082 C164.718427,88.6037082 163.118427,85.2037082 164.118427,84.5037082 C165.918427,84.1037082 166.318427,87.2037082 166.318427,88.8037082 C166.318427,88.9037082 166.318427,88.9037082 166.318427,89.0037082 C166.318427,89.2037082 166.418427,89.4037082 166.518427,89.7037082 C168.718427,88.9037082 170.418427,89.1037082 172.018427,89.6037082 C173.118427,94.5037082 176.618427,97.1037082 179.818427,95.5037082 C180.318427,93.3037082 177.418427,89.5037082 178.818427,87.6037082 C177.918427,86.2037082 176.418427,83.3037082 176.618427,81.6037082 L176.718427,81.6037082 C176.618427,81.4037082 176.618427,81.3037082 176.518427,81.1037082 C176.418427,80.8037082 176.518427,80.5037082 176.818427,80.4037082 C177.118427,80.3037082 177.418427,80.4037082 177.518427,80.7037082 C177.518427,80.7037082 177.618427,80.8037082 177.618427,80.9037082 C178.418427,81.3037082 178.818427,81.9037082 179.018427,80.8037082 C178.918427,80.6037082 178.918427,80.5037082 178.918427,80.3037082 L178.918427,80.0037082 C178.918427,79.7037082 179.118427,79.5037082 179.318427,79.4037082 C179.318427,79.4037082 179.418427,79.4037082 179.418427,79.4037082 C179.718427,79.4037082 180.018427,79.6037082 180.018427,79.9037082 L180.018427,80.2037082 C180.118427,80.3037082 180.118427,80.5037082 180.118427,80.7037082 C180.418427,88.4037082 186.518427,88.1037082 189.518427,93.2037082 C193.718427,92.7037082 197.618427,91.2037082 201.818427,89.5037082 C202.918427,88.1037082 202.418427,85.4037082 204.118427,84.5037082 C206.318427,83.3037082 209.318427,85.0037082 210.818427,87.4037082 C213.318427,86.2037082 210.818427,82.6037082 212.618427,81.1037082 C212.418427,78.7037082 212.718427,76.4037082 212.918427,74.1037082 C213.118427,72.1037082 213.318427,70.2037082 213.218427,68.2037082 C213.218427,67.9037082 213.418427,67.7037082 213.618427,67.6037082 C213.718427,67.6037082 213.718427,67.6037082 213.818427,67.6037082 C214.218427,67.6037082 214.518427,67.9037082 214.518427,68.2037082 C214.618427,70.3037082 214.418427,72.3037082 214.218427,74.3037082 C214.018427,76.6037082 213.818427,78.9037082 214.018427,81.2037082 C214.318427,81.9037082 214.518427,82.7037082 214.818427,83.4037082 C214.518427,83.6037082 214.118427,83.7037082 213.818427,83.8037082 C215.518427,85.5037082 212.618427,86.9037082 214.218427,88.2037082 C214.818427,87.1037082 215.718427,84.5037082 215.418427,82.1037082 C217.318427,80.0037082 219.118427,79.4037082 222.718427,78.3037082 C223.718427,77.8037082 222.918427,76.5037082 223.018427,75.9037082 C223.118427,75.8037082 223.718427,75.8037082 223.718427,75.7037082 C223.818427,74.7037082 223.018427,74.2037082 223.218427,73.2037082 C223.718427,71.1037082 225.818427,68.5037082 225.318427,65.3037082 C226.218427,64.7037082 226.518427,65.5037082 227.418427,64.9037082 C228.518427,68.5037082 225.418427,70.1037082 226.818427,73.8037082 C226.518427,74.0037082 226.118427,74.1037082 225.818427,74.2037082 C226.018427,74.9037082 226.318427,75.5037082 226.518427,76.2037082 C223.618427,77.7037082 226.118427,81.7037082 226.618427,84.8037082 C228.918427,85.8037082 233.118427,85.7037082 233.418427,89.1037082 C235.318427,89.9037082 236.618427,91.8037082 239.318427,90.8037082 C239.618427,89.9037082 239.118427,88.7037082 240.318427,88.2037082 C239.318427,84.5037082 243.218427,82.9037082 241.918427,79.0037082 C243.218427,77.1037082 244.418427,75.2037082 244.618427,72.8037082 C245.518427,72.2037082 245.918427,72.6037082 246.618427,72.4037082 C247.218427,71.3037082 247.518427,70.2037082 247.918427,68.9037082 C248.218427,67.7037082 248.618427,66.5037082 249.218427,65.3037082 C249.318427,65.2037082 249.418427,65.1037082 249.518427,65.1037082 C249.618427,65.0037082 249.818427,65.0037082 249.918427,65.1037082 C250.118427,65.2037082 250.218427,65.5037082 250.118427,65.7037082 C249.518427,66.7037082 249.118427,67.9037082 248.818427,69.1037082 C248.418427,70.5037082 248.018427,71.9037082 247.218427,73.2037082 L247.418427,73.3037082 C249.018427,72.8037082 248.918427,76.0037082 250.518427,75.6037082 C252.318427,74.4037082 252.318427,72.4037082 255.118427,71.7037082 C255.318427,73.0037082 255.418427,74.5037082 256.418427,75.4037082 C256.118427,76.0037082 255.018427,76.4037082 254.418427,76.1037082 C254.018427,76.8037082 254.418427,77.8037082 254.118427,78.5037082 C250.818427,81.4037082 251.018427,85.9037082 249.418427,89.6037082 C250.018427,90.7037082 250.818427,91.6037082 250.118427,92.7037082 C250.318427,93.0037082 250.818427,92.7037082 251.018427,93.1037082 C251.818427,97.1037082 255.118427,95.8037082 257.918427,95.5037082 C258.218427,94.6037082 258.218427,93.6037082 259.318427,93.1037082 C260.418427,93.7037082 260.418427,95.4037082 259.618427,96.0037082 C260.318427,97.6037082 263.518427,95.7037082 264.518427,95.0037082 C266.018427,95.8037082 267.418427,94.6037082 268.918427,94.6037082 C270.418427,94.6037082 271.618427,96.0037082 273.018427,95.4037082 C273.218427,95.8037082 273.318427,96.3037082 273.518427,96.7037082 C276.518427,96.9037082 277.718427,101.203708 274.518427,103.503708 C275.818427,103.603708 274.918427,104.303708 274.818427,105.303708 C276.718427,107.103708 279.518427,108.603708 282.018427,106.803708 C282.018427,106.603708 282.018427,106.403708 282.218427,106.303708 C283.818427,104.803708 285.118427,103.103708 286.418427,101.403708 C287.618427,99.8037082 288.918427,98.2037082 290.318427,96.8037082 C290.318427,96.1037082 290.518427,95.4037082 290.118427,94.5037082 C291.318427,94.2037082 291.018427,93.1037082 292.118427,92.7037082 C292.718427,89.9037082 295.218427,88.0037082 295.918427,85.3037082 C298.118427,84.7037082 298.118427,81.9037082 299.418427,80.3037082 C300.018427,79.5037082 301.118427,79.0037082 301.718427,78.3037082 C302.718427,77.1037082 303.218427,74.6037082 305.418427,75.1037082 C305.718427,76.1037082 305.518427,76.6037082 304.318427,77.4037082 C304.918427,78.3037082 305.818427,78.0037082 304.918427,79.1037082 C304.918427,79.2037082 304.918427,79.3037082 305.018427,79.3037082 C305.918427,78.6037082 306.618427,77.7037082 307.318427,76.7037082 C307.918427,75.8037082 308.618427,74.9037082 309.418427,74.2037082 C309.518427,73.8037082 309.418427,73.4037082 309.218427,73.0037082 C309.918427,72.8037082 310.718427,72.5037082 311.518427,72.2037082 C311.918427,73.5037082 311.518427,74.4037082 310.618427,75.0037082 C310.518427,75.1037082 310.518427,75.2037082 310.418427,75.3037082 C309.718427,75.9037082 309.118427,76.7037082 308.518427,77.6037082 C307.818427,78.6037082 307.018427,79.7037082 306.018427,80.5037082 C305.518427,82.4037082 303.418427,82.1037082 303.818427,84.4037082 C301.618427,85.1037082 301.118427,86.7037082 300.618427,88.2037082 C299.018427,89.2037082 297.718427,90.5037082 297.618427,92.3037082 C294.818427,92.7037082 294.418427,96.2037082 291.618427,97.5037082 C291.518427,97.6037082 291.518427,97.7037082 291.418427,97.8037082 C290.018427,99.2037082 288.818427,100.703708 287.518427,102.403708 C286.218427,104.103708 284.918427,105.803708 283.318427,107.303708 C283.518427,108.103708 282.818427,108.503708 283.418427,109.503708 C282.518427,109.103708 282.918427,108.903708 281.918427,109.603708 C283.618427,110.403708 287.318427,111.603708 290.218427,109.603708 C292.418427,110.603708 296.618427,114.903708 293.418427,117.503708 C294.018427,117.903708 294.718427,117.803708 295.018427,118.803708 C295.618427,118.403708 295.618427,117.703708 296.418427,117.503708 L296.518427,117.503708 C296.718427,117.303708 296.918427,117.003708 297.218427,116.803708 C297.318427,116.703708 297.518427,116.603708 297.618427,116.403708 L297.518427,116.403708 C298.418427,114.503708 300.318427,113.103708 302.718427,111.903708 C303.418427,113.303708 303.218427,112.903708 303.918427,114.103708 C304.518427,113.903708 304.418427,113.503708 305.118427,113.303708 C305.118427,111.803708 303.618427,113.703708 303.618427,112.303708 C305.218427,110.103708 307.418427,108.203708 309.718427,106.303708 C314.418427,106.703708 314.918427,101.503708 319.518427,100.103708 C320.918427,101.403708 318.918427,102.703708 317.318427,103.503708 C315.518427,106.103708 313.718427,108.603708 311.118427,110.303708 C310.518427,110.803708 310.718427,111.603708 310.218427,112.103708 C314.618427,111.403708 317.118427,107.903708 321.518427,106.903708 C321.618427,107.303708 321.818427,107.403708 322.118427,107.403708 C322.918427,108.703708 321.718427,109.103708 321.518427,109.903708 C320.418427,109.203708 319.818427,110.603708 318.318427,110.303708 C317.918427,110.503708 318.218427,111.003708 318.318427,111.403708 C315.018427,111.303708 310.518427,115.903708 307.718427,114.503708 C305.118427,115.203708 305.718427,116.103708 303.418427,117.203708 C302.818427,116.103708 302.518427,115.603708 300.918427,115.503708 C301.018427,116.503708 299.518427,116.803708 298.318427,117.203708 C298.218427,117.303708 298.018427,117.503708 297.918427,117.603708 C297.818427,117.703708 297.718427,117.803708 297.618427,117.903708 C297.818427,119.203708 296.618427,119.803708 296.018427,120.703708 C296.618427,121.903708 296.918427,120.503708 298.218427,120.703708 C298.318427,120.603708 298.418427,120.503708 298.618427,120.403708 C299.418427,119.503708 300.718427,118.003708 301.818427,118.203708 C302.118427,119.603708 300.518427,121.403708 299.118427,121.103708 C299.118427,121.103708 299.118427,121.203708 299.018427,121.203708 C298.918427,121.303708 298.718427,121.503708 298.518427,121.603708 L298.618427,121.703708 C299.318427,123.603708 298.618427,123.803708 300.018427,124.603708 C303.318427,122.103708 307.318427,118.003708 312.018427,118.003708 C313.018427,118.903708 311.918427,118.903708 311.418427,119.403708 C310.618427,120.403708 308.718427,122.903708 306.618427,123.803708 C305.818427,124.803708 304.718427,126.803708 303.118427,126.603708 C304.518427,127.203708 305.118427,128.303708 306.618427,128.003708 C306.618427,128.503708 306.318427,128.003708 305.918427,128.203708 C308.518427,130.103708 312.218427,133.903708 309.918427,137.303708 C310.918427,140.503708 312.718427,139.703708 315.318427,138.703708 C318.818427,137.403708 324.618427,136.703708 327.818427,135.703708 C328.518427,136.903708 329.218427,137.303708 329.118427,138.303708 C326.918427,139.703708 320.618427,141.103708 316.318427,142.503708 C318.018427,140.703708 313.918427,142.003708 313.518427,142.003708 C313.518427,142.003708 313.618427,141.203708 313.618427,141.203708 C312.018427,141.603708 311.718427,143.403708 309.818427,143.303708 C310.118427,144.703708 310.118427,145.803708 311.718427,146.703708 L311.818427,146.503708 C311.818427,146.403708 311.918427,146.303708 312.018427,146.303708 C312.118427,146.303708 312.218427,146.303708 312.318427,146.303708 C312.518427,146.403708 312.618427,146.603708 312.518427,146.803708 L312.218427,147.303708 L312.418427,147.303708 C314.318427,148.203708 316.418427,149.003708 318.918427,148.703708 C321.718427,152.603708 320.718427,156.303708 317.818427,159.303708 C318.018427,159.803708 319.418427,159.503708 318.018427,160.003708 C318.518427,161.603708 320.618427,163.003708 320.118427,164.903708 C320.718427,165.403708 322.218427,166.003708 321.718427,167.303708 C323.818427,167.103708 326.918427,169.003708 330.918427,166.603708 C331.518427,167.403708 332.618427,166.903708 333.018427,168.103708 C332.518427,170.503708 330.418427,172.303708 330.418427,175.503708 C328.418427,177.103708 325.818427,177.103708 324.818427,178.703708 C324.418427,179.303708 325.318427,180.303708 324.118427,180.803708 C325.618427,183.403708 328.918427,185.803708 328.918427,187.803708 C329.118427,188.603708 330.018427,187.803708 330.318427,188.403708 C330.718427,189.303708 331.018427,190.203708 331.318427,191.103708 C330.818427,191.903708 329.018427,193.503708 327.918427,193.103708 C327.518427,195.403708 327.618427,196.203708 327.618427,198.503708 C327.818427,198.103708 328.918427,198.603708 330.718427,197.803708 C333.018427,198.703708 337.718427,197.403708 339.818427,196.803708 C343.818427,198.203708 349.818427,195.603708 354.018427,196.603708 C355.418427,196.203708 357.218427,195.503708 358.618427,195.703708 C358.718427,195.703708 358.718427,196.403708 358.818427,196.403708 C361.618427,196.403708 364.618427,195.503708 367.418427,195.203708 C368.518427,195.103708 370.018427,194.703708 371.018427,194.703708 C371.218427,194.603708 371.518427,195.203708 371.618427,195.203708 C373.618427,195.003708 375.518427,194.003708 377.418427,194.603708 C377.418427,195.603708 378.118427,195.203708 378.318427,196.103708 C377.718427,196.303708 377.518427,196.603708 377.518427,197.103708 C372.618427,196.203708 366.518427,197.703708 360.718427,198.603708 C360.918427,199.003708 360.818427,199.203708 360.618427,199.403708 C362.218427,200.603708 365.318427,198.803708 366.918427,200.103708 C370.018427,198.803708 371.518427,200.903708 374.618427,199.603708 C376.518427,201.003708 379.418427,200.003708 381.518427,200.903708 C383.918427,200.003708 386.818427,200.203708 386.918427,202.303708 C385.218427,202.703708 383.718427,202.803708 382.618427,202.003708 C378.818427,202.403708 374.218427,202.503708 370.918427,202.103708 C370.818427,202.103708 370.818427,201.503708 370.718427,201.403708 C370.018427,201.603708 369.218427,201.903708 368.418427,202.203708 C368.018427,202.003708 367.918427,201.303708 367.418427,201.403708 C365.318427,201.903708 366.318427,203.603708 364.018427,203.403708 C365.318427,204.203708 367.318427,203.503708 368.118427,205.303708 C367.918427,205.703708 367.218427,205.803708 367.318427,206.303708 C367.118427,205.303708 365.618427,206.603708 363.518427,206.203708 C363.218427,206.103708 362.818427,205.403708 362.518427,205.403708 C362.318427,205.403708 359.818427,205.303708 359.518427,205.403708 C359.418427,205.403708 358.818427,207.003708 359.218427,205.503708 C355.818427,204.703708 351.818427,205.903708 349.418427,204.503708 C347.018427,205.603708 344.518427,203.503708 341.918427,204.603708 C340.318427,203.903708 338.618427,203.303708 336.618427,203.503708 C336.218427,203.803708 335.918427,204.203708 335.518427,204.603708 C336.418427,204.303708 336.918427,205.703708 337.918427,206.003708 C338.018427,206.003708 338.218427,205.303708 338.418427,205.403708 C339.418427,206.003708 341.618427,205.803708 343.818427,205.703708 C344.018427,206.903708 346.018427,207.303708 346.318427,206.303708 C347.318427,206.303708 346.718427,207.703708 347.018427,208.303708 C344.218427,208.903708 341.518427,209.103708 339.618427,207.603708 C339.018427,208.803708 337.818427,208.203708 336.718427,209.003708 C337.418427,210.303708 339.918427,210.103708 339.618427,211.703708 C341.418427,210.203708 343.418427,212.903708 345.618427,212.603708 C346.918427,213.203708 347.718427,214.703708 348.818427,214.103708 C349.218427,215.103708 348.818427,216.703708 349.218427,216.203708 C349.818427,217.903708 346.518427,218.103708 344.818427,218.503708 C344.318427,218.203708 344.518427,218.003708 344.518427,217.503708 C341.618427,217.703708 338.418427,216.403708 336.318427,216.703708 C335.618427,215.603708 334.518427,215.203708 333.218427,215.503708 C332.918427,215.003708 333.318427,214.803708 333.218427,214.403708 C329.518427,214.903708 328.318427,212.403708 324.518427,213.403708 C325.018427,214.103708 323.318427,214.903708 323.718427,216.303708 L323.518427,216.303708 L323.718427,216.403708 L323.718427,216.503708 C324.018427,217.303708 323.718427,218.003708 323.418427,218.703708 L323.518427,218.603708 C323.918427,219.703708 323.418427,220.203708 324.118427,221.403708 C324.918427,222.503708 326.918427,221.403708 327.618427,222.803708 C328.218427,222.603708 328.718427,222.403708 329.318427,222.203708 C331.718427,226.203708 330.218427,229.003708 330.018427,231.403708 C331.118427,232.703708 331.618427,231.903708 332.418427,233.903708 C335.218427,234.703708 337.918427,236.003708 340.318427,236.003708 C341.018427,237.503708 342.518427,237.603708 345.018427,238.503708 C346.518427,239.003708 349.418427,238.203708 350.318427,240.703708 C351.218427,239.703708 352.118427,241.403708 352.118427,240.403708 C354.418427,242.203708 357.518427,242.303708 359.818427,244.003708 C360.518427,243.703708 360.818427,244.003708 361.318427,243.903708 C361.618427,244.703708 362.118427,245.803708 361.318427,246.103708 C360.418427,246.503708 360.218427,245.703708 359.818427,245.103708 C356.818427,245.603708 355.418427,242.903708 351.718427,243.503708 C351.518427,243.203708 351.418427,242.803708 351.318427,242.503708 C348.218427,243.003708 346.718427,240.003708 343.518427,240.803708 C343.818427,239.303708 341.018427,240.603708 341.018427,239.103708 C337.818427,240.003708 336.318427,237.303708 333.118427,238.203708 C332.918427,237.903708 332.818427,237.503708 332.718427,237.203708 C330.518427,237.503708 329.118427,235.903708 327.418427,235.003708 C326.718427,235.803708 325.118427,236.103708 325.218427,237.303708 C326.118427,238.303708 327.718427,237.903708 328.118427,240.003708 C327.418427,239.703708 326.718427,240.503708 326.018427,240.403708 C326.318427,240.403708 325.918427,239.503708 324.918427,239.303708 C324.018427,239.103708 321.318427,240.003708 321.718427,238.903708 C320.818427,239.303708 320.718427,240.703708 319.518427,240.103708 C319.818427,240.803708 319.518427,241.103708 319.618427,241.603708 C319.118427,240.503708 319.218427,241.803708 317.618427,242.303708 L317.518427,242.203708 C317.318427,242.803708 316.818427,243.303708 316.418427,243.703708 C316.318427,243.703708 316.318427,243.803708 316.218427,243.803708 L316.318427,243.803708 C317.118427,244.803708 313.918427,245.403708 315.118427,245.703708 C314.518427,245.903708 314.418427,246.503708 313.318427,247.103708 C314.518427,247.503708 313.818427,248.503708 313.918427,249.903708 C314.518427,250.103708 315.118427,250.103708 315.218427,251.303708 C317.718427,251.703708 319.718427,253.303708 321.518427,255.103708 C323.818427,254.103708 324.218427,254.703708 326.518427,254.403708 C327.318427,255.703708 327.718427,257.403708 326.518427,257.403708 C328.318427,259.103708 328.518427,258.203708 328.618427,261.203708 C326.218427,260.703708 325.318427,260.203708 323.218427,259.803708 C322.818427,256.303708 318.918427,256.703708 317.118427,254.403708 C315.718427,255.703708 314.518427,254.903708 314.718427,257.203708 C316.118427,258.503708 317.618427,259.403708 319.418427,259.703708 C320.018427,260.603708 319.018427,260.603708 319.218427,261.303708 C320.718427,262.103708 323.118427,261.803708 322.518427,265.403708 C324.218427,266.303708 325.218427,268.703708 327.618427,268.103708 C328.318427,270.203708 331.518427,270.603708 332.018427,272.903708 C333.618427,273.203708 334.518427,275.303708 336.518427,275.003708 C337.618427,276.503708 338.518427,278.003708 337.618427,279.103708 C339.418427,280.203708 340.118427,282.103708 342.218427,283.503708 C342.518427,283.403708 342.318427,283.003708 342.318427,282.703708 C343.918427,282.903708 344.918427,286.803708 346.718427,286.403708 C346.918427,286.903708 347.818427,288.803708 349.518427,288.003708 C349.418427,289.903708 351.418427,291.103708 352.418427,290.703708 C353.818427,292.203708 355.118427,293.903708 357.318427,293.803708 C357.918427,295.103708 358.218427,296.303708 357.718427,297.103708 C356.718427,295.803708 355.518427,297.903708 356.018427,296.603708 C352.418427,294.303708 349.618427,290.403708 345.518427,289.403708 C344.918427,287.003708 341.418427,285.803708 339.718427,283.903708 C338.918427,283.503708 337.818427,283.703708 336.918427,283.403708 C338.018427,281.403708 334.318427,281.003708 334.018427,280.703708 C333.318427,280.203708 334.018427,279.503708 332.618427,280.103708 C332.018427,278.303708 329.518427,276.303708 328.018427,274.603708 C327.618427,273.903708 327.918427,273.403708 328.618427,273.203708 C326.518427,271.003708 324.718427,268.203708 320.918427,269.603708 C318.118427,267.103708 317.618427,270.403708 313.618427,270.303708 C313.318427,268.503708 310.818427,268.703708 311.118427,267.403708 C309.118427,267.703708 308.118427,267.303708 306.718427,267.803708 C306.018427,266.103708 304.718427,267.203708 304.518427,265.903708 C302.618427,265.603708 301.618427,267.203708 300.918427,266.403708 C300.318427,267.603708 300.418427,268.803708 301.318427,269.703708 L301.318427,269.903708 C301.418427,269.703708 301.518427,269.603708 301.718427,269.503708 C301.818427,269.503708 301.918427,269.503708 302.018427,269.603708 C302.018427,269.703708 302.018427,269.803708 301.918427,269.903708 C301.818427,269.903708 301.818427,269.903708 301.718427,270.003708 C302.418427,272.003708 305.118427,271.603708 305.318427,273.803708 C306.918427,273.503708 311.118427,273.803708 310.018427,275.503708 C312.218427,277.103708 315.618427,278.803708 316.518427,281.103708 C317.818427,280.603708 318.018427,282.403708 319.418427,281.903708 C320.518427,284.603708 323.618427,285.703708 325.518427,288.403708 C325.518427,288.503708 325.618427,288.503708 325.618427,288.503708 C325.818427,288.603708 326.018427,288.703708 326.118427,288.903708 C327.418427,288.003708 328.018427,290.603708 327.718427,291.303708 C326.718427,291.303708 325.818427,291.103708 325.318427,289.803708 C325.218427,289.703708 325.118427,289.603708 325.018427,289.503708 C321.518427,288.303708 319.518427,283.903708 316.018427,282.703708 C315.818427,282.403708 315.718427,282.003708 315.618427,281.703708 C313.718427,280.503708 311.518427,279.803708 310.018427,277.703708 C309.118427,278.303708 309.118427,278.303708 308.018427,278.403708 C307.418427,277.103708 306.018427,277.703708 305.618427,275.903708 C305.418427,276.203708 305.518427,277.003708 305.118427,276.503708 L305.018427,276.303708 C304.918427,276.503708 304.918427,276.703708 304.918427,276.803708 C304.918427,277.203708 304.818427,277.503708 304.618427,277.803708 L304.818427,277.803708 C305.318427,278.103708 304.518427,278.503708 305.218427,279.903708 C304.218427,280.303708 304.318427,281.703708 303.418427,281.303708 C303.818427,284.603708 307.618427,285.303708 309.218427,287.903708 C311.318427,288.903708 313.918427,289.003708 313.618427,291.603708 C312.518427,290.903708 312.518427,291.703708 311.018427,291.803708 C307.618427,289.503708 302.818427,284.303708 300.518427,283.503708 C299.818427,283.003708 298.718427,283.203708 297.818427,283.303708 C297.018427,281.103708 294.918427,282.103708 293.818427,281.703708 C292.718427,281.303708 292.518427,280.403708 291.718427,280.203708 C291.118427,280.203708 290.118427,281.203708 289.918427,280.503708 C288.918427,282.203708 287.918427,282.003708 286.518427,282.503708 C286.118427,282.703708 286.418427,283.203708 286.518427,283.603708 C283.218427,284.303708 281.518427,286.103708 278.918427,285.603708 C278.518427,285.803708 278.818427,286.303708 278.918427,286.703708 C277.818427,286.703708 277.818427,286.703708 276.918427,287.403708 C276.418427,286.803708 277.418427,286.703708 277.218427,286.203708 C276.218427,287.003708 275.418427,288.303708 275.518427,289.803708 C275.718427,292.003708 278.118427,294.603708 277.918427,296.503708 C277.918427,296.803708 277.418427,296.703708 277.418427,297.103708 C277.518427,299.303708 274.218427,300.903708 271.518427,300.703708 C270.218427,296.603708 266.918427,297.103708 264.818427,294.803708 C264.518427,294.903708 264.718427,295.303708 264.718427,295.603708 C262.018427,293.903708 259.318427,295.403708 255.818427,296.103708 C254.918427,296.203708 255.418427,297.103708 255.218427,297.503708 C254.118427,298.303708 254.018427,297.003708 253.018427,297.503708 C252.818427,298.803708 252.118427,299.703708 251.018427,300.503708 C253.118427,303.303708 249.618427,306.203708 250.818427,308.503708 C248.118427,309.603708 246.618427,309.303708 244.818427,309.503708 C244.618427,309.203708 244.518427,308.803708 244.418427,308.503708 C243.218427,308.903708 241.118427,306.303708 242.218427,304.403708 C242.618427,304.303708 242.718427,304.903708 242.918427,305.303708 C243.218427,303.103708 241.818427,303.003708 240.818427,301.503708 C239.718427,301.703708 239.318427,302.303708 238.618427,302.703708 C239.018427,301.703708 238.418427,302.303708 237.918427,301.803708 C236.318427,302.303708 236.318427,303.903708 234.018427,304.703708 C234.718427,305.703708 234.618427,307.703708 235.118427,307.703708 C235.018427,308.303708 234.518427,308.703708 233.718427,309.003708 C235.218427,310.703708 233.618427,311.703708 235.818427,313.903708 C235.918427,314.403708 235.118427,314.503708 234.618427,314.703708 C234.918427,314.903708 235.118427,315.603708 235.618427,315.503708 C235.018427,316.703708 233.118427,317.403708 234.618427,318.903708 C233.518427,320.003708 233.518427,320.203708 232.518427,321.503708 L232.318427,321.503708 C232.518427,321.603708 232.618427,321.803708 232.718427,321.903708 C232.818427,322.003708 232.818427,322.103708 232.718427,322.203708 C232.618427,322.303708 232.518427,322.303708 232.418427,322.203708 C232.318427,322.103708 232.318427,322.103708 232.218427,322.003708 C231.618427,322.303708 231.318427,322.103708 230.918427,322.103708 C231.318427,323.803708 231.618427,325.403708 231.418427,327.203708 L231.518427,327.203708 C232.418427,329.903708 232.218427,332.803708 233.918427,335.003708 C233.718427,335.603708 232.618427,335.903708 231.718427,336.203708 C230.618427,334.703708 231.018427,333.103708 230.918427,331.903708 C230.718427,330.303708 229.518427,327.703708 230.318427,326.903708 C230.418427,325.403708 230.118427,323.903708 229.718427,322.303708 L229.718427,322.103708 L229.618427,322.203708 C228.518427,319.603708 228.418427,318.603708 226.918427,316.803708 C226.918427,313.803708 227.018427,309.403708 224.418427,306.803708 C223.518427,307.003708 222.918427,306.703708 221.918427,307.303708 C221.418427,312.003708 223.418427,317.903708 222.518427,322.503708 C222.318427,323.403708 222.218427,324.103708 222.618427,324.803708 C222.818427,325.103708 222.718427,325.403708 222.418427,325.603708 C222.118427,325.803708 221.818427,325.703708 221.618427,325.403708 C221.018427,324.303708 221.118427,323.303708 221.318427,322.303708 C220.018427,316.503708 220.818427,311.703708 219.018427,305.703708 C217.318427,305.403708 216.318427,303.903708 215.218427,302.503708 C212.818427,303.803708 212.218427,301.903708 209.818427,302.203708 C208.918427,303.003708 209.118427,304.303708 208.218427,305.103708 C204.918427,305.303708 204.018427,307.203708 201.618427,306.703708 C201.018427,306.603708 199.218427,304.603708 198.718427,304.003708 C198.818427,304.003708 198.318427,303.303708 198.518427,303.303708 C197.018427,302.903708 194.218427,304.403708 193.318427,306.703708 C192.218427,306.803708 192.818427,306.403708 192.518427,305.503708 C190.518427,308.503708 191.718427,313.103708 185.918427,314.303708 C182.218427,313.103708 182.118427,307.703708 181.418427,305.003708 C181.118427,304.203708 180.018427,304.903708 179.418427,304.603708 C178.318427,302.703708 177.818427,302.403708 177.618427,299.603708 C176.518427,301.903708 175.718427,303.503708 173.918427,305.803708 C173.518427,308.603708 172.818427,310.803708 171.818427,312.703708 Z M244.418427,87.0037082 C243.018427,87.6037082 242.118427,88.5037082 242.218427,90.3037082 C245.718427,89.7037082 245.718427,86.1037082 243.818427,85.2037082 C243.918427,85.5037082 243.918427,85.7037082 243.618427,85.7037082 C243.418427,85.8037082 243.218427,85.9037082 243.418427,86.2037082 C243.818427,86.2037082 244.218427,86.4037082 244.418427,87.0037082 Z M179.118427,84.6037082 C177.518427,83.7037082 179.418427,82.5037082 179.118427,84.6037082 Z M96.8184271,182.803708 C95.9184271,183.503708 97.7184271,183.103708 97.8184271,183.503708 L97.8184271,183.603708 C97.9184271,183.403708 98.1184271,183.303708 98.2184271,183.203708 C98.3184271,183.203708 98.4184271,183.103708 98.5184271,183.003708 C98.4184271,183.003708 98.3184271,183.003708 98.1184271,183.003708 C97.7184271,183.003708 97.3184271,183.003708 96.8184271,182.803708 Z M98.5184271,183.903708 C100.218427,184.503708 103.018427,185.703708 104.918427,184.303708 C104.518427,184.203708 104.218427,184.203708 104.018427,183.903708 C103.118427,183.903708 102.418427,183.803708 101.618427,183.603708 C100.918427,183.403708 100.318427,183.303708 99.6184271,183.303708 C99.4184271,183.403708 99.3184271,183.403708 99.1184271,183.403708 C99.0184271,183.503708 98.8184271,183.703708 98.7184271,183.803708 C98.6184271,183.803708 98.5184271,183.903708 98.5184271,183.903708 Z M322.718427,216.903708 C322.018427,217.203708 322.218427,217.903708 322.318427,218.503708 L322.318427,218.603708 C322.618427,218.103708 322.818427,217.503708 322.718427,216.903708 Z M315.418427,242.103708 C315.318427,242.403708 313.918427,243.203708 315.018427,243.003708 C315.318427,242.703708 315.618427,242.403708 315.818427,242.103708 C315.718427,242.003708 315.518427,242.103708 315.418427,242.103708 Z M307.018427,256.503708 C307.118427,256.903708 307.318427,257.403708 307.518427,257.803708 C308.118427,257.503708 308.518427,257.703708 308.918427,257.703708 C308.918427,257.603708 309.018427,257.403708 309.018427,257.303708 L308.818427,257.403708 C307.818427,257.903708 309.318427,256.103708 308.118427,256.503708 C308.618427,258.203708 307.418427,256.603708 307.018427,256.503708 Z M309.318427,257.903708 C309.718427,258.103708 309.918427,258.703708 310.418427,258.703708 C310.118427,258.103708 309.818427,257.703708 309.318427,257.603708 C309.318427,257.703708 309.218427,257.903708 309.218427,258.003708 L309.318427,257.903708 Z M311.518427,265.003708 C313.418427,263.803708 313.018427,267.403708 314.818427,266.503708 C313.518427,265.603708 315.218427,265.903708 315.418427,265.103708 C315.718427,263.803708 314.118427,260.103708 312.618427,261.603708 C311.818427,260.503708 311.418427,259.803708 311.218427,259.403708 L311.118427,259.503708 C310.918427,260.803708 312.018427,261.003708 310.318427,260.503708 C312.118427,261.603708 310.718427,262.903708 311.518427,265.003708 Z M134.818427,278.103708 C133.618427,279.103708 137.518427,277.703708 135.818427,277.703708 L135.818427,277.603708 C135.518427,277.903708 135.118427,278.003708 134.818427,278.103708 Z M304.118427,276.803708 C302.918427,276.703708 304.918427,274.603708 303.118427,274.903708 C303.318427,275.303708 303.518427,275.803708 303.118427,276.003708 C303.018427,275.703708 302.818427,275.803708 302.618427,275.803708 C303.018427,276.603708 303.518427,277.103708 304.018427,277.603708 L304.018427,277.703708 C304.018427,277.503708 304.118427,277.303708 304.118427,277.103708 C304.118427,277.003708 304.218427,276.903708 304.118427,276.803708 Z M141.518427,275.703708 C142.118427,276.403708 143.018427,275.003708 142.918427,274.403708 C142.418427,274.603708 141.818427,274.803708 141.318427,275.003708 C141.418427,275.203708 141.418427,275.403708 141.418427,275.703708 L141.518427,275.703708 Z M140.518427,275.103708 C140.118427,274.803708 140.118427,275.603708 139.818427,276.003708 C139.718427,276.103708 139.618427,276.203708 139.518427,276.303708 C139.618427,276.303708 139.718427,276.203708 139.818427,276.003708 C140.118427,275.803708 140.318427,275.603708 140.518427,275.603708 C140.618427,275.503708 140.518427,275.303708 140.518427,275.103708 Z M135.418427,277.003708 C135.318427,277.103708 135.118427,277.103708 135.018427,277.203708 C135.518427,275.403708 136.518427,275.203708 135.418427,277.003708 Z M124.918427,276.803708 C124.218427,277.203708 123.618427,277.603708 123.618427,278.403708 L123.418427,278.403708 C123.518427,278.503708 123.618427,278.603708 123.718427,278.703708 C124.118427,278.003708 124.918427,277.603708 124.918427,276.803708 Z M136.218427,289.503708 C136.218427,289.503708 136.118427,289.403708 136.118427,289.203708 C135.918427,289.403708 135.718427,289.603708 135.718427,289.903708 C135.818427,289.903708 135.918427,289.903708 136.018427,289.803708 C136.118427,289.703708 136.218427,289.603708 136.218427,289.503708 Z M192.618427,307.503708 C192.618427,308.403708 190.918427,308.503708 191.518427,309.803708 C192.718427,309.503708 193.218427,307.603708 192.618427,307.503708 Z M345.018427,232.203708 C346.818427,231.103708 348.918427,232.503708 349.718427,231.603708 C351.118427,233.903708 355.718427,231.703708 357.818427,235.103708 C356.718427,236.103708 354.018427,236.503708 354.418427,235.203708 C352.718427,235.503708 351.818427,234.103708 349.818427,235.003708 C349.318427,234.703708 349.018427,233.903708 348.518427,233.603708 C347.618427,234.603708 346.818427,233.903708 345.618427,233.903708 C345.418427,233.303708 345.218427,232.803708 345.018427,232.203708 Z M352.918427,186.003708 C353.418427,185.003708 356.618427,184.603708 358.218427,184.903708 C363.318427,191.103708 352.918427,195.603708 352.518427,186.903708 C353.318427,187.003708 353.918427,185.803708 352.918427,186.003708 Z M304.818427,45.3037082 L305.318427,45.7037082 L305.918427,45.3037082 C306.418427,46.2037082 306.518427,47.0037082 306.018427,47.5037082 C304.518427,48.3037082 304.718427,46.1037082 304.818427,45.3037082 Z M89.8184271,112.203708 C90.3184271,113.003708 91.0184271,113.503708 91.9184271,113.703708 C91.3184271,112.903708 90.7184271,112.403708 89.8184271,112.203708 Z M232.818427,397.003708 C232.818427,397.303708 232.618427,397.603708 232.318427,397.703708 C231.918427,397.703708 231.618427,397.503708 231.618427,397.203708 C231.218427,394.703708 231.018427,392.703708 231.018427,390.503708 C231.018427,390.203708 231.218427,390.003708 231.418427,389.903708 C231.518427,389.903708 231.518427,389.903708 231.618427,389.903708 C231.918427,389.903708 232.218427,390.203708 232.218427,390.503708 C232.218427,392.603708 232.418427,394.603708 232.818427,397.003708 Z M200.618427,379.903708 C200.518427,380.203708 200.318427,380.403708 200.018427,380.303708 C199.718427,380.303708 199.518427,380.003708 199.618427,379.703708 C199.718427,379.603708 199.718427,379.403708 199.718427,379.303708 C199.718427,379.103708 199.718427,378.903708 199.818427,378.703708 C199.818427,378.503708 199.918427,378.403708 200.118427,378.303708 C200.218427,378.303708 200.318427,378.303708 200.418427,378.303708 C200.718427,378.303708 200.918427,378.603708 200.818427,378.903708 C200.718427,379.103708 200.718427,379.203708 200.718427,379.403708 C200.718427,379.603708 200.618427,379.703708 200.618427,379.903708 Z M347.218427,297.003708 C347.418427,297.503708 347.918427,297.703708 348.518427,297.903708 L348.618427,297.903708 L348.618427,297.703708 C349.518427,297.703708 350.118427,298.403708 350.418427,299.703708 C350.118427,299.803708 349.718427,299.903708 349.418427,300.003708 C349.018427,299.503708 348.318427,299.503708 348.118427,298.403708 C347.518427,298.303708 346.918427,298.003708 346.618427,297.303708 C346.518427,297.103708 346.618427,296.903708 346.818427,296.803708 C346.918427,296.703708 347.118427,296.803708 347.218427,297.003708 Z M74.3184271,311.303708 C73.7184271,311.903708 73.0184271,312.403708 72.1184271,312.803708 C72.0184271,313.003708 71.7184271,313.003708 71.5184271,312.803708 C71.4184271,312.603708 71.4184271,312.303708 71.6184271,312.103708 C72.2184271,311.603708 72.9184271,311.003708 73.6184271,310.503708 C75.3184271,309.203708 76.9184271,307.903708 78.3184271,306.403708 L78.3184271,306.303708 C78.3184271,306.103708 78.4184271,305.903708 78.6184271,305.803708 C78.7184271,305.803708 78.7184271,305.803708 78.7184271,305.803708 C78.9184271,305.803708 79.2184271,306.003708 79.2184271,306.203708 L79.3184271,306.703708 L79.2184271,306.903708 C77.7184271,308.603708 76.0184271,310.003708 74.3184271,311.303708 Z M118.118427,273.103708 C116.018427,274.803708 114.018427,276.503708 111.818427,278.103708 C111.518427,278.303708 111.118427,278.303708 110.918427,278.003708 C110.718427,277.703708 110.718427,277.303708 111.018427,277.103708 C113.118427,275.403708 115.218427,273.803708 117.218427,272.103708 C119.718427,270.103708 122.218427,268.003708 124.818427,266.003708 C124.918427,266.003708 124.918427,265.903708 125.018427,265.903708 C125.218427,265.803708 125.518427,265.903708 125.718427,266.103708 C125.918427,266.403708 125.918427,266.803708 125.618427,267.003708 C123.118427,269.003708 120.618427,271.103708 118.118427,273.103708 Z M89.0184271,257.603708 C88.9184271,257.303708 89.1184271,257.003708 89.4184271,256.903708 C90.4184271,256.603708 91.2184271,256.003708 92.1184271,255.503708 C93.0184271,255.003708 93.9184271,254.503708 94.9184271,254.103708 C94.9184271,254.003708 95.0184271,254.003708 95.0184271,254.003708 C95.3184271,253.903708 95.6184271,254.003708 95.7184271,254.303708 C95.8184271,254.603708 95.7184271,254.803708 95.4184271,255.003708 C94.4184271,255.303708 93.6184271,255.903708 92.7184271,256.403708 C91.7184271,256.903708 90.8184271,257.503708 89.7184271,257.903708 C89.4184271,258.003708 89.1184271,257.903708 89.0184271,257.603708 Z M10.1184271,258.403708 C9.91842706,258.403708 9.81842706,258.503708 9.71842706,258.503708 C9.31842706,258.703708 8.91842706,258.903708 8.31842706,258.803708 C7.91842706,258.803708 7.71842706,258.403708 7.81842706,258.103708 C7.91842706,257.903708 8.01842706,257.803708 8.21842706,257.703708 C8.31842706,257.703708 8.41842706,257.703708 8.51842706,257.703708 C8.71842706,257.703708 8.81842706,257.603708 9.11842706,257.503708 C9.41842706,257.403708 9.71842706,257.203708 10.1184271,257.203708 C10.4184271,257.203708 10.7184271,257.503708 10.7184271,257.803708 C10.7184271,258.103708 10.4184271,258.403708 10.1184271,258.403708 Z M5.01842706,260.003708 C3.71842706,260.003708 2.51842706,260.503708 1.41842706,260.903708 C1.11842706,261.003708 0.818427058,260.903708 0.718427058,260.603708 C0.618427058,260.303708 0.718427058,260.003708 1.01842706,259.903708 C1.21842706,259.803708 1.51842706,259.703708 1.81842706,259.603708 C2.71842706,259.303708 3.81842706,259.003708 4.91842706,258.903708 C5.21842706,258.903708 5.51842706,259.103708 5.51842706,259.403708 C5.51842706,259.703708 5.31842706,260.003708 5.01842706,260.003708 Z M361.318427,122.103708 C361.618427,122.003708 361.818427,121.903708 361.918427,121.703708 C362.618427,121.403708 363.218427,121.203708 363.618427,120.803708 C363.718427,120.803708 363.718427,120.703708 363.818427,120.703708 C364.018427,120.603708 364.218427,120.603708 364.318427,120.803708 C364.518427,121.003708 364.518427,121.303708 364.318427,121.503708 C363.818427,122.003708 363.118427,122.303708 362.418427,122.603708 C362.218427,122.703708 361.918427,122.803708 361.718427,122.903708 C361.518427,123.003708 361.218427,123.003708 361.118427,122.703708 C361.018427,122.503708 361.118427,122.203708 361.318427,122.103708 Z M357.918427,124.203708 C357.918427,124.003708 358.018427,123.803708 358.118427,123.703708 L358.818427,123.503708 C359.018427,123.403708 359.218427,123.503708 359.318427,123.703708 C359.418427,123.903708 359.318427,124.103708 359.118427,124.203708 L358.418427,124.403708 C358.218427,124.503708 358.018427,124.403708 357.918427,124.203708 Z M89.6184271,219.203708 C89.3184271,219.203708 89.0184271,219.003708 89.1184271,218.803708 C89.0184271,218.503708 89.2184271,218.303708 89.4184271,218.203708 C89.4184271,218.203708 89.5184271,218.203708 89.5184271,218.203708 C91.7184271,217.903708 93.8184271,217.403708 96.1184271,216.803708 L97.4184271,216.503708 C97.6184271,216.403708 97.9184271,216.603708 98.0184271,216.903708 C98.1184271,217.103708 97.9184271,217.403708 97.6184271,217.503708 L96.3184271,217.803708 C94.2184271,218.303708 91.9184271,218.803708 89.6184271,219.203708 Z M84.0184271,220.203708 C83.4184271,220.203708 82.9184271,220.303708 82.5184271,220.703708 C82.3184271,220.903708 82.0184271,220.903708 81.8184271,220.703708 C81.6184271,220.503708 81.6184271,220.203708 81.8184271,220.003708 C82.0184271,219.803708 82.3184271,219.603708 82.6184271,219.503708 C83.0184271,219.403708 83.4184271,219.303708 83.8184271,219.303708 C84.1184271,219.203708 84.4184271,219.203708 84.7184271,219.103708 C85.0184271,219.003708 85.2184271,219.103708 85.3184271,219.403708 C85.4184271,219.703708 85.2184271,219.903708 85.0184271,220.003708 C84.7184271,220.103708 84.3184271,220.203708 84.0184271,220.203708 Z M310.318427,94.0037082 C310.318427,93.9037082 310.418427,93.9037082 310.418427,93.9037082 C310.618427,93.8037082 310.918427,93.9037082 311.118427,94.1037082 C311.318427,94.3037082 311.318427,94.8037082 311.018427,95.0037082 C310.418427,95.5037082 309.918427,95.9037082 309.318427,96.4037082 C308.418427,97.1037082 307.518427,97.9037082 306.618427,98.7037082 C306.518427,100.003708 304.818427,100.603708 303.918427,101.503708 C303.218427,103.403708 301.618427,104.903708 298.618427,105.703708 C297.818427,103.203708 299.618427,102.103708 301.918427,101.103708 C303.418427,100.103708 303.718427,98.5037082 305.718427,97.8037082 C306.618427,96.9037082 307.618427,96.1037082 308.618427,95.3037082 C309.218427,94.9037082 309.818427,94.5037082 310.318427,94.0037082 Z M111.518427,158.203708 C111.718427,158.403708 111.718427,158.703708 111.518427,158.903708 C111.418427,159.103708 111.118427,159.203708 110.918427,159.003708 C110.618427,158.703708 110.018427,158.503708 109.518427,158.403708 C109.218427,158.303708 108.918427,158.203708 108.618427,158.103708 L108.618427,158.203708 C107.118427,158.403708 105.818427,158.203708 105.318427,156.403708 C106.918427,155.803708 107.918427,156.603708 109.018427,157.303708 C109.218427,157.403708 109.418427,157.403708 109.718427,157.503708 C110.318427,157.603708 111.018427,157.803708 111.518427,158.203708 Z M349.818427,58.8037082 C349.818427,58.8037082 349.818427,58.8037082 349.818427,58.9037082 C350.118427,58.8037082 350.418427,58.9037082 350.618427,59.2037082 C350.818427,59.5037082 350.718427,59.9037082 350.418427,60.1037082 L350.018427,60.3037082 C349.518427,60.5037082 349.118427,60.8037082 348.718427,61.1037082 C346.418427,64.1037082 345.718427,66.4037082 340.718427,68.3037082 C340.318427,67.6037082 340.618427,67.3037082 340.518427,66.8037082 C340.818427,65.4037082 342.318427,64.8037082 343.218427,63.9037082 C344.418427,62.7037082 345.518427,61.1037082 347.918427,60.0037082 C348.418427,59.6037082 348.918427,59.3037082 349.418427,59.0037082 L349.818427,58.8037082 Z M65.6184271,168.803708 C65.5184271,169.103708 65.3184271,169.303708 65.0184271,169.203708 C61.1184271,168.403708 57.3184271,167.503708 53.6184271,166.603708 C50.9184271,166.003708 48.1184271,165.303708 45.3184271,164.703708 C44.9184271,164.903708 44.4184271,165.003708 44.0184271,165.203708 C43.8184271,164.503708 43.5184271,163.903708 43.3184271,163.203708 C43.9184271,163.403708 44.8184271,163.103708 45.3184271,163.603708 L45.2184271,163.703708 C48.1184271,164.303708 51.0184271,165.003708 53.8184271,165.703708 C57.5184271,166.503708 61.3184271,167.503708 65.2184271,168.203708 C65.5184271,168.303708 65.6184271,168.503708 65.6184271,168.803708 Z M262.318427,87.0037082 C262.518427,86.9037082 262.818427,87.0037082 262.918427,87.2037082 C263.218427,87.4037082 263.118427,87.8037082 262.918427,88.0037082 C262.318427,88.6037082 262.018427,89.4037082 261.618427,90.2037082 C261.418427,90.7037082 261.218427,91.1037082 260.918427,91.6037082 C260.718427,91.9037082 260.418427,92.0037082 260.118427,91.8037082 C259.818427,91.6037082 259.718427,91.3037082 259.918427,91.0037082 C260.118427,90.6037082 260.318427,90.2037082 260.518427,89.7037082 C260.918427,88.7037082 261.318427,87.8037082 262.118427,87.1037082 C262.218427,87.1037082 262.218427,87.0037082 262.318427,87.0037082 Z M106.318427,129.303708 C106.118427,129.203708 106.118427,128.903708 106.318427,128.503708 C106.318427,128.403708 106.418427,128.303708 106.518427,128.303708 C106.618427,128.303708 106.818427,128.303708 106.918427,128.403708 C107.418427,128.703708 107.718427,129.003708 108.118427,129.403708 L108.118427,129.303708 C108.618427,129.403708 108.918427,129.803708 109.218427,130.403708 C109.618427,130.603708 110.118427,130.903708 110.518427,131.103708 C112.518427,132.203708 114.518427,133.303708 116.118427,135.103708 C116.318427,135.303708 116.318427,135.603708 116.118427,135.803708 C115.918427,136.003708 115.618427,136.003708 115.418427,135.803708 C113.918427,134.103708 111.918427,133.003708 110.018427,132.003708 C109.618427,131.703708 109.218427,131.503708 108.818427,131.303708 C108.218427,131.503708 107.718427,131.703708 107.118427,131.903708 C107.018427,131.203708 107.918427,131.003708 107.218427,130.003708 C106.918427,129.703708 106.618427,129.503708 106.318427,129.303708 Z M256.418427,68.6037082 C256.318427,68.9037082 256.018427,69.1037082 255.718427,69.0037082 C255.318427,68.9037082 255.118427,68.6037082 255.218427,68.3037082 C255.318427,68.1037082 255.318427,67.8037082 255.318427,67.6037082 C255.318427,67.3037082 255.518427,67.1037082 255.718427,67.0037082 C255.818427,67.0037082 255.818427,67.0037082 255.918427,67.0037082 C256.218427,67.0037082 256.518427,67.3037082 256.518427,67.6037082 C256.518427,67.9037082 256.518427,68.2037082 256.418427,68.6037082 Z M108.718427,112.303708 C107.718427,111.403708 106.618427,110.503708 105.618427,109.503708 C105.318427,109.603708 105.018427,109.703708 104.718427,109.803708 C104.218427,106.903708 99.8184271,107.303708 98.9184271,103.203708 C101.818427,100.803708 102.718427,107.203708 105.518427,106.903708 C105.718427,107.903708 106.218427,107.803708 106.518427,108.403708 C107.418427,109.403708 108.518427,110.303708 109.618427,111.203708 C111.118427,112.403708 112.518427,113.703708 113.718427,115.303708 C113.918427,115.603708 113.818427,116.103708 113.518427,116.303708 C113.218427,116.503708 112.718427,116.403708 112.518427,116.103708 C111.518427,114.703708 110.118427,113.503708 108.718427,112.303708 Z M156.218427,93.5037082 C156.018427,93.2037082 156.118427,93.0037082 156.418427,92.9037082 C156.418427,92.9037082 156.518427,92.9037082 156.518427,92.9037082 C156.718427,92.8037082 156.918427,92.9037082 157.018427,93.1037082 C157.318427,93.7037082 157.518427,94.2037082 157.818427,94.8037082 C158.318427,96.0037082 158.818427,97.0037082 159.618427,97.8037082 C159.818427,97.9037082 159.818427,98.2037082 159.618427,98.4037082 C159.518427,98.6037082 159.218427,98.6037082 159.018427,98.4037082 C158.118427,97.4037082 157.518427,96.3037082 157.018427,95.1037082 C156.718427,94.5037082 156.518427,94.0037082 156.218427,93.5037082 Z M153.718427,88.4037082 C152.518427,86.0037082 151.218427,83.5037082 149.918427,80.5037082 C147.518427,79.8037082 146.818427,76.8037082 145.118427,74.0037082 C144.418427,72.9037082 143.518427,72.2037082 143.018427,70.2037082 L143.118427,70.2037082 C142.718427,69.4037082 142.218427,68.6037082 141.718427,67.7037082 C141.518427,67.4037082 141.318427,67.0037082 141.118427,66.7037082 C140.918427,66.5037082 141.018427,66.1037082 141.318427,66.0037082 C141.318427,66.0037082 141.418427,66.0037082 141.418427,66.0037082 C141.718427,66.0037082 142.018427,66.1037082 142.118427,66.3037082 C142.318427,66.6037082 142.518427,67.0037082 142.718427,67.3037082 C143.118427,68.1037082 143.618427,68.9037082 144.018427,69.8037082 C144.618427,70.1037082 145.118427,70.8037082 145.418427,71.8037082 C145.618427,72.5037082 146.718427,71.5037082 147.218427,71.5037082 C148.118427,75.1037082 150.118427,76.4037082 151.018427,79.9037082 L150.918427,79.9037082 C152.118427,82.7037082 153.318427,85.3037082 154.618427,87.7037082 C155.518427,88.1037082 155.518427,90.0037082 155.618427,90.7037082 C154.218427,91.5037082 154.118427,89.5037082 153.718427,88.4037082 Z M136.218427,94.4037082 C136.318427,94.6037082 136.318427,94.9037082 136.118427,95.1037082 C135.918427,95.3037082 135.618427,95.2037082 135.418427,95.0037082 C134.618427,93.9037082 133.718427,92.8037082 132.818427,91.7037082 C131.818427,90.4037082 130.718427,89.0037082 129.718427,87.6037082 C129.518427,87.3037082 129.618427,87.0037082 129.818427,86.9037082 C129.818427,86.8037082 129.918427,86.8037082 129.918427,86.8037082 C130.118427,86.7037082 130.418427,86.8037082 130.518427,87.0037082 C131.518427,88.4037082 132.618427,89.7037082 133.618427,91.0037082 C134.518427,92.1037082 135.418427,93.2037082 136.218427,94.4037082 Z M213.918427,58.4037082 C214.018427,58.2037082 214.118427,58.1037082 214.118427,58.0037082 C214.218427,58.0037082 214.218427,58.0037082 214.318427,58.0037082 C214.618427,58.0037082 214.718427,58.3037082 214.718427,58.5037082 C214.618427,59.2037082 214.618427,59.8037082 214.618427,60.5037082 L214.618427,60.9037082 C214.618427,61.1037082 214.418427,61.3037082 214.218427,61.3037082 C214.018427,61.3037082 213.818427,61.1037082 213.818427,60.9037082 L213.818427,60.5037082 C213.818427,59.8037082 213.818427,59.1037082 213.918427,58.4037082 Z M168.218427,36.0037082 C168.518427,35.9037082 168.818427,36.1037082 168.918427,36.2037082 C169.018427,36.5037082 168.918427,36.8037082 168.618427,36.9037082 C168.518427,36.9037082 168.518427,37.0037082 168.418427,37.0037082 C168.718427,37.9037082 166.418427,38.8037082 166.118427,37.8037082 C165.418427,36.7037082 166.718427,36.5037082 167.718427,36.1037082 L167.718427,36.2037082 C167.918427,36.2037082 168.018427,36.1037082 168.218427,36.0037082 Z M11.4184271,91.1037082 C11.5184271,91.4037082 11.4184271,91.7037082 11.1184271,91.9037082 C10.8184271,92.1037082 10.5184271,92.0037082 10.3184271,91.7037082 C9.91842706,91.0037082 9.41842706,90.3037082 8.91842706,89.6037082 C8.61842706,89.1037082 8.21842706,88.6037082 7.91842706,88.1037082 C7.71842706,87.8037082 7.81842706,87.5037082 8.11842706,87.3037082 C8.11842706,87.2037082 8.21842706,87.2037082 8.21842706,87.2037082 C8.51842706,87.1037082 8.71842706,87.2037082 8.91842706,87.4037082 C9.21842706,87.9037082 9.61842706,88.3037082 9.91842706,88.8037082 C10.4184271,89.5037082 11.0184271,90.3037082 11.4184271,91.1037082 Z M145.518427,41.4037082 C145.518427,41.7037082 145.418427,42.1037082 145.318427,42.1037082 C145.018427,42.2037082 144.718427,42.1037082 144.618427,41.8037082 L144.518427,41.6037082 C144.418427,41.3037082 144.318427,40.9037082 144.218427,40.6037082 L144.118427,40.6037082 C143.718427,39.4037082 142.818427,37.9037082 143.218427,37.1037082 C144.518427,36.3037082 145.318427,39.4037082 145.218427,40.4037082 C145.218427,40.7037082 145.318427,40.9037082 145.418427,41.2037082 L145.518427,41.4037082 Z M62.4184271,174.303708 C62.4184271,174.503708 62.2184271,174.703708 61.9184271,174.503708 L61.6184271,174.503708 C59.2184271,174.203708 57.0184271,173.903708 54.7184271,173.003708 C54.5184271,172.903708 54.4184271,172.703708 54.5184271,172.503708 C54.5184271,172.403708 54.6184271,172.303708 54.7184271,172.303708 C54.8184271,172.303708 54.9184271,172.303708 55.0184271,172.303708 C57.3184271,173.103708 59.5184271,173.503708 61.8184271,173.803708 L62.1184271,173.803708 C62.3184271,173.903708 62.4184271,174.103708 62.4184271,174.303708 Z M152.794678,222.439453 C161.547119,222.439453 167.296631,215.920898 167.296631,204.019043 L167.296631,200.833008 C167.296631,188.85791 161.510498,182.449219 152.86792,182.449219 C147.484619,182.449219 143.566162,184.976074 141.771729,188.85791 L141.222412,188.85791 L141.222412,182.888672 L129.540283,182.888672 L129.540283,235.000488 L141.332275,235.000488 L141.332275,216.104004 L141.844971,216.104004 C143.602783,219.912598 147.484619,222.439453 152.794678,222.439453 Z M148.400146,213.357422 C144.1521,213.357422 141.295654,209.841797 141.295654,203.616211 L141.295654,201.199219 C141.295654,195.010254 144.115479,191.567871 148.326904,191.567871 C152.501709,191.567871 155.175049,194.900391 155.175049,201.199219 L155.175049,203.616211 C155.175049,210.061523 152.428467,213.357422 148.400146,213.357422 Z M174.29126,222 L186.376221,222 L186.376221,200.90625 C186.376221,195.669434 188.646729,192.19043 194.652588,192.19043 C196.373779,192.19043 198.094971,192.336914 198.937256,192.629883 L198.937256,182.668945 C198.168213,182.449219 197.06958,182.339355 195.421631,182.339355 C190.221436,182.339355 187.328369,186.038086 186.595947,188.638184 L186.046631,188.638184 L186.046631,182.888672 L174.29126,182.888672 L174.29126,222 Z M221.276123,182.15625 C209.410889,182.15625 202.672607,190.103027 202.672607,201.089355 L202.672607,203.57959 C202.672607,215.408203 209.374268,222.732422 221.276123,222.732422 C233.141357,222.732422 239.843018,215.408203 239.843018,203.542969 L239.843018,201.016113 C239.843018,190.029785 233.141357,182.15625 221.276123,182.15625 Z M221.276123,190.945312 C226.146729,190.945312 227.941162,195.522949 227.941162,200.90625 L227.941162,203.90918 C227.941162,208.999512 226.256592,213.943359 221.276123,213.943359 C216.259033,213.943359 214.574463,208.962891 214.574463,203.90918 L214.574463,200.90625 C214.574463,195.596191 216.332275,190.945312 221.276123,190.945312 Z M263.756592,182.15625 C251.891357,182.15625 245.153076,190.103027 245.153076,201.089355 L245.153076,203.57959 C245.153076,215.408203 251.854736,222.732422 263.756592,222.732422 C275.621826,222.732422 282.323486,215.408203 282.323486,203.542969 L282.323486,201.016113 C282.323486,190.029785 275.621826,182.15625 263.756592,182.15625 Z M263.756592,190.945312 C268.627197,190.945312 270.421631,195.522949 270.421631,200.90625 L270.421631,203.90918 C270.421631,208.999512 268.737061,213.943359 263.756592,213.943359 C258.739502,213.943359 257.054932,208.962891 257.054932,203.90918 L257.054932,200.90625 C257.054932,195.596191 258.812744,190.945312 263.756592,190.945312 Z M292.614014,222 L304.259521,222 L304.259521,191.787598 L311.400635,191.787598 L311.400635,182.888672 L303.966553,182.888672 L303.966553,179.995605 C303.966553,177.065918 305.687744,176.003906 309.056885,176.003906 C310.375244,176.003906 311.144287,176.077148 311.620361,176.11377 L311.620361,168.130371 C310.887939,168.09375 309.423096,167.874023 306.603271,167.874023 C296.898682,167.874023 292.614014,170.913574 292.614014,179.006836 L292.614014,182.888672 L286.79126,182.888672 L286.79126,191.787598 L292.614014,191.787598 L292.614014,222 Z"/>
</svg>
