<svg xmlns="http://www.w3.org/2000/svg" width="517" height="398" viewBox="0 0 517 398">
  <path fill="#171FC9" fill-rule="evenodd" d="M94.3803084,326.36559 C95.4803084,325.86559 97.4803084,325.76559 96.6803084,324.36559 C96.1803084,324.26559 93.6803084,325.06559 94.3803084,326.36559 Z M60.0803084,288.86559 C61.3803084,287.06559 62.9803084,291.56559 62.6803084,292.86559 C61.0803084,293.16559 60.7803084,290.46559 60.0803084,288.86559 Z M89.7803084,372.16559 C90.7803084,372.36559 91.8803084,375.26559 91.6803084,376.46559 C90.0803084,377.06559 89.9803084,374.26559 89.1803084,373.16559 C89.0803084,373.06559 89.0803084,373.06559 88.9803084,372.96559 L89.0803084,372.96559 C88.7803084,372.26559 88.4803084,371.66559 88.2803084,370.96559 C87.9803084,370.16559 87.6803084,369.36559 87.2803084,368.76559 C87.1803084,368.76559 87.1803084,368.66559 87.1803084,368.66559 C87.0803084,368.46559 87.1803084,368.16559 87.3803084,368.06559 C87.5803084,367.86559 87.8803084,367.96559 88.0803084,368.16559 C88.5803084,368.86559 88.8803084,369.76559 89.1803084,370.56559 C89.2803084,371.06559 89.4803084,371.66559 89.7803084,372.16559 Z M101.180308,361.06559 C101.280308,361.16559 101.380308,361.36559 101.380308,361.46559 C101.580308,361.66559 101.480308,361.96559 101.280308,362.16559 C101.080308,362.36559 100.780308,362.26559 100.580308,362.06559 C100.480308,361.96559 100.380308,361.76559 100.280308,361.56559 C100.180308,361.36559 100.080308,361.16559 99.8803084,360.96559 C99.7803084,360.96559 99.7803084,360.96559 99.7803084,360.86559 C99.6803084,360.66559 99.7803084,360.36559 99.9803084,360.26559 C100.180308,360.06559 100.480308,360.16559 100.680308,360.36559 C100.880308,360.56559 101.080308,360.86559 101.180308,361.06559 Z M73.9803084,349.56559 C74.2803084,349.56559 74.4803084,349.76559 74.3803084,350.06559 C74.4803084,350.26559 74.2803084,350.56559 73.9803084,350.56559 C73.6803084,350.56559 73.4803084,350.76559 73.1803084,351.06559 C72.7803084,351.36559 72.4803084,351.76559 71.8803084,351.86559 C71.6803084,351.86559 71.4803084,351.76559 71.3803084,351.56559 C71.3803084,351.46559 71.3803084,351.46559 71.3803084,351.46559 C71.3803084,351.16559 71.4803084,350.96559 71.7803084,350.86559 C72.0803084,350.86559 72.2803084,350.66559 72.5803084,350.36559 C72.8803084,350.06559 73.2803084,349.66559 73.9803084,349.56559 Z M444.980308,79.0655896 C444.380308,77.7655896 444.580308,76.7655896 445.980308,76.4655896 C446.180308,77.1655896 446.480308,77.7655896 446.680308,78.4655896 C446.080308,78.6655896 445.580308,78.8655896 444.980308,79.0655896 Z M427.380308,41.6655896 C430.480308,40.8655896 431.580308,38.9655896 431.180308,36.5655896 C428.280308,37.4655896 427.180308,39.2655896 427.380308,41.6655896 Z M415.880308,161.56559 C417.380308,161.16559 416.780308,159.76559 416.680308,158.66559 C415.180308,158.96559 415.180308,160.16559 415.880308,161.56559 Z M396.580308,206.26559 C397.980308,205.66559 399.480308,205.06559 400.680308,205.06559 C400.880308,205.36559 400.980308,205.76559 401.080308,206.06559 C400.080308,206.86559 397.980308,207.76559 396.780308,207.36559 C395.880308,207.56559 394.880308,207.86559 393.980308,208.16559 C392.980308,208.46559 391.880308,208.86559 390.880308,209.06559 C390.580308,209.16559 390.280308,208.96559 390.180308,208.66559 C390.180308,208.56559 390.180308,208.56559 390.180308,208.56559 C390.180308,208.26559 390.380308,207.96559 390.680308,207.86559 C391.680308,207.66559 392.680308,207.36559 393.680308,207.06559 C394.580308,206.76559 395.580308,206.46559 396.580308,206.26559 Z M362.480308,102.36559 C360.880308,103.06559 359.780308,104.06559 360.280308,105.76559 C362.180308,105.06559 363.080308,104.06559 362.480308,102.36559 Z M370.280308,125.96559 C370.580308,126.66559 370.380308,127.06559 369.680308,127.36559 C369.480308,127.06559 369.380308,126.66559 369.280308,126.36559 C369.580308,126.16559 369.980308,126.06559 370.280308,125.96559 Z M299.880308,-55.0344104 C298.880308,-55.6344104 298.180308,-58.0344104 299.380308,-58.6344104 C301.280308,-59.2344104 302.680308,-55.2344104 299.880308,-55.0344104 Z M410.180308,254.46559 C411.280308,254.56559 409.780308,256.66559 411.480308,254.76559 C411.680308,255.86559 412.580308,255.66559 412.680308,256.96559 C411.680308,256.66559 411.880308,258.66559 411.680308,259.56559 C409.380308,260.56559 408.280308,259.36559 406.580308,259.16559 C404.780308,255.66559 407.980308,254.76559 409.980308,254.96559 C410.280308,254.96559 410.280308,254.46559 410.180308,254.46559 Z M329.080308,35.5655896 C330.080308,35.1655896 329.080308,32.4655896 327.880308,33.3655896 C326.880308,33.7655896 327.880308,36.4655896 329.080308,35.5655896 Z M355.480308,112.06559 C354.080308,112.96559 352.980308,114.06559 352.980308,115.56559 C354.980308,116.06559 356.380308,112.96559 355.480308,112.06559 Z M351.280308,143.36559 C351.080308,142.06559 351.980308,141.26559 351.980308,140.06559 C356.380308,137.46559 357.380308,133.26559 361.780308,130.56559 C361.780308,130.86559 361.880308,131.06559 361.980308,131.26559 C361.980308,133.36559 359.280308,134.26559 359.280308,136.36559 C355.280308,138.06559 354.980308,141.46559 351.280308,143.36559 Z M303.880308,-7.03441045 C302.980308,-10.8344104 305.080308,-13.1344104 304.080308,-16.9344104 C304.980308,-17.5344104 304.880308,-18.6344104 306.380308,-18.9344104 C306.780308,-17.9344104 307.080308,-16.9344104 307.480308,-15.9344104 C307.180308,-15.7344104 306.780308,-15.6344104 306.480308,-15.5344104 C306.080308,-12.6344104 306.580308,-7.93441045 303.880308,-7.03441045 Z M395.280308,244.76559 C396.680308,244.76559 397.580308,245.96559 398.580308,245.46559 C398.780308,245.76559 398.880308,246.16559 398.980308,246.46559 C393.380308,248.06559 389.680308,245.76559 384.180308,247.26559 C383.380308,247.86559 383.280308,246.86559 382.780308,246.66559 C380.780308,247.06559 378.680308,247.86559 377.480308,246.66559 C377.280308,244.36559 379.080308,245.36559 380.780308,245.46559 C381.980308,245.56559 383.780308,244.86559 385.480308,244.86559 C385.980308,244.86559 386.680308,245.36559 387.180308,245.36559 C389.280308,245.26559 391.280308,244.36559 392.580308,244.56559 C392.780308,244.56559 393.080308,245.46559 393.280308,245.46559 C393.980308,245.56559 394.680308,244.76559 395.280308,244.76559 Z M348.580308,158.96559 C348.480308,158.56559 348.280308,158.06559 347.980308,158.06559 C350.480308,155.76559 351.480308,152.66559 355.680308,151.16559 L355.680308,151.36559 C355.980308,151.26559 356.180308,151.16559 356.380308,151.16559 C356.480308,151.16559 356.580308,151.06559 356.680308,151.06559 C355.980308,150.66559 356.480308,150.26559 356.180308,149.46559 C358.280308,148.56559 360.480308,143.76559 362.580308,146.36559 C360.080308,147.76559 359.380308,149.86559 357.180308,151.36559 C356.980308,151.66559 356.680308,151.66559 356.380308,151.76559 C356.280308,151.76559 356.280308,151.76559 356.180308,151.76559 C354.380308,154.46559 351.580308,156.76559 348.580308,158.96559 Z M307.980308,116.26559 C307.980308,116.16559 307.880308,115.36559 307.880308,115.16559 C307.980308,115.06559 308.580308,115.46559 308.680308,115.26559 C309.580308,112.76559 309.080308,109.26559 311.680308,108.86559 C311.280308,108.16559 311.280308,107.56559 311.380308,107.06559 C314.380308,105.26559 312.680308,101.26559 316.280308,99.6655896 C316.580308,99.8655896 316.780308,100.06559 316.980308,100.56559 C315.880308,103.46559 313.980308,105.96559 314.180308,109.46559 C312.480308,109.66559 313.380308,111.16559 311.880308,111.46559 C311.880308,112.36559 311.380308,113.06559 311.680308,114.16559 C311.080308,114.36559 311.180308,114.76559 310.480308,114.96559 C310.880308,116.06559 309.980308,117.06559 309.480308,118.36559 C309.080308,119.46559 308.980308,121.16559 308.080308,120.76559 C309.180308,124.66559 307.680308,128.56559 303.580308,129.16559 C302.980308,127.16559 305.480308,124.86559 304.780308,121.96559 C306.180308,122.26559 305.480308,120.86559 305.980308,120.06559 C306.680308,118.76559 307.580308,118.26559 307.980308,116.26559 Z M376.980308,287.96559 C377.780308,287.96559 378.480308,288.16559 379.580308,287.76559 C379.780308,288.36559 379.980308,288.86559 380.180308,289.46559 C378.780308,289.76559 377.380308,289.76559 376.980308,287.96559 Z M280.680308,87.6655896 C279.180308,87.0655896 279.780308,83.1655896 280.480308,81.7655896 C279.880308,80.2655896 280.080308,79.1655896 280.680308,78.2655896 C281.580308,77.6655896 281.580308,78.6655896 282.280308,78.4655896 C282.480308,81.7655896 281.680308,85.8655896 280.680308,87.6655896 Z M371.080308,335.66559 C371.780308,336.06559 373.080308,336.76559 372.580308,337.86559 C371.480308,338.16559 370.680308,337.86559 370.280308,336.76559 C369.680308,336.46559 369.280308,335.96559 368.780308,335.56559 C368.280308,335.06559 367.880308,334.66559 367.380308,334.36559 C365.680308,334.06559 364.480308,332.46559 363.280308,331.06559 C363.180308,331.06559 363.180308,331.06559 363.080308,330.96559 C362.680308,330.76559 362.480308,330.46559 362.180308,330.26559 C361.880308,330.06559 361.680308,329.76559 361.380308,329.66559 C361.280308,329.56559 361.280308,329.56559 361.180308,329.46559 C360.280308,328.96559 358.880308,328.56559 359.080308,327.66559 C357.880308,327.16559 356.580308,326.76559 355.880308,325.06559 C354.580308,325.86559 354.680308,323.66559 353.380308,324.46559 C353.780308,323.76559 352.980308,322.46559 352.680308,321.36559 C354.380308,321.46559 355.080308,323.56559 357.080308,323.16559 C356.980308,323.56559 356.480308,323.76559 356.780308,324.36559 C357.680308,324.26559 357.980308,325.46559 359.180308,324.66559 C359.980308,325.46559 359.380308,325.66559 359.980308,326.96559 C360.580308,325.86559 360.480308,327.46559 361.480308,326.86559 C361.680308,327.46559 361.880308,327.96559 362.080308,328.56559 C362.580308,328.76559 362.880308,329.06559 363.180308,329.36559 C363.280308,329.56559 363.480308,329.76559 363.680308,329.86559 C364.680308,330.06559 364.580308,330.26559 365.480308,329.56559 C364.980308,331.26559 367.080308,332.06559 367.880308,333.16559 C368.580308,333.56559 369.180308,334.06559 369.680308,334.56559 C370.080308,334.96559 370.580308,335.36559 371.080308,335.66559 Z M373.880308,347.56559 C374.680308,347.56559 375.280308,348.16559 375.680308,349.26559 C375.080308,349.46559 374.780308,349.06559 374.180308,349.36559 C373.580308,348.46559 374.280308,348.36559 373.880308,347.56559 Z M223.380308,-27.4344104 C223.180308,-28.4344104 222.180308,-28.9344104 221.680308,-29.8344104 C220.780308,-32.2344104 220.980308,-37.5344104 225.480308,-37.2344104 C226.280308,-34.8344104 227.780308,-32.2344104 225.680308,-30.5344104 C225.880308,-30.0344104 225.980308,-29.5344104 226.380308,-29.6344104 C224.680308,-28.6344104 225.780308,-28.0344104 223.380308,-27.4344104 Z M236.180308,45.6655896 C232.680308,43.0655896 233.380308,35.9655896 233.280308,32.3655896 C234.080308,31.5655896 234.880308,31.3655896 235.980308,31.3655896 C237.280308,33.8655896 236.480308,35.2655896 236.680308,37.5655896 C236.880308,40.8655896 238.380308,43.6655896 236.180308,45.6655896 Z M240.180308,50.5655896 C240.080308,52.5655896 242.180308,55.5655896 239.680308,56.4655896 C238.780308,53.9655896 237.480308,51.3655896 240.180308,50.5655896 Z M227.280308,28.4655896 C224.980308,27.4655896 225.980308,24.1655896 225.480308,22.2655896 C226.680308,21.7655896 226.280308,21.5655896 227.480308,21.5655896 C227.480308,24.3655896 228.980308,26.3655896 227.280308,28.4655896 Z M238.980308,89.0655896 C243.080308,85.6655896 238.680308,78.2655896 239.780308,73.1655896 C239.380308,72.0655896 238.980308,70.9655896 238.580308,69.8655896 C238.880308,69.9655896 239.180308,70.0655896 239.680308,69.8655896 C238.680308,66.3655896 239.980308,63.7655896 239.180308,60.2655896 C239.780308,60.0655896 239.680308,59.6655896 240.380308,59.4655896 C242.480308,64.6655896 240.080308,70.1655896 242.380308,76.4655896 C241.880308,82.2655896 243.880308,89.1655896 242.480308,94.5655896 C240.480308,93.9655896 240.380308,94.5655896 238.780308,95.8655896 C236.780308,96.3655896 236.080308,94.1655896 235.180308,92.2655896 C235.880308,91.4655896 236.880308,90.8655896 236.480308,89.5655896 C237.780308,89.1655896 238.580308,88.8655896 238.980308,89.0655896 Z M204.680308,-18.8344104 C204.680308,-18.4344104 206.680308,-13.6344104 204.180308,-12.6344104 C202.080308,-17.9344104 201.480308,-24.0344104 199.680308,-28.3344104 C200.080308,-29.2344104 200.780308,-30.9344104 201.880308,-30.6344104 C202.680308,-27.3344104 204.180308,-21.7344104 204.680308,-18.8344104 Z M318.280308,371.26559 C320.180308,371.16559 320.280308,374.66559 321.380308,375.76559 C320.580308,376.26559 320.380308,375.46559 319.580308,376.06559 C319.280308,374.56559 317.880308,372.46559 318.280308,371.26559 Z M221.680308,109.26559 C219.880308,109.86559 221.080308,111.76559 221.680308,113.46559 C223.080308,112.16559 222.680308,111.16559 221.680308,109.26559 Z M336.280308,431.56559 C336.780308,432.26559 336.680308,434.16559 337.580308,434.16559 C337.780308,432.96559 337.680308,431.66559 336.280308,431.56559 Z M222.980308,114.86559 C222.580308,112.56559 221.680308,114.46559 222.980308,114.86559 Z M206.880308,102.56559 C206.980308,99.8655896 203.780308,95.5655896 204.780308,92.9655896 C205.880308,93.2655896 207.380308,94.9655896 207.280308,95.8655896 C207.780308,95.5655896 207.980308,95.9655896 208.380308,95.8655896 C210.380308,100.16559 211.180308,104.66559 212.780308,108.96559 C214.280308,113.16559 216.980308,117.26559 216.380308,120.66559 C216.380308,120.96559 216.480308,121.26559 216.580308,121.56559 L216.680308,121.76559 C216.680308,121.96559 216.580308,122.16559 216.380308,122.26559 C216.180308,122.36559 215.980308,122.26559 215.880308,122.06559 L215.780308,121.86559 C215.680308,121.56559 215.580308,121.26559 215.580308,120.86559 L215.480308,120.96559 C213.980308,118.76559 213.680308,115.16559 211.880308,113.16559 C210.180308,113.16559 211.080308,114.76559 209.980308,114.26559 C208.080308,110.66559 207.180308,107.36559 205.580308,104.16559 C204.780308,103.06559 206.880308,103.26559 206.880308,102.56559 Z M192.880308,76.5655896 C191.780308,76.0655896 191.780308,74.9655896 192.480308,74.1655896 C193.580308,73.4655896 193.480308,75.3655896 193.880308,75.9655896 L193.780308,75.9655896 C194.480308,77.1655896 194.880308,78.4655896 195.380308,79.6655896 C195.680308,80.5655896 195.980308,81.4655896 196.380308,82.3655896 C196.480308,82.5655896 196.380308,82.9655896 196.080308,83.0655896 C195.880308,83.1655896 195.480308,83.0655896 195.380308,82.7655896 C194.980308,81.8655896 194.580308,80.9655896 194.280308,80.0655896 C193.880308,78.8655896 193.480308,77.6655896 192.880308,76.5655896 Z M152.080308,-28.5344104 C153.380308,-28.8344104 152.580308,-31.6344104 151.480308,-31.3344104 C151.080308,-30.7344104 151.180308,-29.0344104 152.080308,-28.5344104 Z M186.080308,76.3655896 C182.980308,70.2655896 179.080308,62.0655896 176.380308,55.5655896 C175.880308,54.2655896 173.980308,52.4655896 175.580308,51.2655896 C177.380308,51.0655896 177.280308,53.2655896 177.780308,54.2655896 C178.780308,56.1655896 179.480308,58.0655896 180.380308,60.4655896 C182.280308,65.5655896 186.580308,70.1655896 187.180308,76.0655896 L187.680308,77.4655896 C188.780308,77.8655896 189.380308,79.9655896 188.480308,80.8655896 C186.980308,81.6655896 186.380308,78.5655896 186.580308,77.7655896 L186.080308,76.3655896 Z M195.580308,104.06559 C194.780308,102.46559 194.380308,100.06559 193.380308,97.8655896 C192.280308,95.2655896 188.780308,91.5655896 191.180308,89.6655896 C193.180308,90.2655896 192.580308,92.7655896 193.280308,94.5655896 C194.380308,97.4655896 197.080308,100.46559 196.680308,103.86559 L196.580308,103.86559 C196.680308,104.06559 196.780308,104.16559 196.880308,104.36559 L196.980308,104.56559 C197.080308,104.66559 197.080308,104.76559 197.080308,104.86559 C198.880308,108.16559 200.480308,112.26559 201.780308,115.96559 C202.480308,117.76559 203.080308,119.56559 203.080308,121.06559 C203.080308,121.16559 203.080308,121.16559 203.080308,121.16559 C203.080308,121.66559 203.180308,122.06559 203.380308,122.46559 L203.480308,122.76559 C203.580308,122.96559 203.480308,123.16559 203.280308,123.26559 C203.080308,123.36559 202.880308,123.26559 202.780308,123.06559 L202.680308,122.76559 C202.580308,122.36559 202.480308,121.96559 202.380308,121.46559 L202.280308,121.56559 C199.780308,116.06559 197.380308,109.86559 195.980308,104.96559 L196.080308,104.96559 C195.980308,104.66559 195.780308,104.46559 195.680308,104.26559 C195.580308,104.26559 195.580308,104.16559 195.580308,104.16559 C195.580308,104.16559 195.580308,104.06559 195.580308,104.06559 Z M152.580308,-7.23441045 C152.080308,-8.43441045 150.880308,-9.93441045 150.280308,-11.3344104 C149.880308,-12.3344104 148.280308,-14.4344104 150.380308,-15.1344104 C152.980308,-13.9344104 152.680308,-10.5344104 153.680308,-8.03441045 C156.380308,-1.63441045 159.880308,4.06558955 161.580308,11.7655896 C161.780308,12.5655896 162.780308,14.0655896 161.580308,14.7655896 C157.780308,8.46558955 155.880308,0.465589553 152.580308,-7.23441045 Z M161.580308,35.4655896 C162.180308,34.1655896 164.180308,35.0655896 163.380308,36.2655896 C162.980308,36.4655896 162.480308,36.5655896 162.080308,36.7655896 C161.880308,36.3655896 161.780308,35.8655896 161.580308,35.4655896 Z M187.880308,109.36559 C187.680308,108.76559 187.180308,108.86559 187.080308,108.16559 C187.280308,107.86559 187.580308,107.66559 187.480308,107.26559 C188.580308,106.96559 189.080308,109.16559 187.880308,109.36559 Z M184.480308,102.26559 C184.680308,102.86559 185.080308,103.06559 185.480308,103.06559 C185.280308,102.56559 185.180308,101.86559 184.480308,102.26559 Z M147.780308,15.9655896 C149.080308,18.2655896 151.480308,22.1655896 149.180308,24.1655896 C146.980308,20.6655896 145.080308,16.3655896 142.880308,12.8655896 C143.580308,12.4655896 143.580308,11.6655896 144.680308,11.4655896 C145.180308,12.9655896 146.780308,14.2655896 147.780308,15.9655896 Z M180.580308,134.26559 C184.780308,132.86559 177.880308,128.76559 182.080308,126.96559 C182.180308,127.26559 182.580308,127.06559 182.880308,127.06559 C186.080308,131.76559 186.480308,136.46559 187.580308,142.36559 C188.280308,142.36559 188.080308,144.36559 189.180308,143.66559 C189.280308,144.46559 188.380308,144.86559 188.480308,145.76559 C185.480308,143.66559 185.580308,138.36559 182.880308,135.36559 C182.580308,135.96559 182.380308,136.56559 181.980308,137.16559 C181.180308,136.46559 180.580308,135.26559 180.580308,134.26559 Z M134.180308,24.2655896 C134.080308,23.8655896 133.880308,23.6655896 133.680308,23.6655896 C133.380308,22.3655896 134.780308,20.8655896 136.180308,21.2655896 C136.680308,22.8655896 135.280308,23.4655896 134.180308,24.2655896 Z M174.280308,144.06559 C172.180308,141.26559 170.580308,135.76559 168.280308,129.66559 C167.480308,127.36559 165.680308,124.96559 169.080308,124.46559 C169.380308,126.76559 171.480308,129.06559 172.280308,131.26559 C172.780308,132.76559 172.880308,135.06559 173.680308,137.16559 C174.580308,139.56559 176.780308,142.26559 174.280308,144.06559 Z M157.580308,112.36559 C156.580308,113.36559 154.580308,113.96559 153.380308,113.46559 C153.580308,112.96559 153.280308,112.16559 152.980308,111.36559 C153.880308,110.76559 154.880308,110.16559 154.880308,109.16559 C156.080308,109.56559 157.180308,110.16559 157.580308,112.36559 Z M220.680308,353.66559 C221.480308,353.46559 221.880308,353.16559 221.780308,352.56559 C220.880308,352.66559 220.280308,352.36559 220.680308,353.66559 Z M234.180308,391.06559 C235.080308,390.86559 234.780308,390.06559 234.680308,389.36559 C233.480308,389.36559 233.780308,390.16559 234.180308,391.06559 Z M142.380308,134.06559 C141.280308,130.86559 140.380308,129.36559 137.380308,129.46559 C138.780308,131.46559 139.780308,134.56559 142.380308,134.06559 Z M148.880308,172.06559 C147.980308,172.76559 147.680308,171.86559 146.980308,171.96559 C146.680308,171.06559 147.080308,170.36559 148.180308,170.06559 C148.380308,170.76559 148.680308,171.36559 148.880308,172.06559 Z M231.280308,407.16559 C232.480308,407.06559 232.180308,406.26559 231.780308,405.46559 C230.880308,405.66559 231.180308,406.46559 231.280308,407.16559 Z M135.380308,170.16559 C139.280308,168.46559 142.380308,171.66559 141.280308,175.96559 C139.680308,177.46559 138.780308,176.36559 136.780308,177.16559 C134.380308,175.26559 134.680308,172.56559 135.380308,170.16559 Z M144.480308,194.36559 C143.380308,194.26559 141.880308,194.76559 141.480308,193.26559 C141.980308,192.06559 142.380308,193.66559 143.580308,192.86559 C143.580308,193.86559 144.280308,193.46559 144.480308,194.36559 Z M115.280308,190.56559 C113.480308,188.06559 109.980308,189.16559 108.480308,186.26559 C110.280308,185.66559 110.280308,185.96559 111.080308,184.96559 C114.280308,185.36559 116.380308,187.76559 119.480308,188.36559 C121.080308,189.96559 122.980308,191.16559 125.380308,191.16559 C125.380308,192.56559 126.580308,191.46559 126.680308,192.56559 L126.680308,192.66559 C126.980308,192.76559 127.180308,192.86559 127.480308,192.96559 C127.980308,193.16559 128.380308,193.36559 128.880308,193.46559 L128.880308,193.36559 C129.880308,193.56559 130.980308,193.56559 131.580308,194.56559 C132.580308,194.66559 133.480308,195.16559 134.280308,195.56559 C134.780308,195.76559 135.180308,195.96559 135.580308,196.16559 C137.180308,196.46559 139.280308,196.16559 140.080308,198.26559 C137.880308,199.16559 136.580308,198.16559 135.180308,197.36559 C135.080308,197.36559 135.080308,197.36559 134.980308,197.36559 C134.480308,197.16559 133.980308,196.86559 133.580308,196.66559 C132.780308,196.16559 131.980308,195.76559 131.180308,195.76559 C131.080308,195.76559 131.080308,195.76559 131.080308,195.76559 C129.980308,195.86559 129.180308,195.26559 128.480308,194.46559 L128.480308,194.36559 C127.980308,194.26559 127.480308,194.06559 126.980308,193.86559 C126.680308,193.76559 126.380308,193.66559 126.080308,193.56559 C122.280308,193.06559 119.380308,190.46559 115.280308,190.56559 Z M181.480308,337.96559 C180.480308,338.16559 179.280308,339.66559 180.280308,339.86559 C180.580308,339.16559 181.980308,339.06559 181.480308,337.96559 Z M126.080308,243.66559 C125.580308,243.26559 124.880308,243.16559 123.880308,243.76559 C123.880308,244.76559 125.980308,244.56559 126.080308,243.66559 Z M169.380308,371.36559 C170.580308,370.76559 171.580308,369.96559 170.980308,368.56559 C169.780308,369.16559 169.180308,370.06559 169.380308,371.36559 Z M168.280308,373.66559 C168.280308,373.06559 169.280308,372.96559 168.480308,372.06559 C167.480308,371.96559 167.380308,373.66559 168.280308,373.66559 Z M174.780308,408.26559 C171.180308,406.06559 172.080308,399.06559 177.580308,399.36559 C180.680308,402.76559 179.180308,406.76559 174.780308,408.26559 Z M119.680308,240.66559 C118.180308,241.16559 117.280308,240.26559 116.280308,239.56559 L116.780308,239.16559 L117.080308,238.56559 C118.380308,238.36559 119.080308,239.46559 119.680308,240.66559 Z M110.480308,236.06559 C108.180308,235.16559 105.880308,234.06559 104.280308,231.56559 L104.880308,231.56559 L104.880308,230.96559 C106.180308,230.26559 106.280308,232.36559 107.680308,231.46559 C107.580308,233.86559 109.680308,233.46559 110.780308,234.86559 L110.480308,235.46559 L110.480308,236.06559 Z M105.680308,221.56559 C106.380308,221.66559 107.480308,220.96559 107.580308,222.06559 L107.580308,222.16559 C107.680308,222.16559 107.680308,222.16559 107.780308,222.16559 C107.980308,222.26559 108.180308,222.26559 108.380308,222.26559 C108.680308,222.36559 109.080308,222.36559 109.380308,222.56559 C109.580308,222.66559 109.680308,222.96559 109.580308,223.16559 C109.480308,223.36559 109.180308,223.36559 108.980308,223.26559 C108.880308,223.16559 108.680308,223.16559 108.380308,223.16559 C108.280308,223.06559 108.080308,223.06559 107.980308,223.06559 C107.180308,223.56559 106.980308,222.86559 106.280308,223.26559 C106.080308,222.06559 105.280308,222.46559 105.680308,221.56559 Z M140.680308,331.56559 C141.180308,331.36559 141.580308,331.16559 142.080308,331.06559 C142.480308,331.96559 141.980308,332.36559 141.080308,332.56559 C140.880308,332.26559 140.780308,331.86559 140.680308,331.56559 Z M158.280308,380.26559 C157.880308,379.56559 158.180308,379.06559 158.880308,378.86559 C159.080308,379.16559 159.180308,379.56559 159.280308,379.86559 C158.980308,380.06559 158.580308,380.16559 158.280308,380.26559 Z M118.880308,320.16559 C119.880308,320.66559 121.680308,319.26559 121.680308,318.46559 C121.080308,318.26559 117.780308,318.56559 118.880308,320.16559 Z M88.3803084,237.56559 C88.0803084,236.96559 88.0803084,235.76559 87.2803084,236.46559 C87.4803084,237.26559 87.7803084,237.76559 88.3803084,237.56559 Z M372.080308,285.96559 C374.780308,284.56559 375.880308,287.96559 376.680308,286.96559 C375.280308,288.46559 373.380308,287.06559 371.980308,286.36559 C371.880308,286.36559 371.780308,286.36559 371.680308,286.26559 C369.980308,285.26559 367.880308,284.66559 365.080308,284.26559 C364.980308,284.26559 364.880308,284.26559 364.780308,284.16559 C363.680308,284.06559 362.680308,283.46559 361.980308,282.46559 C360.080308,283.86559 360.380308,281.46559 359.480308,282.96559 C357.580308,281.36559 354.980308,281.16559 352.180308,281.46559 C351.880308,283.16559 351.280308,283.06559 350.180308,284.46559 C349.080308,288.56559 349.180308,291.26559 350.580308,297.16559 C348.180308,300.66559 347.080308,304.76559 342.080308,307.06559 C341.180308,308.66559 341.080308,309.16559 339.780308,310.16559 C339.580308,312.66559 340.980308,313.86559 341.780308,315.06559 C341.780308,315.06559 341.880308,315.06559 341.880308,315.06559 C343.180308,315.86559 344.280308,316.86559 345.280308,317.86559 C346.380308,318.86559 347.280308,319.76559 348.380308,320.36559 C348.680308,320.16559 348.880308,320.06559 349.080308,319.96559 L349.280308,319.96559 C349.680308,319.96559 350.080308,320.16559 350.280308,320.56559 C350.380308,320.86559 350.480308,321.26559 350.480308,321.56559 C350.580308,321.66559 350.680308,321.76559 350.680308,321.96559 C350.980308,322.26559 351.080308,322.66559 351.280308,322.96559 C351.580308,323.46559 351.680308,323.76559 351.980308,323.86559 C352.480308,323.56559 352.280308,322.46559 352.780308,323.16559 C353.880308,323.36559 352.480308,324.86559 353.380308,324.86559 C353.580308,325.46559 351.480308,326.36559 351.580308,325.16559 L351.580308,325.06559 C350.780308,324.76559 350.480308,324.16559 350.180308,323.56559 C349.980308,323.36559 349.880308,323.16559 349.780308,322.96559 C348.880308,322.96559 347.980308,322.56559 347.580308,321.76559 C346.280308,321.06559 345.180308,319.96559 344.180308,318.96559 C343.180308,317.96559 342.180308,316.96559 341.080308,316.36559 C340.980308,316.36559 340.980308,316.26559 340.880308,316.16559 C339.980308,315.86559 339.380308,316.66559 338.980308,315.36559 C339.680308,318.96559 343.280308,321.66559 345.480308,323.96559 C345.780308,324.56559 346.680308,323.76559 347.080308,324.16559 C347.380308,326.16559 349.380308,326.86559 350.780308,329.26559 C351.080308,329.16559 350.880308,328.76559 350.880308,328.46559 C351.980308,328.46559 351.080308,329.66559 351.480308,330.16559 C351.780308,330.06559 351.580308,329.66559 351.580308,329.36559 C353.280308,331.86559 356.980308,333.26559 358.380308,336.76559 C358.780308,337.46559 358.780308,336.16559 359.480308,336.76559 C359.780308,339.46559 363.380308,339.06559 362.280308,342.56559 C358.380308,341.46559 356.480308,336.16559 352.680308,334.76559 C352.580308,333.46559 351.280308,332.16559 349.380308,331.86559 C348.280308,333.36559 348.980308,334.96559 350.280308,336.46559 C350.580308,336.36559 350.380308,335.96559 350.380308,335.66559 C353.880308,339.46559 355.580308,344.46559 360.280308,346.46559 C360.780308,349.86559 364.280308,350.76559 365.880308,353.56559 C366.180308,352.96559 366.380308,353.16559 366.880308,353.16559 C365.680308,353.96559 367.480308,354.76559 369.080308,355.06559 C369.580308,356.26559 368.780308,356.76559 368.480308,357.56559 C367.280308,357.36559 366.180308,356.96559 365.080308,356.56559 C364.780308,355.26559 363.780308,354.06559 362.780308,353.26559 C361.580308,352.26559 361.680308,351.66559 360.180308,351.16559 C358.880308,347.96559 355.880308,348.16559 353.480308,347.16559 C352.280308,344.16559 349.880308,343.76559 348.580308,340.96559 C348.280308,340.46559 347.580308,340.96559 347.080308,341.06559 C346.680308,339.56559 344.780308,337.56559 342.580308,337.06559 C341.680308,335.06559 340.280308,334.46559 338.780308,333.86559 L338.780308,333.66559 C338.680308,333.86559 338.580308,333.96559 338.480308,334.06559 C340.080308,335.86559 341.780308,338.06559 343.980308,341.06559 C343.980308,341.06559 344.080308,341.16559 344.080308,341.16559 C344.080308,341.26559 344.080308,341.26559 344.080308,341.26559 C344.080308,341.36559 344.180308,341.46559 344.280308,341.66559 C345.380308,341.56559 345.880308,342.56559 346.380308,343.56559 C345.880308,344.56559 344.680308,344.16559 343.880308,344.06559 C343.680308,343.46559 343.480308,342.96559 343.280308,342.36559 L343.380308,342.36559 C343.280308,342.16559 343.180308,341.86559 343.080308,341.66559 C340.280308,340.96559 339.180308,336.56559 336.480308,335.76559 C336.280308,335.16559 336.080308,334.66559 335.880308,334.06559 C335.180308,334.26559 334.580308,334.56559 333.880308,334.76559 C330.680308,331.66559 329.180308,328.76559 325.380308,326.86559 C323.280308,327.86559 320.380308,326.96559 317.580308,328.16559 C315.380308,329.16559 313.580308,330.96559 311.880308,332.16559 C312.780308,333.96559 312.280308,334.96559 313.080308,336.66559 C311.680308,336.16559 312.680308,338.56559 312.580308,339.46559 C311.880308,341.56559 308.580308,342.86559 306.580308,341.66559 C306.080308,338.16559 304.080308,337.96559 302.280308,336.06559 C300.380308,336.56559 299.080308,337.26559 298.680308,338.46559 L298.880308,338.96559 C298.980308,339.06559 298.880308,339.26559 298.780308,339.26559 C298.680308,339.36559 298.480308,339.26559 298.480308,339.16559 L298.280308,338.66559 C297.580308,339.76559 299.180308,341.06559 299.880308,341.06559 C301.080308,344.76559 300.580308,347.66559 295.780308,348.56559 C292.880308,348.06559 292.880308,341.36559 289.980308,340.86559 C287.780308,341.46559 283.580308,342.46559 282.480308,345.06559 C283.080308,348.56559 285.580308,354.66559 284.580308,358.26559 C283.080308,357.96559 282.680308,353.56559 282.280308,351.96559 C280.580308,351.46559 278.680308,350.36559 276.880308,351.66559 C276.580308,353.76559 277.580308,356.46559 275.680308,357.76559 C274.180308,355.46559 275.880308,352.36559 274.480308,349.16559 C271.480308,347.46559 267.480308,353.06559 265.080308,353.36559 C264.980308,351.06559 262.980308,349.76559 261.480308,348.66559 C257.480308,348.76559 255.380308,351.46559 255.180308,354.26559 C252.680308,355.86559 252.880308,358.76559 251.480308,360.86559 C252.280308,362.86559 252.480308,364.66559 250.880308,365.56559 C248.180308,366.06559 249.280308,363.06559 249.080308,361.66559 C247.980308,361.96559 248.480308,362.86559 247.780308,363.26559 C247.880308,365.66559 247.680308,367.96559 247.580308,370.26559 C247.480308,372.66559 247.380308,375.16559 247.380308,377.66559 C248.180308,378.56559 248.280308,380.66559 246.580308,381.06559 C246.280308,379.96559 245.080308,378.36559 246.080308,377.86559 C245.980308,375.26559 246.180308,372.66559 246.280308,370.16559 C246.380308,367.76559 246.480308,365.36559 246.480308,362.96559 C246.480308,362.86559 246.480308,362.86559 246.480308,362.76559 C246.480308,361.36559 246.280308,359.96559 245.380308,358.16559 C244.980308,358.86559 245.180308,359.96559 245.680308,361.06559 C244.180308,361.46559 243.580308,362.16559 242.880308,362.86559 C243.280308,365.56559 243.180308,366.46559 242.380308,368.66559 C242.280308,369.86559 242.080308,370.86559 241.880308,371.96559 C241.780308,372.86559 241.580308,373.76559 241.480308,374.66559 C241.480308,374.86559 241.280308,374.96559 241.080308,374.96559 C240.980308,374.96559 240.780308,374.86559 240.780308,374.76559 C240.780308,374.66559 240.780308,374.66559 240.780308,374.56559 C240.880308,373.66559 240.980308,372.76559 241.180308,371.86559 C241.380308,370.76559 241.580308,369.66559 241.680308,368.56559 C239.580308,366.86559 240.780308,363.46559 241.180308,360.96559 C241.180308,360.86559 241.080308,360.86559 241.080308,360.76559 C240.980308,360.56559 240.980308,360.36559 241.080308,360.16559 C241.080308,360.06559 241.080308,359.86559 241.080308,359.66559 C240.980308,359.26559 240.980308,358.66559 241.380308,358.16559 C241.380308,357.26559 241.480308,356.56559 241.680308,355.76559 C241.780308,354.96559 241.980308,354.16559 241.880308,353.46559 C241.580308,351.06559 241.880308,348.96559 241.580308,346.56559 C239.780308,344.46559 237.480308,345.76559 235.380308,345.06559 C234.180308,346.16559 232.980308,347.26559 233.480308,349.16559 C232.280308,350.06559 231.680308,351.26559 231.280308,352.56559 C228.680308,353.06559 227.180308,351.46559 225.680308,349.66559 C226.280308,347.46559 226.680308,344.76559 225.480308,342.96559 C223.780308,340.56559 220.480308,342.66559 218.480308,341.36559 C215.180308,341.56559 215.180308,344.86559 212.880308,345.66559 C208.280308,347.16559 207.980308,341.26559 207.880308,336.86559 C204.080308,334.26559 202.480308,339.96559 201.080308,341.96559 C199.980308,342.16559 199.180308,342.06559 198.380308,342.76559 C196.680308,345.56559 194.880308,348.26559 193.180308,350.86559 C191.780308,352.96559 190.380308,355.06559 189.080308,357.16559 C188.980308,357.46559 188.580308,357.46559 188.380308,357.36559 C188.280308,357.26559 188.180308,357.16559 188.180308,357.06559 C188.080308,356.96559 188.080308,356.76559 188.180308,356.66559 C189.480308,354.56559 190.880308,352.46559 192.280308,350.36559 C194.080308,347.76559 195.780308,344.96559 197.480308,342.26559 L197.380308,342.26559 C197.680308,340.76559 198.680308,339.66559 198.980308,338.26559 C198.980308,337.26559 198.080308,337.86559 197.880308,337.16559 C196.980308,337.76559 198.780308,337.36559 198.680308,338.36559 C197.880308,337.96559 197.980308,338.96559 196.680308,339.06559 C195.980308,335.86559 193.180308,336.96559 192.280308,334.26559 C189.980308,334.76559 189.180308,335.86559 189.780308,337.76559 C183.380308,342.26559 179.480308,347.86559 174.980308,353.26559 C172.980308,351.56559 176.180308,349.96559 176.180308,348.26559 C181.080308,343.66559 184.880308,337.26559 189.280308,333.36559 C188.780308,331.96559 187.480308,332.06559 186.680308,331.26559 C185.980308,329.96559 186.580308,329.26559 186.680308,328.26559 C181.480308,327.36559 182.880308,334.16559 177.880308,335.16559 C175.580308,338.56559 172.380308,341.56559 168.380308,344.26559 C168.380308,344.36559 168.280308,344.36559 168.280308,344.36559 C168.180308,344.36559 168.180308,344.46559 168.080308,344.46559 C168.380308,345.06559 167.780308,345.26559 167.280308,345.46559 L167.280308,345.36559 C167.080308,345.46559 166.880308,345.56559 166.680308,345.76559 C166.780308,345.96559 166.780308,346.16559 166.880308,346.36559 C164.480308,347.06559 164.580308,350.06559 161.980308,349.66559 C162.080308,347.56559 163.580308,346.16559 165.480308,345.06559 C165.480308,345.06559 165.580308,344.96559 165.580308,344.96559 C165.880308,344.56559 166.180308,344.46559 166.480308,344.26559 L166.380308,344.26559 C166.180308,343.96559 166.680308,343.86559 166.880308,343.66559 L166.880308,343.86559 C167.080308,343.76559 167.280308,343.56559 167.480308,343.46559 C167.480308,343.46559 167.580308,343.36559 167.580308,343.36559 C169.780308,340.36559 172.180308,337.46559 175.880308,335.16559 C173.480308,335.26559 171.780308,332.26559 172.080308,329.76559 C172.880308,329.36559 173.380308,328.86559 173.880308,328.36559 C175.180308,328.46559 175.980308,328.66559 176.880308,328.36559 C177.780308,325.86559 182.280308,325.06559 181.180308,321.56559 C177.980308,322.36559 175.280308,323.86559 172.780308,322.36559 C170.580308,318.66559 174.180308,317.66559 175.680308,315.66559 C174.780308,312.86559 173.080308,311.76559 171.480308,310.36559 C167.180308,312.46559 163.580308,314.96559 160.080308,317.46559 C159.480308,318.56559 158.480308,319.26559 157.580308,319.86559 C157.380308,320.06559 157.080308,319.96559 156.880308,319.76559 C156.780308,319.76559 156.780308,319.66559 156.780308,319.66559 C156.780308,319.46559 156.780308,319.26559 156.980308,319.16559 L157.080308,319.16559 C157.880308,318.66559 158.680308,318.06559 159.180308,317.36559 C156.880308,315.36559 152.980308,320.06559 151.280308,317.06559 C152.380308,315.96559 153.780308,315.06559 155.180308,314.16559 C155.580308,309.56559 161.980308,308.26559 164.980308,306.86559 C165.980308,305.86559 165.780308,304.36559 166.280308,303.06559 C167.380308,302.86559 167.380308,302.26559 168.180308,301.96559 C166.880308,300.46559 165.480308,298.96559 163.380308,299.16559 C161.180308,298.06559 159.780308,294.46559 160.380308,291.96559 C159.080308,289.56559 156.180308,290.56559 153.380308,291.46559 C152.380308,292.06559 153.080308,293.56559 151.680308,293.96559 C151.580308,294.06559 151.580308,294.06559 151.580308,294.06559 C148.380308,295.86559 144.980308,297.26559 141.680308,298.56559 C138.380308,299.86559 134.980308,301.26559 131.780308,302.96559 C131.580308,303.06559 131.380308,303.06559 131.180308,302.96559 C128.380308,304.36559 125.180308,305.56559 121.980308,306.86559 L121.980308,306.76559 C120.380308,307.16559 118.980308,307.86559 117.480308,308.56559 C116.280308,309.16559 114.980308,309.76559 113.680308,310.16559 C111.780308,311.26559 109.980308,312.16559 107.680308,312.36559 C106.780308,311.96559 107.380308,311.46559 107.080308,310.66559 C106.580308,310.86559 106.180308,310.96559 105.980308,310.76559 C105.680308,310.86559 105.380308,310.96559 105.080308,311.06559 C104.880308,311.16559 104.580308,311.26559 104.380308,311.36559 C104.280308,311.46559 104.080308,311.36559 104.080308,311.26559 C104.080308,311.06559 104.180308,310.96559 104.280308,310.96559 C104.480308,310.96559 104.680308,310.86559 104.880308,310.76559 C105.280308,310.56559 105.680308,310.46559 106.180308,310.46559 L106.180308,310.36559 C106.780308,310.16559 106.680308,309.66559 107.380308,309.56559 C108.380308,311.36559 111.180308,309.36559 113.080308,309.16559 C114.380308,308.76559 115.680308,308.16559 116.880308,307.56559 C118.380308,306.86559 119.980308,306.06559 121.680308,305.66559 C121.680308,305.66559 121.780308,305.66559 121.780308,305.66559 C124.380308,303.96559 127.780308,301.66559 130.980308,301.66559 C134.180308,299.86559 137.680308,298.46559 140.980308,297.16559 C144.180308,295.86559 147.480308,294.46559 150.580308,292.86559 C150.680308,292.26559 150.480308,291.36559 149.680308,291.96559 L149.680308,291.86559 C149.280308,292.06559 148.980308,292.26559 148.580308,292.26559 L148.680308,292.36559 C147.980308,293.06559 144.580308,294.66559 143.880308,293.66559 C143.480308,291.86559 146.580308,291.46559 148.180308,291.46559 C148.280308,291.46559 148.280308,291.46559 148.380308,291.46559 C148.580308,291.46559 148.780308,291.36559 149.080308,291.26559 C148.280308,289.06559 148.480308,287.36559 148.980308,285.76559 C153.880308,284.66559 156.480308,281.16559 154.880308,277.96559 C152.680308,277.46559 148.880308,280.36559 146.980308,278.96559 C145.580308,279.86559 142.680308,281.36559 140.980308,281.16559 L140.980308,281.06559 C140.780308,281.16559 140.680308,281.16559 140.480308,281.26559 C140.180308,281.36559 139.880308,281.26559 139.780308,280.96559 C139.680308,280.66559 139.780308,280.36559 140.080308,280.26559 C140.080308,280.26559 140.180308,280.16559 140.280308,280.16559 C140.680308,279.36559 141.280308,278.96559 140.180308,278.76559 C139.980308,278.86559 139.880308,278.86559 139.680308,278.86559 L139.380308,278.86559 C139.080308,278.86559 138.880308,278.66559 138.780308,278.46559 C138.780308,278.46559 138.780308,278.36559 138.780308,278.36559 C138.780308,278.06559 138.980308,277.76559 139.280308,277.76559 L139.580308,277.76559 C139.680308,277.66559 139.880308,277.66559 140.080308,277.66559 C147.780308,277.36559 147.480308,271.26559 152.580308,268.26559 C152.080308,264.06559 150.580308,260.16559 148.880308,255.96559 C147.480308,254.86559 144.780308,255.36559 143.880308,253.66559 C142.680308,251.46559 144.380308,248.46559 146.780308,246.96559 C145.580308,244.46559 141.980308,246.96559 140.480308,245.16559 C138.080308,245.36559 135.780308,245.06559 133.480308,244.86559 C131.480308,244.66559 129.580308,244.46559 127.580308,244.56559 C127.280308,244.56559 127.080308,244.36559 126.980308,244.16559 C126.980308,244.06559 126.980308,244.06559 126.980308,243.96559 C126.980308,243.56559 127.280308,243.26559 127.580308,243.26559 C129.680308,243.16559 131.680308,243.36559 133.680308,243.56559 C135.980308,243.76559 138.280308,243.96559 140.580308,243.76559 C141.280308,243.46559 142.080308,243.26559 142.780308,242.96559 C142.980308,243.26559 143.080308,243.66559 143.180308,243.96559 C144.880308,242.26559 146.280308,245.16559 147.580308,243.56559 C146.480308,242.96559 143.880308,242.06559 141.480308,242.36559 C139.380308,240.46559 138.780308,238.66559 137.680308,235.06559 C137.180308,234.06559 135.880308,234.86559 135.280308,234.76559 C135.180308,234.66559 135.180308,234.06559 135.080308,234.06559 C134.080308,233.96559 133.580308,234.76559 132.580308,234.56559 C130.480308,234.06559 127.880308,231.96559 124.680308,232.46559 C124.080308,231.56559 124.880308,231.26559 124.280308,230.36559 C127.880308,229.26559 129.480308,232.36559 133.180308,230.96559 C133.380308,231.26559 133.480308,231.66559 133.580308,231.96559 C134.280308,231.76559 134.880308,231.46559 135.580308,231.26559 C137.080308,234.16559 141.080308,231.66559 144.180308,231.16559 C145.180308,228.86559 145.080308,224.66559 148.480308,224.36559 C149.280308,222.46559 151.180308,221.16559 150.180308,218.46559 C149.280308,218.16559 148.080308,218.66559 147.580308,217.46559 C143.880308,218.46559 142.280308,214.56559 138.380308,215.86559 C136.480308,214.56559 134.580308,213.36559 132.180308,213.16559 C131.580308,212.26559 131.980308,211.86559 131.780308,211.16559 C130.680308,210.56559 129.580308,210.26559 128.280308,209.86559 C127.080308,209.56559 125.880308,209.16559 124.680308,208.56559 C124.580308,208.46559 124.480308,208.36559 124.480308,208.26559 C124.380308,208.16559 124.380308,207.96559 124.480308,207.86559 C124.580308,207.66559 124.880308,207.56559 125.080308,207.66559 C126.080308,208.26559 127.280308,208.66559 128.480308,208.96559 C129.880308,209.36559 131.280308,209.76559 132.580308,210.56559 L132.680308,210.36559 C132.180308,208.76559 135.380308,208.86559 134.980308,207.26559 C133.780308,205.46559 131.780308,205.46559 131.080308,202.66559 C132.380308,202.46559 133.880308,202.36559 134.780308,201.36559 C135.380308,201.66559 135.780308,202.76559 135.480308,203.36559 C136.180308,203.76559 137.180308,203.36559 137.880308,203.66559 C140.780308,206.96559 145.280308,206.76559 148.980308,208.36559 C150.080308,207.76559 150.980308,206.96559 152.080308,207.66559 C152.380308,207.46559 152.080308,206.96559 152.480308,206.76559 C156.480308,205.96559 155.180308,202.66559 154.880308,199.86559 C153.980308,199.56559 152.980308,199.56559 152.480308,198.46559 C153.080308,197.36559 154.780308,197.36559 155.380308,198.16559 C156.980308,197.46559 155.080308,194.26559 154.380308,193.26559 C155.180308,191.76559 153.980308,190.36559 153.980308,188.86559 C153.980308,187.36559 155.380308,186.16559 154.780308,184.76559 C155.180308,184.56559 155.680308,184.46559 156.080308,184.26559 C156.280308,181.26559 160.580308,180.06559 162.880308,183.26559 C162.980308,181.96559 163.680308,182.86559 164.680308,182.96559 C166.480308,181.06559 167.980308,178.26559 166.180308,175.76559 C165.980308,175.76559 165.780308,175.76559 165.680308,175.56559 C164.180308,173.96559 162.480308,172.66559 160.780308,171.36559 C159.180308,170.16559 157.580308,168.86559 156.180308,167.46559 C155.480308,167.46559 154.780308,167.26559 153.880308,167.66559 C153.580308,166.46559 152.480308,166.76559 152.080308,165.66559 C149.280308,165.06559 147.380308,162.56559 144.680308,161.86559 C144.080308,159.66559 141.280308,159.66559 139.680308,158.36559 C138.880308,157.76559 138.380308,156.66559 137.680308,156.06559 C136.480308,155.06559 133.980308,154.56559 134.480308,152.36559 C135.480308,152.06559 135.980308,152.26559 136.780308,153.46559 C137.680308,152.86559 137.380308,151.96559 138.480308,152.86559 C138.580308,152.86559 138.680308,152.86559 138.680308,152.76559 C137.980308,151.86559 137.080308,151.16559 136.080308,150.46559 C135.180308,149.86559 134.280308,149.16559 133.580308,148.36559 C133.180308,148.26559 132.780308,148.36559 132.380308,148.56559 C132.180308,147.86559 131.880308,147.06559 131.580308,146.26559 C132.880308,145.86559 133.780308,146.26559 134.380308,147.16559 C134.480308,147.26559 134.580308,147.26559 134.680308,147.36559 C135.280308,148.06559 136.080308,148.66559 136.980308,149.26559 C137.980308,149.96559 139.080308,150.76559 139.880308,151.76559 C141.780308,152.26559 141.480308,154.36559 143.780308,153.96559 C144.480308,156.16559 146.080308,156.66559 147.580308,157.16559 C148.580308,158.76559 149.880308,160.06559 151.680308,160.16559 C152.080308,162.96559 155.580308,163.36559 156.880308,166.16559 C156.980308,166.26559 157.080308,166.26559 157.180308,166.36559 C158.580308,167.76559 160.080308,168.96559 161.780308,170.26559 C163.480308,171.56559 165.180308,172.86559 166.680308,174.46559 C167.480308,174.26559 167.880308,174.96559 168.880308,174.36559 C168.480308,175.26559 168.280308,174.86559 168.980308,175.86559 C169.780308,174.16559 170.980308,170.46559 168.980308,167.56559 C169.980308,165.36559 174.280308,161.16559 176.880308,164.36559 C177.280308,163.76559 177.180308,163.06559 178.180308,162.76559 C177.780308,162.16559 177.080308,162.16559 176.880308,161.36559 L176.880308,161.26559 C176.680308,161.06559 176.380308,160.86559 176.180308,160.56559 C176.080308,160.46559 175.980308,160.26559 175.780308,160.16559 L175.780308,160.26559 C173.880308,159.36559 172.480308,157.46559 171.280308,155.06559 C172.680308,154.36559 172.280308,154.56559 173.480308,153.86559 C173.280308,153.26559 172.880308,153.36559 172.680308,152.66559 C171.180308,152.66559 173.080308,154.16559 171.680308,154.16559 C169.480308,152.56559 167.580308,150.36559 165.680308,148.06559 C166.080308,143.36559 160.880308,142.86559 159.480308,138.26559 C160.780308,136.86559 162.080308,138.86559 162.880308,140.46559 C165.480308,142.26559 167.980308,144.06559 169.680308,146.66559 C170.180308,147.26559 170.980308,147.06559 171.480308,147.56559 C170.780308,143.16559 167.280308,140.66559 166.280308,136.26559 C166.680308,136.16559 166.780308,135.96559 166.780308,135.66559 C168.080308,134.86559 168.480308,136.06559 169.280308,136.26559 C168.580308,137.36559 169.980308,137.96559 169.680308,139.46559 C169.880308,139.86559 170.380308,139.56559 170.780308,139.46559 C170.680308,142.76559 175.280308,147.26559 173.880308,150.06559 C174.580308,152.66559 175.480308,152.06559 176.580308,154.36559 C175.480308,154.96559 174.980308,155.26559 174.880308,156.86559 C175.880308,156.76559 176.180308,158.26559 176.580308,159.46559 C176.680308,159.56559 176.880308,159.76559 176.980308,159.86559 C177.080308,159.96559 177.180308,160.06559 177.280308,160.16559 C178.580308,159.96559 179.180308,161.16559 180.080308,161.76559 C181.280308,161.16559 179.880308,160.86559 180.080308,159.56559 C179.980308,159.46559 179.880308,159.36559 179.780308,159.16559 C178.880308,158.36559 177.380308,157.06559 177.580308,155.96559 C178.980308,155.66559 180.780308,157.26559 180.480308,158.66559 C180.480308,158.66559 180.580308,158.66559 180.580308,158.76559 C180.680308,158.86559 180.880308,159.06559 180.980308,159.26559 L181.080308,159.16559 C182.980308,158.46559 183.180308,159.16559 183.980308,157.76559 C181.480308,154.46559 177.380308,150.46559 177.380308,145.76559 C178.280308,144.76559 178.280308,145.86559 178.780308,146.36559 C179.780308,147.16559 182.280308,149.06559 183.180308,151.16559 C184.180308,151.96559 186.180308,153.06559 185.980308,154.66559 C186.580308,153.26559 187.680308,152.66559 187.380308,151.16559 C187.880308,151.16559 187.380308,151.46559 187.580308,151.86559 C189.480308,149.26559 193.280308,145.56559 196.680308,147.86559 C199.880308,146.86559 199.080308,145.06559 198.080308,142.46559 C196.780308,138.96559 196.080308,133.16559 195.080308,129.96559 C196.280308,129.26559 196.680308,128.56559 197.680308,128.66559 C199.080308,130.86559 200.480308,137.16559 201.880308,141.46559 C200.080308,139.76559 201.380308,143.86559 201.380308,144.26559 C201.380308,144.26559 200.580308,144.16559 200.580308,144.16559 C200.980308,145.76559 202.780308,146.06559 202.680308,147.96559 C204.080308,147.66559 205.180308,147.66559 206.080308,146.06559 L205.880308,145.96559 C205.780308,145.96559 205.680308,145.86559 205.680308,145.76559 C205.680308,145.66559 205.680308,145.56559 205.680308,145.46559 C205.780308,145.26559 205.980308,145.16559 206.180308,145.26559 L206.680308,145.56559 L206.680308,145.36559 C207.580308,143.46559 208.380308,141.36559 208.080308,138.86559 C211.980308,136.06559 215.680308,137.06559 218.680308,139.96559 C219.180308,139.76559 218.880308,138.36559 219.380308,139.76559 C220.980308,139.26559 222.380308,137.16559 224.280308,137.66559 C224.780308,137.06559 225.380308,135.56559 226.680308,136.06559 C226.480308,133.96559 228.380308,130.86559 225.980308,126.86559 C226.780308,126.26559 226.280308,125.16559 227.480308,124.76559 C229.880308,125.26559 231.680308,127.36559 234.880308,127.36559 C236.480308,129.36559 236.480308,131.96559 238.080308,132.96559 C238.680308,133.36559 239.680308,132.46559 240.180308,133.66559 C242.780308,132.16559 245.180308,128.86559 247.180308,128.86559 C247.980308,128.66559 247.180308,127.76559 247.780308,127.46559 C248.680308,127.06559 249.580308,126.76559 250.480308,126.46559 C251.280308,126.96559 252.880308,128.76559 252.480308,129.86559 C254.780308,130.26559 255.580308,130.16559 257.880308,130.16559 C257.480308,129.96559 257.980308,128.86559 257.180308,127.06559 C258.080308,124.76559 256.780308,120.06559 256.180308,117.96559 C257.580308,113.96559 254.980308,107.96559 255.980308,103.76559 C255.580308,102.36559 254.880308,100.56559 255.080308,99.1655896 C255.080308,99.0655896 255.780308,99.0655896 255.780308,98.9655896 C255.780308,96.1655896 254.880308,93.1655896 254.580308,90.3655896 C254.480308,89.2655896 254.080308,87.7655896 254.080308,86.7655896 C253.980308,86.5655896 254.580308,86.2655896 254.580308,86.1655896 C254.380308,84.1655896 253.380308,82.2655896 253.980308,80.3655896 C254.980308,80.3655896 254.580308,79.6655896 255.480308,79.4655896 C255.680308,80.0655896 255.980308,80.2655896 256.480308,80.2655896 C255.580308,85.1655896 257.080308,91.2655896 257.980308,97.0655896 C258.380308,96.8655896 258.580308,96.9655896 258.780308,97.1655896 C259.980308,95.5655896 258.180308,92.4655896 259.480308,90.8655896 C258.180308,87.7655896 260.280308,86.2655896 258.980308,83.1655896 C260.380308,81.2655896 259.380308,78.3655896 260.280308,76.2655896 C259.380308,73.8655896 259.580308,70.9655896 261.680308,70.8655896 C262.080308,72.5655896 262.180308,74.0655896 261.380308,75.1655896 C261.780308,78.9655896 261.880308,83.5655896 261.480308,86.8655896 C261.480308,86.9655896 260.880308,86.9655896 260.780308,87.0655896 C260.980308,87.7655896 261.280308,88.5655896 261.580308,89.3655896 C261.380308,89.7655896 260.680308,89.8655896 260.780308,90.3655896 C261.280308,92.4655896 262.980308,91.4655896 262.780308,93.7655896 C263.580308,92.4655896 262.880308,90.4655896 264.680308,89.6655896 C265.080308,89.8655896 265.180308,90.5655896 265.680308,90.4655896 C264.680308,90.6655896 265.980308,92.1655896 265.580308,94.2655896 C265.480308,94.5655896 264.780308,94.9655896 264.780308,95.2655896 C264.780308,95.4655896 264.680308,97.9655896 264.780308,98.2655896 C264.780308,98.3655896 266.380308,98.9655896 264.880308,98.5655896 C264.080308,101.96559 265.280308,105.96559 263.880308,108.36559 C264.980308,110.76559 262.880308,113.26559 263.980308,115.86559 C263.280308,117.46559 262.680308,119.16559 262.880308,121.16559 C263.180308,121.56559 263.580308,121.86559 263.980308,122.26559 C263.680308,121.36559 265.080308,120.86559 265.380308,119.86559 C265.380308,119.76559 264.680308,119.56559 264.780308,119.36559 C265.380308,118.36559 265.180308,116.16559 265.080308,113.96559 C266.280308,113.76559 266.680308,111.76559 265.680308,111.46559 C265.680308,110.46559 267.080308,111.06559 267.680308,110.76559 C268.280308,113.56559 268.480308,116.26559 266.980308,118.16559 C268.180308,118.76559 267.580308,119.96559 268.380308,121.06559 C269.680308,120.36559 269.480308,117.86559 271.080308,118.16559 C269.580308,116.36559 272.280308,114.36559 271.980308,112.16559 C272.580308,110.86559 274.080308,110.06559 273.480308,108.96559 C274.480308,108.56559 276.080308,108.96559 275.580308,108.56559 C277.280308,107.96559 277.480308,111.26559 277.880308,112.96559 C277.580308,113.46559 277.380308,113.26559 276.880308,113.26559 C277.080308,116.16559 275.780308,119.36559 276.080308,121.46559 C274.980308,122.16559 274.580308,123.26559 274.880308,124.56559 C274.380308,124.86559 274.180308,124.46559 273.780308,124.56559 C274.280308,128.26559 271.780308,129.46559 272.780308,133.26559 C273.480308,132.76559 274.280308,134.46559 275.680308,134.06559 L275.680308,134.26559 L275.780308,134.06559 L275.880308,134.06559 C276.680308,133.76559 277.380308,134.06559 278.080308,134.36559 L277.980308,134.26559 C279.080308,133.86559 279.580308,134.36559 280.780308,133.66559 C281.880308,132.86559 280.780308,130.86559 282.180308,130.16559 C281.980308,129.56559 281.780308,129.06559 281.580308,128.46559 C285.580308,126.06559 288.380308,127.56559 290.780308,127.76559 C292.080308,126.66559 291.280308,126.16559 293.280308,125.36559 C294.080308,122.56559 295.380308,119.86559 295.380308,117.46559 C296.880308,116.76559 296.980308,115.26559 297.880308,112.76559 C298.380308,111.26559 297.580308,108.36559 300.080308,107.46559 C299.080308,106.56559 300.780308,105.66559 299.780308,105.66559 C301.580308,103.36559 301.680308,100.26559 303.380308,97.9655896 C303.080308,97.2655896 303.380308,96.9655896 303.280308,96.4655896 C304.080308,96.1655896 305.180308,95.6655896 305.480308,96.4655896 C305.880308,97.3655896 305.080308,97.5655896 304.480308,97.9655896 C304.980308,100.96559 302.280308,102.36559 302.880308,106.06559 C302.580308,106.26559 302.180308,106.36559 301.880308,106.46559 C302.380308,109.56559 299.380308,111.06559 300.180308,114.26559 C298.680308,113.96559 299.980308,116.76559 298.480308,116.76559 C299.380308,119.96559 296.680308,121.46559 297.580308,124.66559 C297.280308,124.86559 296.880308,124.96559 296.580308,125.06559 C296.880308,127.26559 295.280308,128.66559 294.380308,130.36559 C295.180308,131.06559 295.480308,132.66559 296.680308,132.56559 C297.680308,131.66559 297.280308,130.06559 299.380308,129.66559 C299.080308,130.36559 299.880308,131.06559 299.780308,131.76559 C299.780308,131.46559 298.880308,131.86559 298.680308,132.86559 C298.480308,133.76559 299.380308,136.46559 298.280308,136.06559 C298.680308,136.96559 300.080308,137.06559 299.480308,138.26559 C300.180308,137.96559 300.480308,138.26559 300.980308,138.16559 C299.880308,138.66559 301.180308,138.56559 301.680308,140.16559 L301.580308,140.26559 C302.180308,140.46559 302.680308,140.96559 303.080308,141.36559 C303.080308,141.46559 303.180308,141.46559 303.180308,141.56559 L303.180308,141.46559 C304.180308,140.66559 304.780308,143.86559 305.080308,142.66559 C305.280308,143.26559 305.880308,143.36559 306.480308,144.46559 C306.880308,143.26559 307.880308,143.96559 309.280308,143.86559 C309.480308,143.26559 309.480308,142.66559 310.680308,142.56559 C311.080308,140.06559 312.680308,138.06559 314.480308,136.26559 C313.480308,133.96559 314.080308,133.56559 313.780308,131.26559 C315.080308,130.46559 316.780308,130.06559 316.780308,131.26559 C318.480308,129.46559 317.580308,129.26559 320.580308,129.16559 C320.080308,131.56559 319.580308,132.46559 319.180308,134.56559 C315.680308,134.96559 316.080308,138.86559 313.780308,140.66559 C315.080308,142.06559 314.280308,143.26559 316.580308,143.06559 C317.880308,141.66559 318.780308,140.16559 319.080308,138.36559 C319.980308,137.76559 319.980308,138.76559 320.680308,138.56559 C321.480308,137.06559 321.180308,134.66559 324.780308,135.26559 C325.680308,133.56559 328.080308,132.56559 327.480308,130.16559 C329.580308,129.46559 329.980308,126.26559 332.280308,125.76559 C332.580308,124.16559 334.680308,123.26559 334.380308,121.26559 C335.880308,120.16559 337.380308,119.26559 338.480308,120.16559 C339.580308,118.36559 341.480308,117.66559 342.880308,115.56559 C342.780308,115.26559 342.380308,115.46559 342.080308,115.46559 C342.280308,113.86559 346.180308,112.86559 345.780308,111.06559 C346.280308,110.86559 348.180308,109.96559 347.380308,108.26559 C349.280308,108.36559 350.480308,106.36559 350.080308,105.36559 C351.580308,103.96559 353.280308,102.66559 353.180308,100.46559 C354.480308,99.8655896 355.680308,99.5655896 356.480308,100.06559 C355.180308,101.06559 357.280308,102.26559 355.980308,101.76559 C353.680308,105.36559 349.780308,108.16559 348.780308,112.26559 C346.380308,112.86559 345.180308,116.36559 343.280308,118.06559 C342.880308,118.86559 343.080308,119.96559 342.780308,120.86559 C340.780308,119.76559 340.380308,123.46559 340.080308,123.76559 C339.580308,124.46559 338.880308,123.76559 339.480308,125.16559 C337.680308,125.76559 335.680308,128.26559 333.980308,129.76559 C333.280308,130.16559 332.780308,129.86559 332.580308,129.16559 C330.380308,131.26559 327.580308,133.06559 328.980308,136.86559 C326.480308,139.66559 329.780308,140.16559 329.680308,144.16559 C327.880308,144.46559 328.080308,146.96559 326.780308,146.66559 C327.080308,148.66559 326.680308,149.66559 327.180308,151.06559 C325.480308,151.76559 326.580308,153.06559 325.280308,153.26559 C324.980308,155.16559 326.580308,156.16559 325.780308,156.86559 C326.980308,157.46559 328.180308,157.36559 329.080308,156.46559 L329.280308,156.46559 C329.080308,156.36559 328.980308,156.26559 328.880308,156.06559 C328.880308,155.96559 328.880308,155.86559 328.980308,155.76559 C329.080308,155.76559 329.180308,155.76559 329.280308,155.86559 C329.280308,155.96559 329.280308,155.96559 329.380308,156.06559 C331.380308,155.36559 330.980308,152.66559 333.180308,152.46559 C332.880308,150.86559 333.180308,146.66559 334.880308,147.76559 C336.480308,145.56559 338.180308,142.16559 340.480308,141.26559 C339.980308,139.96559 341.780308,139.76559 341.280308,138.36559 C343.980308,137.26559 345.080308,134.16559 347.780308,132.26559 C347.880308,132.26559 347.880308,132.16559 347.880308,132.16559 C347.980308,131.96559 348.080308,131.76559 348.280308,131.66559 C347.380308,130.36559 349.980308,129.76559 350.680308,130.06559 C350.680308,131.06559 350.480308,131.96559 349.180308,132.46559 C349.080308,132.56559 348.980308,132.66559 348.880308,132.76559 C347.680308,136.26559 343.280308,138.26559 342.080308,141.76559 C341.780308,141.96559 341.380308,142.06559 341.080308,142.16559 C339.880308,144.06559 339.180308,146.26559 337.080308,147.76559 C337.680308,148.66559 337.680308,148.66559 337.780308,149.76559 C336.480308,150.36559 337.080308,151.76559 335.280308,152.16559 C335.580308,152.36559 336.380308,152.26559 335.880308,152.66559 L335.680308,152.76559 C335.880308,152.86559 336.080308,152.86559 336.180308,152.86559 C336.580308,152.86559 336.880308,152.96559 337.180308,153.16559 L337.180308,152.96559 C337.480308,152.46559 337.880308,153.26559 339.280308,152.56559 C339.680308,153.56559 341.080308,153.46559 340.680308,154.36559 C343.980308,153.96559 344.680308,150.16559 347.280308,148.56559 C348.280308,146.46559 348.380308,143.86559 350.980308,144.16559 C350.280308,145.26559 351.080308,145.26559 351.180308,146.76559 C348.880308,150.16559 343.680308,154.96559 342.880308,157.26559 C342.380308,157.96559 342.580308,159.06559 342.680308,159.96559 C340.480308,160.76559 341.480308,162.86559 341.080308,163.96559 C340.680308,165.06559 339.780308,165.26559 339.580308,166.06559 C339.580308,166.66559 340.580308,167.66559 339.880308,167.86559 C341.580308,168.86559 341.380308,169.86559 341.880308,171.26559 C342.080308,171.66559 342.580308,171.36559 342.980308,171.26559 C343.680308,174.56559 345.480308,176.26559 344.980308,178.86559 C345.180308,179.26559 345.680308,178.96559 346.080308,178.86559 C346.080308,179.96559 346.080308,179.96559 346.780308,180.86559 C346.180308,181.36559 346.080308,180.36559 345.580308,180.56559 C346.380308,181.56559 347.680308,182.36559 349.180308,182.26559 C351.380308,182.06559 353.980308,179.66559 355.880308,179.86559 C356.180308,179.86559 356.080308,180.36559 356.480308,180.36559 C358.680308,180.26559 360.280308,183.56559 360.080308,186.26559 C355.980308,187.56559 356.480308,190.86559 354.180308,192.96559 C354.280308,193.26559 354.680308,193.06559 354.980308,193.06559 C353.280308,195.76559 354.780308,198.46559 355.480308,201.96559 C355.580308,202.86559 356.480308,202.36559 356.880308,202.56559 C357.680308,203.66559 356.380308,203.76559 356.880308,204.76559 C358.180308,204.96559 359.080308,205.66559 359.880308,206.76559 C362.680308,204.66559 365.580308,208.16559 367.880308,206.96559 C368.980308,209.66559 368.680308,211.16559 368.880308,212.96559 C368.580308,213.16559 368.180308,213.26559 367.880308,213.36559 C368.280308,214.56559 365.680308,216.66559 363.780308,215.56559 C363.680308,215.16559 364.280308,215.06559 364.680308,214.86559 C362.480308,214.56559 362.380308,215.96559 360.880308,216.96559 C361.080308,218.06559 361.680308,218.46559 362.080308,219.16559 C361.080308,218.76559 361.680308,219.36559 361.180308,219.86559 C361.680308,221.46559 363.280308,221.46559 364.080308,223.76559 C365.080308,223.06559 367.080308,223.16559 367.080308,222.66559 C367.680308,222.76559 368.080308,223.26559 368.380308,224.06559 C370.080308,222.56559 371.080308,224.16559 373.280308,221.96559 C373.780308,221.86559 373.880308,222.66559 374.080308,223.16559 C374.280308,222.86559 374.980308,222.66559 374.880308,222.16559 C376.080308,222.76559 376.780308,224.66559 378.280308,223.16559 C379.380308,224.26559 379.580308,224.26559 380.880308,225.26559 L380.880308,225.46559 C380.980308,225.26559 381.180308,225.16559 381.280308,225.06559 C381.380308,224.96559 381.480308,224.96559 381.580308,225.06559 C381.680308,225.16559 381.680308,225.26559 381.580308,225.36559 C381.480308,225.46559 381.480308,225.46559 381.380308,225.56559 C381.680308,226.16559 381.480308,226.46559 381.480308,226.86559 C383.180308,226.46559 384.780308,226.16559 386.580308,226.36559 L386.580308,226.26559 C389.280308,225.36559 392.180308,225.56559 394.380308,223.86559 C394.980308,224.06559 395.280308,225.16559 395.580308,226.06559 C394.080308,227.16559 392.480308,226.76559 391.280308,226.86559 C389.680308,227.06559 387.080308,228.26559 386.280308,227.46559 C384.780308,227.36559 383.280308,227.66559 381.680308,228.06559 L381.480308,228.06559 L381.580308,228.16559 C378.980308,229.26559 377.980308,229.36559 376.180308,230.86559 C373.180308,230.86559 368.780308,230.76559 366.180308,233.36559 C366.380308,234.26559 366.080308,234.86559 366.680308,235.86559 C371.380308,236.36559 377.280308,234.36559 381.880308,235.26559 C382.780308,235.46559 383.480308,235.56559 384.180308,235.16559 C384.480308,234.96559 384.780308,235.06559 384.980308,235.36559 C385.180308,235.66559 385.080308,235.96559 384.780308,236.16559 C383.680308,236.76559 382.680308,236.66559 381.680308,236.46559 C375.880308,237.76559 371.080308,236.96559 365.080308,238.76559 C364.780308,240.46559 363.280308,241.46559 361.880308,242.56559 C363.180308,244.96559 361.280308,245.56559 361.580308,247.96559 C362.380308,248.86559 363.680308,248.66559 364.480308,249.56559 C364.680308,252.86559 366.580308,253.76559 366.080308,256.16559 C365.980308,256.76559 363.980308,258.56559 363.380308,259.06559 C363.380308,258.96559 362.680308,259.46559 362.680308,259.26559 C362.280308,260.76559 363.780308,263.56559 366.080308,264.46559 C366.180308,265.56559 365.780308,264.96559 364.880308,265.26559 C367.880308,267.26559 372.480308,266.06559 373.680308,271.86559 C372.480308,275.56559 367.080308,275.66559 364.380308,276.36559 C363.580308,276.66559 364.280308,277.76559 363.980308,278.36559 C362.080308,279.46559 361.780308,279.96559 358.980308,280.16559 C361.280308,281.26559 362.880308,282.06559 365.180308,283.86559 C367.980308,284.26559 370.180308,284.96559 372.080308,285.96559 Z M146.380308,213.36559 C146.980308,214.76559 147.880308,215.66559 149.680308,215.56559 C149.080308,212.06559 145.480308,212.06559 144.580308,213.96559 C144.880308,213.86559 145.080308,213.86559 145.080308,214.16559 C145.180308,214.36559 145.280308,214.56559 145.580308,214.36559 C145.580308,213.96559 145.780308,213.56559 146.380308,213.36559 Z M143.980308,278.66559 C141.880308,278.36559 143.080308,280.26559 143.980308,278.66559 Z M242.180308,360.96559 C242.880308,361.86559 242.480308,360.06559 242.880308,359.96559 L242.980308,359.96559 C242.780308,359.86559 242.680308,359.66559 242.580308,359.56559 C242.580308,359.46559 242.480308,359.36559 242.380308,359.26559 C242.380308,359.36559 242.380308,359.46559 242.380308,359.66559 C242.380308,360.06559 242.380308,360.46559 242.180308,360.96559 Z M243.280308,359.26559 C243.880308,357.56559 245.080308,354.76559 243.680308,352.86559 C243.580308,353.26559 243.580308,353.56559 243.280308,353.76559 C243.280308,354.66559 243.180308,355.36559 242.980308,356.16559 C242.780308,356.86559 242.680308,357.46559 242.680308,358.16559 C242.780308,358.36559 242.780308,358.46559 242.780308,358.66559 C242.880308,358.76559 243.080308,358.96559 243.180308,359.06559 C243.180308,359.16559 243.280308,359.26559 243.280308,359.26559 Z M276.280308,135.06559 C276.580308,135.76559 277.280308,135.56559 277.880308,135.46559 L277.980308,135.46559 C277.480308,135.16559 276.880308,134.96559 276.280308,135.06559 Z M301.480308,142.36559 C301.780308,142.46559 302.580308,143.86559 302.380308,142.76559 C302.080308,142.46559 301.780308,142.16559 301.480308,141.96559 C301.380308,142.06559 301.480308,142.26559 301.480308,142.36559 Z M315.880308,150.76559 C316.280308,150.66559 316.780308,150.46559 317.180308,150.26559 C316.880308,149.66559 317.080308,149.26559 317.080308,148.86559 C316.980308,148.86559 316.780308,148.76559 316.680308,148.76559 L316.780308,148.96559 C317.280308,149.96559 315.480308,148.46559 315.880308,149.66559 C317.580308,149.16559 315.980308,150.36559 315.880308,150.76559 Z M317.280308,148.46559 C317.480308,148.06559 318.080308,147.86559 318.080308,147.36559 C317.480308,147.66559 317.080308,147.96559 316.980308,148.46559 C317.080308,148.46559 317.280308,148.56559 317.380308,148.56559 L317.280308,148.46559 Z M324.380308,146.26559 C323.180308,144.36559 326.780308,144.76559 325.880308,142.96559 C324.980308,144.26559 325.280308,142.56559 324.480308,142.36559 C323.180308,142.06559 319.480308,143.66559 320.980308,145.16559 C319.880308,145.96559 319.180308,146.36559 318.780308,146.56559 L318.880308,146.66559 C320.180308,146.86559 320.380308,145.76559 319.880308,147.46559 C320.980308,145.66559 322.280308,147.06559 324.380308,146.26559 Z M337.480308,322.96559 C338.480308,324.16559 337.080308,320.26559 337.080308,321.96559 L336.980308,321.96559 C337.280308,322.26559 337.380308,322.66559 337.480308,322.96559 Z M336.180308,153.66559 C336.080308,154.86559 333.980308,152.86559 334.280308,154.66559 C334.680308,154.46559 335.180308,154.26559 335.380308,154.66559 C335.080308,154.76559 335.180308,154.96559 335.180308,155.16559 C335.980308,154.76559 336.480308,154.26559 336.980308,153.76559 L337.080308,153.76559 C336.880308,153.76559 336.680308,153.66559 336.480308,153.66559 C336.380308,153.66559 336.280308,153.56559 336.180308,153.66559 Z M335.080308,316.26559 C335.780308,315.66559 334.380308,314.76559 333.780308,314.86559 C333.980308,315.36559 334.180308,315.96559 334.380308,316.46559 C334.580308,316.36559 334.780308,316.36559 335.080308,316.36559 L335.080308,316.26559 Z M334.480308,317.26559 C334.180308,317.66559 334.980308,317.66559 335.380308,317.96559 C335.480308,318.06559 335.580308,318.16559 335.680308,318.26559 C335.680308,318.16559 335.580308,318.06559 335.380308,317.96559 C335.180308,317.66559 334.980308,317.46559 334.980308,317.26559 C334.880308,317.16559 334.680308,317.26559 334.480308,317.26559 Z M336.380308,322.36559 C334.580308,321.26559 334.780308,322.26559 336.580308,322.76559 C336.480308,322.66559 336.480308,322.46559 336.380308,322.36559 Z M336.180308,332.86559 C336.580308,333.56559 336.980308,334.16559 337.780308,334.16559 L337.780308,334.36559 C337.880308,334.26559 337.980308,334.16559 338.080308,334.06559 C337.380308,333.66559 336.980308,332.86559 336.180308,332.86559 Z M348.880308,321.56559 C348.880308,321.56559 348.780308,321.66559 348.580308,321.66559 C348.780308,321.86559 348.980308,322.06559 349.280308,322.06559 C349.280308,321.96559 349.280308,321.86559 349.180308,321.76559 C349.080308,321.66559 348.980308,321.56559 348.880308,321.56559 Z M366.880308,265.16559 C367.780308,265.16559 367.880308,266.86559 369.180308,266.26559 C368.880308,265.06559 366.980308,264.56559 366.880308,265.16559 Z M291.580308,112.76559 C290.480308,110.96559 291.880308,108.86559 290.980308,108.06559 C293.280308,106.66559 291.080308,102.06559 294.480308,99.9655896 C295.480308,101.06559 295.880308,103.76559 294.580308,103.36559 C294.880308,105.06559 293.480308,105.96559 294.380308,107.96559 C294.080308,108.46559 293.280308,108.76559 292.980308,109.26559 C293.980308,110.16559 293.280308,110.96559 293.280308,112.16559 C292.680308,112.36559 292.180308,112.56559 291.580308,112.76559 Z M245.380308,104.86559 C244.380308,104.36559 243.980308,101.16559 244.280308,99.5655896 C250.480308,94.4655896 254.980308,104.86559 246.280308,105.26559 C246.380308,104.46559 245.180308,103.86559 245.380308,104.86559 Z M104.680308,152.96559 L105.080308,152.46559 L104.680308,151.86559 C105.580308,151.36559 106.380308,151.26559 106.880308,151.76559 C107.680308,153.26559 105.480308,153.06559 104.680308,152.96559 Z M171.580308,367.96559 C172.380308,367.46559 172.880308,366.76559 173.080308,365.86559 C172.280308,366.46559 171.780308,367.06559 171.580308,367.96559 Z M456.380308,224.96559 C456.680308,224.96559 456.980308,225.16559 457.080308,225.46559 C457.080308,225.86559 456.880308,226.16559 456.580308,226.16559 C454.080308,226.56559 452.080308,226.76559 449.880308,226.76559 C449.580308,226.76559 449.380308,226.56559 449.280308,226.36559 C449.280308,226.26559 449.280308,226.26559 449.280308,226.16559 C449.280308,225.86559 449.580308,225.56559 449.880308,225.56559 C451.980308,225.56559 453.980308,225.36559 456.380308,224.96559 Z M439.280308,257.16559 C439.580308,257.26559 439.780308,257.46559 439.680308,257.76559 C439.680308,258.06559 439.380308,258.26559 439.080308,258.16559 C438.980308,258.06559 438.780308,258.06559 438.680308,258.06559 C438.480308,258.06559 438.280308,258.06559 438.080308,257.96559 C437.880308,257.96559 437.780308,257.86559 437.680308,257.66559 C437.680308,257.56559 437.680308,257.46559 437.680308,257.36559 C437.680308,257.06559 437.980308,256.86559 438.280308,256.96559 C438.480308,257.06559 438.580308,257.06559 438.780308,257.06559 C438.980308,257.06559 439.080308,257.16559 439.280308,257.16559 Z M356.380308,110.56559 C356.880308,110.36559 357.080308,109.86559 357.280308,109.26559 L357.280308,109.16559 L357.080308,109.16559 C357.080308,108.26559 357.780308,107.66559 359.080308,107.36559 C359.180308,107.66559 359.280308,108.06559 359.380308,108.36559 C358.880308,108.76559 358.880308,109.46559 357.780308,109.66559 C357.680308,110.26559 357.380308,110.86559 356.680308,111.16559 C356.480308,111.26559 356.280308,111.16559 356.180308,110.96559 C356.080308,110.86559 356.180308,110.66559 356.380308,110.56559 Z M370.680308,383.46559 C371.280308,384.06559 371.780308,384.76559 372.180308,385.66559 C372.380308,385.76559 372.380308,386.06559 372.180308,386.26559 C371.980308,386.36559 371.680308,386.36559 371.480308,386.16559 C370.980308,385.56559 370.380308,384.86559 369.880308,384.16559 C368.580308,382.46559 367.280308,380.86559 365.780308,379.46559 L365.680308,379.46559 C365.480308,379.46559 365.280308,379.36559 365.180308,379.16559 C365.180308,379.06559 365.180308,379.06559 365.180308,379.06559 C365.180308,378.86559 365.380308,378.56559 365.580308,378.56559 L366.080308,378.46559 L366.280308,378.56559 C367.980308,380.06559 369.380308,381.76559 370.680308,383.46559 Z M332.480308,339.66559 C334.180308,341.76559 335.880308,343.76559 337.480308,345.96559 C337.680308,346.26559 337.680308,346.66559 337.380308,346.86559 C337.080308,347.06559 336.680308,347.06559 336.480308,346.76559 C334.780308,344.66559 333.180308,342.56559 331.480308,340.56559 C329.480308,338.06559 327.380308,335.56559 325.380308,332.96559 C325.380308,332.86559 325.280308,332.86559 325.280308,332.76559 C325.180308,332.56559 325.280308,332.26559 325.480308,332.06559 C325.780308,331.86559 326.180308,331.86559 326.380308,332.16559 C328.380308,334.66559 330.480308,337.16559 332.480308,339.66559 Z M316.980308,368.76559 C316.680308,368.86559 316.380308,368.66559 316.280308,368.36559 C315.980308,367.36559 315.380308,366.56559 314.880308,365.66559 C314.380308,364.76559 313.880308,363.86559 313.480308,362.86559 C313.380308,362.86559 313.380308,362.76559 313.380308,362.76559 C313.280308,362.46559 313.380308,362.16559 313.680308,362.06559 C313.980308,361.96559 314.180308,362.06559 314.380308,362.36559 C314.680308,363.36559 315.280308,364.16559 315.780308,365.06559 C316.280308,366.06559 316.880308,366.96559 317.280308,368.06559 C317.380308,368.36559 317.280308,368.66559 316.980308,368.76559 Z M317.780308,447.66559 C317.780308,447.86559 317.880308,447.96559 317.880308,448.06559 C318.080308,448.46559 318.280308,448.86559 318.180308,449.46559 C318.180308,449.86559 317.780308,450.06559 317.480308,449.96559 C317.280308,449.86559 317.180308,449.76559 317.080308,449.56559 C317.080308,449.46559 317.080308,449.36559 317.080308,449.26559 C317.080308,449.06559 316.980308,448.96559 316.880308,448.66559 C316.780308,448.36559 316.580308,448.06559 316.580308,447.66559 C316.580308,447.36559 316.880308,447.06559 317.180308,447.06559 C317.480308,447.06559 317.780308,447.36559 317.780308,447.66559 Z M319.380308,452.76559 C319.380308,454.06559 319.880308,455.26559 320.280308,456.36559 C320.380308,456.66559 320.280308,456.96559 319.980308,457.06559 C319.680308,457.16559 319.380308,457.06559 319.280308,456.76559 C319.180308,456.56559 319.080308,456.26559 318.980308,455.96559 C318.680308,455.06559 318.380308,453.96559 318.280308,452.86559 C318.280308,452.56559 318.480308,452.26559 318.780308,452.26559 C319.080308,452.26559 319.380308,452.46559 319.380308,452.76559 Z M181.480308,96.4655896 C181.380308,96.1655896 181.280308,95.9655896 181.080308,95.8655896 C180.780308,95.1655896 180.580308,94.5655896 180.180308,94.1655896 C180.180308,94.0655896 180.080308,94.0655896 180.080308,93.9655896 C179.980308,93.7655896 179.980308,93.5655896 180.180308,93.4655896 C180.380308,93.2655896 180.680308,93.2655896 180.880308,93.4655896 C181.380308,93.9655896 181.680308,94.6655896 181.980308,95.3655896 C182.080308,95.5655896 182.180308,95.8655896 182.280308,96.0655896 C182.380308,96.2655896 182.380308,96.5655896 182.080308,96.6655896 C181.880308,96.7655896 181.580308,96.6655896 181.480308,96.4655896 Z M183.580308,99.8655896 C183.380308,99.8655896 183.180308,99.7655896 183.080308,99.6655896 L182.880308,98.9655896 C182.780308,98.7655896 182.880308,98.5655896 183.080308,98.4655896 C183.280308,98.3655896 183.480308,98.4655896 183.580308,98.6655896 L183.780308,99.3655896 C183.880308,99.5655896 183.780308,99.7655896 183.580308,99.8655896 Z M278.580308,368.16559 C278.580308,368.46559 278.380308,368.76559 278.180308,368.66559 C277.880308,368.76559 277.680308,368.56559 277.580308,368.36559 C277.580308,368.36559 277.580308,368.26559 277.580308,368.26559 C277.280308,366.06559 276.780308,363.96559 276.180308,361.66559 L275.880308,360.36559 C275.780308,360.16559 275.980308,359.86559 276.280308,359.76559 C276.480308,359.66559 276.780308,359.86559 276.880308,360.16559 L277.180308,361.46559 C277.680308,363.56559 278.180308,365.86559 278.580308,368.16559 Z M279.580308,373.76559 C279.580308,374.36559 279.680308,374.86559 280.080308,375.26559 C280.280308,375.46559 280.280308,375.76559 280.080308,375.96559 C279.880308,376.16559 279.580308,376.16559 279.380308,375.96559 C279.180308,375.76559 278.980308,375.46559 278.880308,375.16559 C278.780308,374.76559 278.680308,374.36559 278.680308,373.96559 C278.580308,373.66559 278.580308,373.36559 278.480308,373.06559 C278.380308,372.76559 278.480308,372.56559 278.780308,372.46559 C279.080308,372.36559 279.280308,372.56559 279.380308,372.76559 C279.480308,373.06559 279.580308,373.46559 279.580308,373.76559 Z M153.380308,147.46559 C153.280308,147.46559 153.280308,147.36559 153.280308,147.36559 C153.180308,147.16559 153.280308,146.86559 153.480308,146.66559 C153.680308,146.46559 154.180308,146.46559 154.380308,146.76559 C154.880308,147.36559 155.280308,147.86559 155.780308,148.46559 C156.480308,149.36559 157.280308,150.26559 158.080308,151.16559 C159.380308,151.26559 159.980308,152.96559 160.880308,153.86559 C162.780308,154.56559 164.280308,156.16559 165.080308,159.16559 C162.580308,159.96559 161.480308,158.16559 160.480308,155.86559 C159.480308,154.36559 157.880308,154.06559 157.180308,152.06559 C156.280308,151.16559 155.480308,150.16559 154.680308,149.16559 C154.280308,148.56559 153.880308,147.96559 153.380308,147.46559 Z M217.580308,346.26559 C217.780308,346.06559 218.080308,346.06559 218.280308,346.26559 C218.480308,346.36559 218.580308,346.66559 218.380308,346.86559 C218.080308,347.16559 217.880308,347.76559 217.780308,348.26559 C217.680308,348.56559 217.580308,348.86559 217.480308,349.16559 L217.580308,349.16559 C217.780308,350.66559 217.580308,351.96559 215.780308,352.46559 C215.180308,350.86559 215.980308,349.86559 216.680308,348.76559 C216.780308,348.56559 216.780308,348.36559 216.880308,348.06559 C216.980308,347.46559 217.180308,346.76559 217.580308,346.26559 Z M118.180308,107.96559 C118.180308,107.96559 118.180308,107.96559 118.280308,107.96559 C118.180308,107.66559 118.280308,107.36559 118.580308,107.16559 C118.880308,106.96559 119.280308,107.06559 119.480308,107.36559 L119.680308,107.76559 C119.880308,108.26559 120.180308,108.66559 120.480308,109.06559 C123.480308,111.36559 125.780308,112.06559 127.680308,117.06559 C126.980308,117.46559 126.680308,117.16559 126.180308,117.26559 C124.780308,116.96559 124.180308,115.46559 123.280308,114.56559 C122.080308,113.36559 120.480308,112.26559 119.380308,109.86559 C118.980308,109.36559 118.680308,108.86559 118.380308,108.36559 L118.180308,107.96559 Z M228.180308,392.16559 C228.480308,392.26559 228.680308,392.46559 228.580308,392.76559 C227.780308,396.66559 226.880308,400.46559 225.980308,404.16559 C225.380308,406.86559 224.680308,409.66559 224.080308,412.46559 C224.280308,412.86559 224.380308,413.36559 224.580308,413.76559 C223.880308,413.96559 223.280308,414.26559 222.580308,414.46559 C222.780308,413.86559 222.480308,412.96559 222.980308,412.46559 L223.080308,412.56559 C223.680308,409.66559 224.380308,406.76559 225.080308,403.96559 C225.880308,400.26559 226.880308,396.46559 227.580308,392.56559 C227.680308,392.26559 227.880308,392.16559 228.180308,392.16559 Z M146.380308,195.46559 C146.280308,195.26559 146.380308,194.96559 146.580308,194.86559 C146.780308,194.56559 147.180308,194.66559 147.380308,194.86559 C147.980308,195.46559 148.780308,195.76559 149.580308,196.16559 C150.080308,196.36559 150.480308,196.56559 150.980308,196.86559 C151.280308,197.06559 151.380308,197.36559 151.180308,197.66559 C150.980308,197.96559 150.680308,198.06559 150.380308,197.86559 C149.980308,197.66559 149.580308,197.46559 149.080308,197.26559 C148.080308,196.86559 147.180308,196.46559 146.480308,195.66559 C146.480308,195.56559 146.380308,195.56559 146.380308,195.46559 Z M188.680308,351.46559 C188.580308,351.66559 188.280308,351.66559 187.880308,351.46559 C187.780308,351.46559 187.680308,351.36559 187.680308,351.26559 C187.680308,351.16559 187.680308,350.96559 187.780308,350.86559 C188.080308,350.36559 188.380308,350.06559 188.780308,349.66559 L188.680308,349.66559 C188.780308,349.16559 189.180308,348.86559 189.780308,348.56559 C189.980308,348.16559 190.280308,347.66559 190.480308,347.26559 C191.580308,345.26559 192.680308,343.26559 194.480308,341.66559 C194.680308,341.46559 194.980308,341.46559 195.180308,341.66559 C195.380308,341.86559 195.380308,342.16559 195.180308,342.36559 C193.480308,343.86559 192.380308,345.86559 191.380308,347.76559 C191.080308,348.16559 190.880308,348.56559 190.680308,348.96559 C190.880308,349.56559 191.080308,350.06559 191.280308,350.66559 C190.580308,350.76559 190.380308,349.86559 189.380308,350.56559 C189.080308,350.86559 188.880308,351.16559 188.680308,351.46559 Z M127.980308,201.36559 C128.280308,201.46559 128.480308,201.76559 128.380308,202.06559 C128.280308,202.46559 127.980308,202.66559 127.680308,202.56559 C127.480308,202.46559 127.180308,202.46559 126.980308,202.46559 C126.680308,202.46559 126.480308,202.26559 126.380308,202.06559 C126.380308,201.96559 126.380308,201.96559 126.380308,201.86559 C126.380308,201.56559 126.680308,201.26559 126.980308,201.26559 C127.280308,201.26559 127.580308,201.26559 127.980308,201.36559 Z M171.680308,349.06559 C170.780308,350.06559 169.880308,351.16559 168.880308,352.16559 C168.980308,352.46559 169.080308,352.76559 169.180308,353.06559 C166.280308,353.56559 166.680308,357.96559 162.580308,358.86559 C160.180308,355.96559 166.580308,355.06559 166.280308,352.26559 C167.280308,352.06559 167.180308,351.56559 167.780308,351.26559 C168.780308,350.36559 169.680308,349.26559 170.580308,348.16559 C171.780308,346.66559 173.080308,345.26559 174.680308,344.06559 C174.980308,343.86559 175.480308,343.96559 175.680308,344.26559 C175.880308,344.56559 175.780308,345.06559 175.480308,345.26559 C174.080308,346.26559 172.880308,347.66559 171.680308,349.06559 Z M152.880308,301.56559 C152.580308,301.76559 152.380308,301.66559 152.280308,301.36559 C152.280308,301.36559 152.280308,301.26559 152.280308,301.26559 C152.180308,301.06559 152.280308,300.86559 152.480308,300.76559 C153.080308,300.46559 153.580308,300.26559 154.180308,299.96559 C155.380308,299.46559 156.380308,298.96559 157.180308,298.16559 C157.280308,297.96559 157.580308,297.96559 157.780308,298.16559 C157.980308,298.26559 157.980308,298.56559 157.780308,298.76559 C156.780308,299.66559 155.680308,300.26559 154.480308,300.76559 C153.880308,301.06559 153.380308,301.26559 152.880308,301.56559 Z M147.780308,304.06559 C145.380308,305.26559 142.880308,306.56559 139.880308,307.86559 C139.180308,310.26559 136.180308,310.96559 133.380308,312.66559 C132.280308,313.36559 131.580308,314.26559 129.580308,314.76559 L129.580308,314.66559 C128.780308,315.06559 127.980308,315.56559 127.080308,316.06559 C126.780308,316.26559 126.380308,316.46559 126.080308,316.66559 C125.880308,316.86559 125.480308,316.76559 125.380308,316.46559 C125.380308,316.46559 125.380308,316.36559 125.380308,316.36559 C125.380308,316.06559 125.480308,315.76559 125.680308,315.66559 C125.980308,315.46559 126.380308,315.26559 126.680308,315.06559 C127.480308,314.66559 128.280308,314.16559 129.180308,313.76559 C129.480308,313.16559 130.180308,312.66559 131.180308,312.36559 C131.880308,312.16559 130.880308,311.06559 130.880308,310.56559 C134.480308,309.66559 135.780308,307.66559 139.280308,306.76559 L139.280308,306.86559 C142.080308,305.66559 144.680308,304.46559 147.080308,303.16559 C147.480308,302.26559 149.380308,302.26559 150.080308,302.16559 C150.880308,303.56559 148.880308,303.66559 147.780308,304.06559 Z M153.780308,321.56559 C153.980308,321.46559 154.280308,321.46559 154.480308,321.66559 C154.680308,321.86559 154.580308,322.16559 154.380308,322.36559 C153.280308,323.16559 152.180308,324.06559 151.080308,324.96559 C149.780308,325.96559 148.380308,327.06559 146.980308,328.06559 C146.680308,328.26559 146.380308,328.16559 146.280308,327.96559 C146.180308,327.96559 146.180308,327.86559 146.180308,327.86559 C146.080308,327.66559 146.180308,327.36559 146.380308,327.26559 C147.780308,326.26559 149.080308,325.16559 150.380308,324.16559 C151.480308,323.26559 152.580308,322.36559 153.780308,321.56559 Z M117.780308,243.86559 C117.580308,243.76559 117.480308,243.66559 117.380308,243.66559 C117.380308,243.56559 117.380308,243.56559 117.380308,243.46559 C117.380308,243.16559 117.680308,243.06559 117.880308,243.06559 C118.580308,243.16559 119.180308,243.16559 119.880308,243.16559 L120.280308,243.16559 C120.480308,243.16559 120.680308,243.36559 120.680308,243.56559 C120.680308,243.76559 120.480308,243.96559 120.280308,243.96559 L119.880308,243.96559 C119.180308,243.96559 118.480308,243.96559 117.780308,243.86559 Z M95.3803084,289.56559 C95.2803084,289.26559 95.4803084,288.96559 95.5803084,288.86559 C95.8803084,288.76559 96.1803084,288.86559 96.2803084,289.16559 C96.2803084,289.26559 96.3803084,289.26559 96.3803084,289.36559 C97.2803084,289.06559 98.1803084,291.36559 97.1803084,291.66559 C96.0803084,292.36559 95.8803084,291.06559 95.4803084,290.06559 L95.5803084,290.06559 C95.5803084,289.86559 95.4803084,289.76559 95.3803084,289.56559 Z M150.480308,446.36559 C150.780308,446.26559 151.080308,446.36559 151.280308,446.66559 C151.480308,446.96559 151.380308,447.26559 151.080308,447.46559 C150.380308,447.86559 149.680308,448.36559 148.980308,448.86559 C148.480308,449.16559 147.980308,449.56559 147.480308,449.86559 C147.180308,450.06559 146.880308,449.96559 146.680308,449.66559 C146.580308,449.66559 146.580308,449.56559 146.580308,449.56559 C146.480308,449.26559 146.580308,449.06559 146.780308,448.86559 C147.280308,448.56559 147.680308,448.16559 148.180308,447.86559 C148.880308,447.36559 149.680308,446.76559 150.480308,446.36559 Z M100.780308,312.26559 C101.080308,312.26559 101.480308,312.36559 101.480308,312.46559 C101.580308,312.76559 101.480308,313.06559 101.180308,313.16559 L100.980308,313.26559 C100.680308,313.36559 100.280308,313.46559 99.9803084,313.56559 L99.9803084,313.66559 C98.7803084,314.06559 97.2803084,314.96559 96.4803084,314.56559 C95.6803084,313.26559 98.7803084,312.46559 99.7803084,312.56559 C100.080308,312.56559 100.280308,312.46559 100.580308,312.36559 L100.780308,312.26559 Z M233.680308,395.36559 C233.880308,395.36559 234.080308,395.56559 233.880308,395.86559 L233.880308,396.16559 C233.580308,398.56559 233.280308,400.76559 232.380308,403.06559 C232.280308,403.26559 232.080308,403.36559 231.880308,403.26559 C231.780308,403.26559 231.680308,403.16559 231.680308,403.06559 C231.680308,402.96559 231.680308,402.86559 231.680308,402.76559 C232.480308,400.46559 232.880308,398.26559 233.180308,395.96559 L233.180308,395.66559 C233.280308,395.46559 233.480308,395.36559 233.680308,395.36559 Z" transform="rotate(90 258.58 199.204)"/>
</svg>
